%TF.GenerationSoftware,KiCad,Pcbnew,9.0.4*%
%TF.CreationDate,2025-09-07T07:02:52-04:00*%
%TF.ProjectId,flex_partial,666c6578-5f70-4617-9274-69616c2e6b69,v20231105*%
%TF.SameCoordinates,Original*%
%TF.FileFunction,Copper,L2,Bot*%
%TF.FilePolarity,Positive*%
%FSLAX46Y46*%
G04 Gerber Fmt 4.6, Leading zero omitted, Abs format (unit mm)*
G04 Created by KiCad (PCBNEW 9.0.4) date 2025-09-07 07:02:52*
%MOMM*%
%LPD*%
G01*
G04 APERTURE LIST*
%TA.AperFunction,CastellatedPad*%
%ADD10C,0.450000*%
%TD*%
%TA.AperFunction,SMDPad,CuDef*%
%ADD11R,1.350000X0.450000*%
%TD*%
%TA.AperFunction,ComponentPad*%
%ADD12C,0.450000*%
%TD*%
%TA.AperFunction,ViaPad*%
%ADD13C,0.800000*%
%TD*%
%TA.AperFunction,Conductor*%
%ADD14C,0.300000*%
%TD*%
%TA.AperFunction,Conductor*%
%ADD15C,0.200000*%
%TD*%
G04 APERTURE END LIST*
D10*
%TO.P,X2,1,Pin_1*%
%TO.N,+3.3VA*%
X85760000Y-105980000D03*
D11*
X85985000Y-105980000D03*
D12*
X86435000Y-105980000D03*
%TD*%
D10*
%TO.P,X1,6,SCLK*%
%TO.N,Net-(RN4-R2.1)*%
X85755000Y-107930000D03*
D11*
X85980000Y-107930000D03*
D12*
X86430000Y-107930000D03*
D10*
%TO.P,X1,7,SDATA*%
%TO.N,Net-(RN4-R1.1)*%
X85755000Y-107280000D03*
D11*
X85980000Y-107280000D03*
D12*
X86430000Y-107280000D03*
D10*
%TO.P,X1,8,GND*%
%TO.N,GND*%
X85755000Y-106630000D03*
D11*
X85980000Y-106630000D03*
D12*
X86430000Y-106630000D03*
D10*
%TO.P,X1,10,LRCLK*%
%TO.N,Net-(RN3-R4.1)*%
X85755000Y-105330000D03*
D11*
X85980000Y-105330000D03*
D12*
X86430000Y-105330000D03*
D10*
%TO.P,X1,11,VCLK*%
%TO.N,Net-(RN3-R3.1)*%
X85755000Y-104680000D03*
D11*
X85980000Y-104680000D03*
D12*
X86430000Y-104680000D03*
D10*
%TO.P,X1,12,GND*%
%TO.N,GND*%
X85755000Y-104030000D03*
D11*
X85980000Y-104030000D03*
D12*
X86430000Y-104030000D03*
D10*
%TO.P,X1,14,nDSYNC*%
%TO.N,Net-(RN3-R1.1)*%
X85755000Y-102730000D03*
D11*
X85980000Y-102730000D03*
D12*
X86430000Y-102730000D03*
D10*
%TO.P,X1,15,D6*%
%TO.N,Net-(RN2-R4.1)*%
X85755000Y-102080000D03*
D11*
X85980000Y-102080000D03*
D12*
X86430000Y-102080000D03*
D10*
%TO.P,X1,16,GND*%
%TO.N,GND*%
X85755000Y-101430000D03*
D11*
X85980000Y-101430000D03*
D12*
X86430000Y-101430000D03*
D10*
%TO.P,X1,18,D5*%
%TO.N,Net-(RN2-R3.1)*%
X85755000Y-100130000D03*
D11*
X85980000Y-100130000D03*
D12*
X86430000Y-100130000D03*
D10*
%TO.P,X1,19,D4*%
%TO.N,Net-(RN2-R2.1)*%
X85755000Y-99480000D03*
D11*
X85980000Y-99480000D03*
D12*
X86430000Y-99480000D03*
D10*
%TO.P,X1,20,D3*%
%TO.N,Net-(RN2-R1.1)*%
X85755000Y-98830000D03*
D11*
X85980000Y-98830000D03*
D12*
X86430000Y-98830000D03*
D10*
%TO.P,X1,21,GND*%
%TO.N,GND*%
X85755000Y-98180000D03*
D11*
X85980000Y-98180000D03*
D12*
X86430000Y-98180000D03*
D10*
%TO.P,X1,23,D2*%
%TO.N,Net-(RN1-R4.1)*%
X85755000Y-96880000D03*
D11*
X85980000Y-96880000D03*
D12*
X86430000Y-96880000D03*
D10*
%TO.P,X1,24,D1*%
%TO.N,Net-(RN1-R3.1)*%
X85755000Y-96230000D03*
D11*
X85980000Y-96230000D03*
D12*
X86430000Y-96230000D03*
D10*
%TO.P,X1,25,D0*%
%TO.N,Net-(RN1-R2.1)*%
X85755000Y-95580000D03*
D11*
X85980000Y-95580000D03*
D12*
X86430000Y-95580000D03*
D10*
%TO.P,X1,28,GND*%
%TO.N,GND*%
X85755000Y-93630000D03*
D11*
X85980000Y-93630000D03*
D12*
X86430000Y-93630000D03*
%TD*%
D13*
%TO.N,GND*%
X99800000Y-98900000D03*
%TO.N,+3.3VA*%
X90600000Y-107800000D03*
X91400000Y-110600000D03*
%TO.N,GND*%
X90300000Y-94500000D03*
X99900000Y-96000000D03*
X99700000Y-103400000D03*
X93400000Y-117500000D03*
X89400000Y-106700000D03*
X94300000Y-103200000D03*
X101500000Y-115700000D03*
X92500000Y-114600000D03*
X88500000Y-101000000D03*
X90000000Y-103200000D03*
X87800000Y-93630000D03*
X88600000Y-97800000D03*
%TO.N,Net-(J3-Pin_1)*%
X99314497Y-105391302D03*
X95600000Y-92500000D03*
%TO.N,GND*%
X99800000Y-106700000D03*
X99800000Y-107900000D03*
%TD*%
D14*
%TO.N,+3.3VA*%
X91400000Y-110214214D02*
X91400000Y-110600000D01*
X90600000Y-107800000D02*
X90600000Y-108585786D01*
X90892893Y-109292893D02*
X91107107Y-109507107D01*
X90600000Y-108585786D02*
G75*
G03*
X90892886Y-109292900I1000000J-14D01*
G01*
X91400000Y-110214214D02*
G75*
G03*
X91107114Y-109507100I-1000000J14D01*
G01*
D15*
%TO.N,Net-(J3-Pin_1)*%
X96514214Y-104814214D02*
X96185787Y-104485787D01*
X97928427Y-105400000D02*
X99305799Y-105400000D01*
X99305799Y-105400000D02*
X99314497Y-105391302D01*
X96185787Y-104485787D02*
G75*
G02*
X95600019Y-103071573I1414213J1414187D01*
G01*
X97928427Y-105400000D02*
G75*
G02*
X96514200Y-104814228I-27J2000000D01*
G01*
X95600000Y-103071573D02*
X95600000Y-92500000D01*
%TD*%
%TA.AperFunction,Conductor*%
%TO.N,GND*%
G36*
X88576051Y-90094497D02*
G01*
X88643081Y-90114208D01*
X88688815Y-90167031D01*
X88700000Y-90218497D01*
X88700000Y-92600000D01*
X90964902Y-92600000D01*
X91029890Y-92618394D01*
X91338206Y-92808127D01*
X92300000Y-93400000D01*
X93153340Y-93494815D01*
X93217795Y-93521783D01*
X93231524Y-93534785D01*
X95145124Y-95646343D01*
X95217382Y-95726076D01*
X95247815Y-95788970D01*
X95249500Y-95809344D01*
X95249500Y-103125580D01*
X95249518Y-103125871D01*
X95249518Y-103169631D01*
X95249518Y-103203569D01*
X95278693Y-103462535D01*
X95279074Y-103465917D01*
X95279075Y-103465927D01*
X95337813Y-103723285D01*
X95337818Y-103723300D01*
X95425004Y-103972477D01*
X95487349Y-104101940D01*
X95539551Y-104210341D01*
X95568878Y-104257015D01*
X95680005Y-104433878D01*
X95844609Y-104640290D01*
X95898243Y-104693923D01*
X95898254Y-104693936D01*
X96222783Y-105018465D01*
X96222804Y-105018488D01*
X96230989Y-105026673D01*
X96231019Y-105026728D01*
X96266362Y-105062070D01*
X96266362Y-105062071D01*
X96359702Y-105155410D01*
X96566110Y-105320011D01*
X96789650Y-105460467D01*
X97027511Y-105575011D01*
X97276700Y-105662203D01*
X97534086Y-105720947D01*
X97796430Y-105750502D01*
X97928432Y-105750500D01*
X98705877Y-105750500D01*
X98772916Y-105770185D01*
X98804924Y-105801624D01*
X98805361Y-105801267D01*
X98808686Y-105805319D01*
X98808975Y-105805603D01*
X98809220Y-105805970D01*
X98809225Y-105805976D01*
X98899824Y-105896575D01*
X98899828Y-105896578D01*
X99006363Y-105967763D01*
X99006369Y-105967766D01*
X99006370Y-105967767D01*
X99124753Y-106016803D01*
X99124757Y-106016803D01*
X99124758Y-106016804D01*
X99250425Y-106041802D01*
X99250428Y-106041802D01*
X99378568Y-106041802D01*
X99463112Y-106024984D01*
X99504241Y-106016803D01*
X99622624Y-105967767D01*
X99729166Y-105896578D01*
X99761872Y-105863872D01*
X100109420Y-105863872D01*
X100248000Y-105863872D01*
X100497000Y-105863872D01*
X100999000Y-105863872D01*
X101248000Y-105863872D01*
X101750000Y-105863872D01*
X101999000Y-105863872D01*
X102501000Y-105863872D01*
X102750000Y-105863872D01*
X103126500Y-105863872D01*
X103126500Y-105361872D01*
X102750000Y-105361872D01*
X102750000Y-105863872D01*
X102501000Y-105863872D01*
X102501000Y-105361872D01*
X101999000Y-105361872D01*
X101999000Y-105863872D01*
X101750000Y-105863872D01*
X101750000Y-105361872D01*
X101248000Y-105361872D01*
X101248000Y-105863872D01*
X100999000Y-105863872D01*
X100999000Y-105361872D01*
X100497000Y-105361872D01*
X100497000Y-105863872D01*
X100248000Y-105863872D01*
X100248000Y-105361872D01*
X100237997Y-105361872D01*
X100237997Y-105462077D01*
X100237849Y-105468143D01*
X100237789Y-105469368D01*
X100237340Y-105475451D01*
X100236026Y-105488798D01*
X100235267Y-105494935D01*
X100235086Y-105496149D01*
X100234059Y-105502055D01*
X100206444Y-105640883D01*
X100205119Y-105646789D01*
X100204821Y-105647980D01*
X100203187Y-105653884D01*
X100199293Y-105666718D01*
X100197395Y-105672467D01*
X100196982Y-105673622D01*
X100194783Y-105679324D01*
X100140615Y-105810097D01*
X100138169Y-105815618D01*
X100137645Y-105816727D01*
X100134889Y-105822205D01*
X100128567Y-105834033D01*
X100125573Y-105839319D01*
X100124942Y-105840372D01*
X100121679Y-105845525D01*
X100109420Y-105863872D01*
X99761872Y-105863872D01*
X99819773Y-105805971D01*
X99890962Y-105699429D01*
X99939998Y-105581046D01*
X99962213Y-105469368D01*
X99964997Y-105455373D01*
X99964997Y-105327230D01*
X99939999Y-105201563D01*
X99939998Y-105201562D01*
X99939998Y-105201558D01*
X99890962Y-105083175D01*
X99890961Y-105083174D01*
X99890958Y-105083168D01*
X99819773Y-104976633D01*
X99819770Y-104976629D01*
X99729169Y-104886028D01*
X99729165Y-104886025D01*
X99622630Y-104814840D01*
X99622621Y-104814835D01*
X99504241Y-104765801D01*
X99504235Y-104765799D01*
X99378568Y-104740802D01*
X99378566Y-104740802D01*
X99250428Y-104740802D01*
X99250426Y-104740802D01*
X99124758Y-104765799D01*
X99124752Y-104765801D01*
X99006372Y-104814835D01*
X99006363Y-104814840D01*
X98899828Y-104886025D01*
X98899824Y-104886028D01*
X98809223Y-104976629D01*
X98809220Y-104976633D01*
X98797355Y-104994391D01*
X98743742Y-105039196D01*
X98694253Y-105049500D01*
X97993936Y-105049500D01*
X97993924Y-105049499D01*
X97932485Y-105049499D01*
X97924377Y-105049234D01*
X97721228Y-105035922D01*
X97705147Y-105033805D01*
X97509468Y-104994885D01*
X97493800Y-104990687D01*
X97304879Y-104926559D01*
X97289894Y-104920352D01*
X97110955Y-104832112D01*
X97096907Y-104824002D01*
X96931018Y-104713161D01*
X96918150Y-104703287D01*
X96916814Y-104702115D01*
X97493000Y-104702115D01*
X97572296Y-104729032D01*
X97748829Y-104764144D01*
X97937360Y-104776499D01*
X97994963Y-104776499D01*
X97994987Y-104776500D01*
X97995000Y-104776500D01*
X98244000Y-104776500D01*
X98623273Y-104776500D01*
X98711529Y-104688244D01*
X98715980Y-104684008D01*
X98716890Y-104683184D01*
X98721455Y-104679248D01*
X98731822Y-104670740D01*
X98736589Y-104667018D01*
X98737574Y-104666287D01*
X98742580Y-104662760D01*
X98746000Y-104660474D01*
X98746000Y-104610872D01*
X99808757Y-104610872D01*
X99886413Y-104662760D01*
X99891420Y-104666287D01*
X99892405Y-104667018D01*
X99897172Y-104670740D01*
X99907539Y-104679248D01*
X99912104Y-104683184D01*
X99913014Y-104684008D01*
X99917465Y-104688244D01*
X100017555Y-104788334D01*
X100021791Y-104792785D01*
X100022615Y-104793695D01*
X100026551Y-104798260D01*
X100035059Y-104808627D01*
X100038781Y-104813394D01*
X100039512Y-104814379D01*
X100043039Y-104819386D01*
X100121679Y-104937079D01*
X100124942Y-104942232D01*
X100125573Y-104943285D01*
X100128567Y-104948571D01*
X100134889Y-104960399D01*
X100137645Y-104965877D01*
X100138169Y-104966986D01*
X100140615Y-104972507D01*
X100194783Y-105103280D01*
X100196982Y-105108982D01*
X100197395Y-105110137D01*
X100198298Y-105112872D01*
X100248000Y-105112872D01*
X100497000Y-105112872D01*
X100999000Y-105112872D01*
X101248000Y-105112872D01*
X101750000Y-105112872D01*
X101999000Y-105112872D01*
X102501000Y-105112872D01*
X102750000Y-105112872D01*
X103126500Y-105112872D01*
X103126500Y-104610872D01*
X102750000Y-104610872D01*
X102750000Y-105112872D01*
X102501000Y-105112872D01*
X102501000Y-104610872D01*
X101999000Y-104610872D01*
X101999000Y-105112872D01*
X101750000Y-105112872D01*
X101750000Y-104610872D01*
X101248000Y-104610872D01*
X101248000Y-105112872D01*
X100999000Y-105112872D01*
X100999000Y-104610872D01*
X100497000Y-104610872D01*
X100497000Y-105112872D01*
X100248000Y-105112872D01*
X100248000Y-104610872D01*
X99808757Y-104610872D01*
X98746000Y-104610872D01*
X98244000Y-104610872D01*
X98244000Y-104776500D01*
X97995000Y-104776500D01*
X97995000Y-104610872D01*
X97493000Y-104610872D01*
X97493000Y-104702115D01*
X96916814Y-104702115D01*
X96765305Y-104569248D01*
X96759382Y-104563700D01*
X96436508Y-104240826D01*
X96430970Y-104234914D01*
X96365482Y-104160238D01*
X96742000Y-104160238D01*
X96943634Y-104361872D01*
X97244000Y-104361872D01*
X97493000Y-104361872D01*
X97995000Y-104361872D01*
X98244000Y-104361872D01*
X98746000Y-104361872D01*
X98995000Y-104361872D01*
X99497000Y-104361872D01*
X99497000Y-103999000D01*
X99746000Y-103999000D01*
X99746000Y-104361872D01*
X100248000Y-104361872D01*
X100497000Y-104361872D01*
X100999000Y-104361872D01*
X101248000Y-104361872D01*
X101750000Y-104361872D01*
X101999000Y-104361872D01*
X102501000Y-104361872D01*
X102750000Y-104361872D01*
X103126500Y-104361872D01*
X103126500Y-103859872D01*
X102750000Y-103859872D01*
X102750000Y-104361872D01*
X102501000Y-104361872D01*
X102501000Y-103859872D01*
X101999000Y-103859872D01*
X101999000Y-104361872D01*
X101750000Y-104361872D01*
X101750000Y-103859872D01*
X101248000Y-103859872D01*
X101248000Y-104361872D01*
X100999000Y-104361872D01*
X100999000Y-103859872D01*
X100497000Y-103859872D01*
X100497000Y-104361872D01*
X100248000Y-104361872D01*
X100248000Y-103859872D01*
X100087242Y-103859872D01*
X100079338Y-103867776D01*
X100053657Y-103887482D01*
X99945343Y-103950017D01*
X99915436Y-103962405D01*
X99794628Y-103994775D01*
X99762535Y-103999000D01*
X99746000Y-103999000D01*
X99497000Y-103999000D01*
X99497000Y-103965737D01*
X99484564Y-103962405D01*
X99454657Y-103950017D01*
X99346343Y-103887482D01*
X99320662Y-103867776D01*
X99312758Y-103859872D01*
X98995000Y-103859872D01*
X98995000Y-104361872D01*
X98746000Y-104361872D01*
X98746000Y-103859872D01*
X98244000Y-103859872D01*
X98244000Y-104361872D01*
X97995000Y-104361872D01*
X97995000Y-103859872D01*
X97493000Y-103859872D01*
X97493000Y-104361872D01*
X97244000Y-104361872D01*
X97244000Y-103859872D01*
X96742000Y-103859872D01*
X96742000Y-104160238D01*
X96365482Y-104160238D01*
X96296728Y-104081837D01*
X96286855Y-104068970D01*
X96260817Y-104030000D01*
X96176012Y-103903078D01*
X96167905Y-103889035D01*
X96079666Y-103710098D01*
X96073459Y-103695113D01*
X96043355Y-103606426D01*
X96009329Y-103506185D01*
X96005136Y-103490539D01*
X95966213Y-103294843D01*
X95964098Y-103278777D01*
X95952964Y-103108872D01*
X96226549Y-103108872D01*
X96235873Y-103251165D01*
X96270985Y-103427697D01*
X96328832Y-103598114D01*
X96335123Y-103610872D01*
X96493000Y-103610872D01*
X96742000Y-103610872D01*
X97244000Y-103610872D01*
X97493000Y-103610872D01*
X97995000Y-103610872D01*
X98244000Y-103610872D01*
X98746000Y-103610872D01*
X98995000Y-103610872D01*
X99136372Y-103610872D01*
X100497000Y-103610872D01*
X100999000Y-103610872D01*
X101248000Y-103610872D01*
X101750000Y-103610872D01*
X101999000Y-103610872D01*
X102501000Y-103610872D01*
X102750000Y-103610872D01*
X103126500Y-103610872D01*
X103126500Y-103108872D01*
X102750000Y-103108872D01*
X102750000Y-103610872D01*
X102501000Y-103610872D01*
X102501000Y-103108872D01*
X101999000Y-103108872D01*
X101999000Y-103610872D01*
X101750000Y-103610872D01*
X101750000Y-103108872D01*
X101248000Y-103108872D01*
X101248000Y-103610872D01*
X100999000Y-103610872D01*
X100999000Y-103108872D01*
X100497000Y-103108872D01*
X100497000Y-103610872D01*
X99136372Y-103610872D01*
X99105225Y-103494628D01*
X99101000Y-103462535D01*
X99101000Y-103337465D01*
X99105225Y-103305372D01*
X99137595Y-103184564D01*
X99149983Y-103154657D01*
X99176417Y-103108872D01*
X100223583Y-103108872D01*
X100248000Y-103151163D01*
X100248000Y-103108872D01*
X100223583Y-103108872D01*
X99176417Y-103108872D01*
X98995000Y-103108872D01*
X98995000Y-103610872D01*
X98746000Y-103610872D01*
X98746000Y-103108872D01*
X98244000Y-103108872D01*
X98244000Y-103610872D01*
X97995000Y-103610872D01*
X97995000Y-103108872D01*
X97493000Y-103108872D01*
X97493000Y-103610872D01*
X97244000Y-103610872D01*
X97244000Y-103108872D01*
X96742000Y-103108872D01*
X96742000Y-103610872D01*
X96493000Y-103610872D01*
X96493000Y-103108872D01*
X96226549Y-103108872D01*
X95952964Y-103108872D01*
X95950764Y-103075306D01*
X95950500Y-103067216D01*
X95950500Y-103052735D01*
X95950501Y-103016064D01*
X95950500Y-103016060D01*
X95950500Y-102859872D01*
X96223500Y-102859872D01*
X96493000Y-102859872D01*
X96742000Y-102859872D01*
X97244000Y-102859872D01*
X97493000Y-102859872D01*
X97995000Y-102859872D01*
X98244000Y-102859872D01*
X98746000Y-102859872D01*
X98995000Y-102859872D01*
X99437529Y-102859872D01*
X99454657Y-102849983D01*
X99484563Y-102837595D01*
X99497000Y-102834262D01*
X99497000Y-102801000D01*
X99746000Y-102801000D01*
X99762535Y-102801000D01*
X99794628Y-102805225D01*
X99915436Y-102837595D01*
X99945343Y-102849983D01*
X99962471Y-102859872D01*
X100248000Y-102859872D01*
X100497000Y-102859872D01*
X100999000Y-102859872D01*
X101248000Y-102859872D01*
X101750000Y-102859872D01*
X101999000Y-102859872D01*
X102501000Y-102859872D01*
X102750000Y-102859872D01*
X103126500Y-102859872D01*
X103126500Y-102357872D01*
X102750000Y-102357872D01*
X102750000Y-102859872D01*
X102501000Y-102859872D01*
X102501000Y-102357872D01*
X101999000Y-102357872D01*
X101999000Y-102859872D01*
X101750000Y-102859872D01*
X101750000Y-102357872D01*
X101248000Y-102357872D01*
X101248000Y-102859872D01*
X100999000Y-102859872D01*
X100999000Y-102357872D01*
X100497000Y-102357872D01*
X100497000Y-102859872D01*
X100248000Y-102859872D01*
X100248000Y-102357872D01*
X99746000Y-102357872D01*
X99746000Y-102801000D01*
X99497000Y-102801000D01*
X99497000Y-102357872D01*
X98995000Y-102357872D01*
X98995000Y-102859872D01*
X98746000Y-102859872D01*
X98746000Y-102357872D01*
X98244000Y-102357872D01*
X98244000Y-102859872D01*
X97995000Y-102859872D01*
X97995000Y-102357872D01*
X97493000Y-102357872D01*
X97493000Y-102859872D01*
X97244000Y-102859872D01*
X97244000Y-102357872D01*
X96742000Y-102357872D01*
X96742000Y-102859872D01*
X96493000Y-102859872D01*
X96493000Y-102357872D01*
X96223500Y-102357872D01*
X96223500Y-102859872D01*
X95950500Y-102859872D01*
X95950500Y-102108872D01*
X96223500Y-102108872D01*
X96493000Y-102108872D01*
X96742000Y-102108872D01*
X97244000Y-102108872D01*
X97493000Y-102108872D01*
X97995000Y-102108872D01*
X98244000Y-102108872D01*
X98746000Y-102108872D01*
X98995000Y-102108872D01*
X99497000Y-102108872D01*
X99746000Y-102108872D01*
X100248000Y-102108872D01*
X100497000Y-102108872D01*
X100999000Y-102108872D01*
X101248000Y-102108872D01*
X101750000Y-102108872D01*
X101999000Y-102108872D01*
X102501000Y-102108872D01*
X102750000Y-102108872D01*
X103126500Y-102108872D01*
X103126500Y-101606872D01*
X102750000Y-101606872D01*
X102750000Y-102108872D01*
X102501000Y-102108872D01*
X102501000Y-101606872D01*
X101999000Y-101606872D01*
X101999000Y-102108872D01*
X101750000Y-102108872D01*
X101750000Y-101606872D01*
X101248000Y-101606872D01*
X101248000Y-102108872D01*
X100999000Y-102108872D01*
X100999000Y-101606872D01*
X100497000Y-101606872D01*
X100497000Y-102108872D01*
X100248000Y-102108872D01*
X100248000Y-101606872D01*
X99746000Y-101606872D01*
X99746000Y-102108872D01*
X99497000Y-102108872D01*
X99497000Y-101606872D01*
X98995000Y-101606872D01*
X98995000Y-102108872D01*
X98746000Y-102108872D01*
X98746000Y-101606872D01*
X98244000Y-101606872D01*
X98244000Y-102108872D01*
X97995000Y-102108872D01*
X97995000Y-101606872D01*
X97493000Y-101606872D01*
X97493000Y-102108872D01*
X97244000Y-102108872D01*
X97244000Y-101606872D01*
X96742000Y-101606872D01*
X96742000Y-102108872D01*
X96493000Y-102108872D01*
X96493000Y-101606872D01*
X96223500Y-101606872D01*
X96223500Y-102108872D01*
X95950500Y-102108872D01*
X95950500Y-101357872D01*
X96223500Y-101357872D01*
X96493000Y-101357872D01*
X96742000Y-101357872D01*
X97244000Y-101357872D01*
X97493000Y-101357872D01*
X97995000Y-101357872D01*
X98244000Y-101357872D01*
X98746000Y-101357872D01*
X98995000Y-101357872D01*
X99497000Y-101357872D01*
X99746000Y-101357872D01*
X100248000Y-101357872D01*
X100497000Y-101357872D01*
X100999000Y-101357872D01*
X101248000Y-101357872D01*
X101750000Y-101357872D01*
X101999000Y-101357872D01*
X102501000Y-101357872D01*
X102750000Y-101357872D01*
X103126500Y-101357872D01*
X103126500Y-100855872D01*
X102750000Y-100855872D01*
X102750000Y-101357872D01*
X102501000Y-101357872D01*
X102501000Y-100855872D01*
X101999000Y-100855872D01*
X101999000Y-101357872D01*
X101750000Y-101357872D01*
X101750000Y-100855872D01*
X101248000Y-100855872D01*
X101248000Y-101357872D01*
X100999000Y-101357872D01*
X100999000Y-100855872D01*
X100497000Y-100855872D01*
X100497000Y-101357872D01*
X100248000Y-101357872D01*
X100248000Y-100855872D01*
X99746000Y-100855872D01*
X99746000Y-101357872D01*
X99497000Y-101357872D01*
X99497000Y-100855872D01*
X98995000Y-100855872D01*
X98995000Y-101357872D01*
X98746000Y-101357872D01*
X98746000Y-100855872D01*
X98244000Y-100855872D01*
X98244000Y-101357872D01*
X97995000Y-101357872D01*
X97995000Y-100855872D01*
X97493000Y-100855872D01*
X97493000Y-101357872D01*
X97244000Y-101357872D01*
X97244000Y-100855872D01*
X96742000Y-100855872D01*
X96742000Y-101357872D01*
X96493000Y-101357872D01*
X96493000Y-100855872D01*
X96223500Y-100855872D01*
X96223500Y-101357872D01*
X95950500Y-101357872D01*
X95950500Y-100606872D01*
X96223500Y-100606872D01*
X96493000Y-100606872D01*
X96742000Y-100606872D01*
X97244000Y-100606872D01*
X97493000Y-100606872D01*
X97995000Y-100606872D01*
X98244000Y-100606872D01*
X98746000Y-100606872D01*
X98995000Y-100606872D01*
X99497000Y-100606872D01*
X99746000Y-100606872D01*
X100248000Y-100606872D01*
X100497000Y-100606872D01*
X100999000Y-100606872D01*
X101248000Y-100606872D01*
X101750000Y-100606872D01*
X101999000Y-100606872D01*
X102501000Y-100606872D01*
X102750000Y-100606872D01*
X103126500Y-100606872D01*
X103126500Y-100104872D01*
X102750000Y-100104872D01*
X102750000Y-100606872D01*
X102501000Y-100606872D01*
X102501000Y-100104872D01*
X101999000Y-100104872D01*
X101999000Y-100606872D01*
X101750000Y-100606872D01*
X101750000Y-100104872D01*
X101248000Y-100104872D01*
X101248000Y-100606872D01*
X100999000Y-100606872D01*
X100999000Y-100104872D01*
X100497000Y-100104872D01*
X100497000Y-100606872D01*
X100248000Y-100606872D01*
X100248000Y-100104872D01*
X99746000Y-100104872D01*
X99746000Y-100606872D01*
X99497000Y-100606872D01*
X99497000Y-100104872D01*
X98995000Y-100104872D01*
X98995000Y-100606872D01*
X98746000Y-100606872D01*
X98746000Y-100104872D01*
X98244000Y-100104872D01*
X98244000Y-100606872D01*
X97995000Y-100606872D01*
X97995000Y-100104872D01*
X97493000Y-100104872D01*
X97493000Y-100606872D01*
X97244000Y-100606872D01*
X97244000Y-100104872D01*
X96742000Y-100104872D01*
X96742000Y-100606872D01*
X96493000Y-100606872D01*
X96493000Y-100104872D01*
X96223500Y-100104872D01*
X96223500Y-100606872D01*
X95950500Y-100606872D01*
X95950500Y-99855872D01*
X96223500Y-99855872D01*
X96493000Y-99855872D01*
X96742000Y-99855872D01*
X97244000Y-99855872D01*
X97493000Y-99855872D01*
X97995000Y-99855872D01*
X98244000Y-99855872D01*
X98746000Y-99855872D01*
X98995000Y-99855872D01*
X99497000Y-99855872D01*
X99497000Y-99499000D01*
X99746000Y-99499000D01*
X99746000Y-99855872D01*
X100248000Y-99855872D01*
X100497000Y-99855872D01*
X100999000Y-99855872D01*
X101248000Y-99855872D01*
X101750000Y-99855872D01*
X101999000Y-99855872D01*
X102501000Y-99855872D01*
X102750000Y-99855872D01*
X103126500Y-99855872D01*
X103126500Y-99353872D01*
X102750000Y-99353872D01*
X102750000Y-99855872D01*
X102501000Y-99855872D01*
X102501000Y-99353872D01*
X101999000Y-99353872D01*
X101999000Y-99855872D01*
X101750000Y-99855872D01*
X101750000Y-99353872D01*
X101248000Y-99353872D01*
X101248000Y-99855872D01*
X100999000Y-99855872D01*
X100999000Y-99353872D01*
X100497000Y-99353872D01*
X100497000Y-99855872D01*
X100248000Y-99855872D01*
X100248000Y-99353872D01*
X100193242Y-99353872D01*
X100179338Y-99367776D01*
X100153657Y-99387482D01*
X100045343Y-99450017D01*
X100015436Y-99462405D01*
X99894628Y-99494775D01*
X99862535Y-99499000D01*
X99746000Y-99499000D01*
X99497000Y-99499000D01*
X99497000Y-99416728D01*
X99446343Y-99387482D01*
X99420662Y-99367776D01*
X99406758Y-99353872D01*
X98995000Y-99353872D01*
X98995000Y-99855872D01*
X98746000Y-99855872D01*
X98746000Y-99353872D01*
X98244000Y-99353872D01*
X98244000Y-99855872D01*
X97995000Y-99855872D01*
X97995000Y-99353872D01*
X97493000Y-99353872D01*
X97493000Y-99855872D01*
X97244000Y-99855872D01*
X97244000Y-99353872D01*
X96742000Y-99353872D01*
X96742000Y-99855872D01*
X96493000Y-99855872D01*
X96493000Y-99353872D01*
X96223500Y-99353872D01*
X96223500Y-99855872D01*
X95950500Y-99855872D01*
X95950500Y-99104872D01*
X96223500Y-99104872D01*
X96493000Y-99104872D01*
X96742000Y-99104872D01*
X97244000Y-99104872D01*
X97493000Y-99104872D01*
X97995000Y-99104872D01*
X98244000Y-99104872D01*
X98746000Y-99104872D01*
X98995000Y-99104872D01*
X99234764Y-99104872D01*
X100497000Y-99104872D01*
X100999000Y-99104872D01*
X101248000Y-99104872D01*
X101750000Y-99104872D01*
X101999000Y-99104872D01*
X102501000Y-99104872D01*
X102750000Y-99104872D01*
X103126500Y-99104872D01*
X103126500Y-98602872D01*
X102750000Y-98602872D01*
X102750000Y-99104872D01*
X102501000Y-99104872D01*
X102501000Y-98602872D01*
X101999000Y-98602872D01*
X101999000Y-99104872D01*
X101750000Y-99104872D01*
X101750000Y-98602872D01*
X101248000Y-98602872D01*
X101248000Y-99104872D01*
X100999000Y-99104872D01*
X100999000Y-98602872D01*
X100497000Y-98602872D01*
X100497000Y-99104872D01*
X99234764Y-99104872D01*
X99205225Y-98994628D01*
X99201000Y-98962535D01*
X99201000Y-98837465D01*
X99205225Y-98805372D01*
X99237595Y-98684564D01*
X99249983Y-98654657D01*
X99279881Y-98602872D01*
X98995000Y-98602872D01*
X98995000Y-99104872D01*
X98746000Y-99104872D01*
X98746000Y-98602872D01*
X98244000Y-98602872D01*
X98244000Y-99104872D01*
X97995000Y-99104872D01*
X97995000Y-98602872D01*
X97493000Y-98602872D01*
X97493000Y-99104872D01*
X97244000Y-99104872D01*
X97244000Y-98763837D01*
X97199051Y-98805497D01*
X97046151Y-98882348D01*
X96978381Y-98894965D01*
X96963980Y-98893555D01*
X96899934Y-98868025D01*
X96742000Y-98745187D01*
X96742000Y-99104872D01*
X96493000Y-99104872D01*
X96493000Y-98602872D01*
X96223500Y-98602872D01*
X96223500Y-99104872D01*
X95950500Y-99104872D01*
X95950500Y-98037257D01*
X95970185Y-97970218D01*
X96022989Y-97924463D01*
X96092147Y-97914519D01*
X96150625Y-97939375D01*
X97000000Y-98600000D01*
X96994649Y-98353872D01*
X97493000Y-98353872D01*
X97995000Y-98353872D01*
X98244000Y-98353872D01*
X98746000Y-98353872D01*
X98995000Y-98353872D01*
X99497000Y-98353872D01*
X99497000Y-98301000D01*
X99746000Y-98301000D01*
X99862535Y-98301000D01*
X99894628Y-98305225D01*
X100015436Y-98337595D01*
X100045342Y-98349982D01*
X100052080Y-98353872D01*
X100248000Y-98353872D01*
X100497000Y-98353872D01*
X100999000Y-98353872D01*
X101248000Y-98353872D01*
X101750000Y-98353872D01*
X101999000Y-98353872D01*
X102501000Y-98353872D01*
X102750000Y-98353872D01*
X103126500Y-98353872D01*
X103126500Y-97851872D01*
X102750000Y-97851872D01*
X102750000Y-98353872D01*
X102501000Y-98353872D01*
X102501000Y-97851872D01*
X101999000Y-97851872D01*
X101999000Y-98353872D01*
X101750000Y-98353872D01*
X101750000Y-97851872D01*
X101248000Y-97851872D01*
X101248000Y-98353872D01*
X100999000Y-98353872D01*
X100999000Y-97851872D01*
X100497000Y-97851872D01*
X100497000Y-98353872D01*
X100248000Y-98353872D01*
X100248000Y-97851872D01*
X99746000Y-97851872D01*
X99746000Y-98301000D01*
X99497000Y-98301000D01*
X99497000Y-97851872D01*
X98995000Y-97851872D01*
X98995000Y-98353872D01*
X98746000Y-98353872D01*
X98746000Y-97851872D01*
X98244000Y-97851872D01*
X98244000Y-98353872D01*
X97995000Y-98353872D01*
X97995000Y-97851872D01*
X97493000Y-97851872D01*
X97493000Y-98353872D01*
X96994649Y-98353872D01*
X96978323Y-97602872D01*
X97493000Y-97602872D01*
X97995000Y-97602872D01*
X98244000Y-97602872D01*
X98746000Y-97602872D01*
X98995000Y-97602872D01*
X99497000Y-97602872D01*
X99746000Y-97602872D01*
X100248000Y-97602872D01*
X100497000Y-97602872D01*
X100999000Y-97602872D01*
X101248000Y-97602872D01*
X101750000Y-97602872D01*
X101999000Y-97602872D01*
X102501000Y-97602872D01*
X102750000Y-97602872D01*
X103126500Y-97602872D01*
X103126500Y-97100872D01*
X102750000Y-97100872D01*
X102750000Y-97602872D01*
X102501000Y-97602872D01*
X102501000Y-97100872D01*
X101999000Y-97100872D01*
X101999000Y-97602872D01*
X101750000Y-97602872D01*
X101750000Y-97100872D01*
X101248000Y-97100872D01*
X101248000Y-97602872D01*
X100999000Y-97602872D01*
X100999000Y-97100872D01*
X100497000Y-97100872D01*
X100497000Y-97602872D01*
X100248000Y-97602872D01*
X100248000Y-97100872D01*
X99746000Y-97100872D01*
X99746000Y-97602872D01*
X99497000Y-97602872D01*
X99497000Y-97100872D01*
X98995000Y-97100872D01*
X98995000Y-97602872D01*
X98746000Y-97602872D01*
X98746000Y-97100872D01*
X98244000Y-97100872D01*
X98244000Y-97602872D01*
X97995000Y-97602872D01*
X97995000Y-97100872D01*
X97493000Y-97100872D01*
X97493000Y-97602872D01*
X96978323Y-97602872D01*
X96967410Y-97100872D01*
X97240475Y-97100872D01*
X97244000Y-97263017D01*
X97244000Y-97100872D01*
X97240475Y-97100872D01*
X96967410Y-97100872D01*
X96951084Y-96349872D01*
X97224149Y-96349872D01*
X97235062Y-96851872D01*
X97244000Y-96851872D01*
X97493000Y-96851872D01*
X97995000Y-96851872D01*
X98244000Y-96851872D01*
X98746000Y-96851872D01*
X98995000Y-96851872D01*
X99497000Y-96851872D01*
X99497000Y-96578866D01*
X99746000Y-96578866D01*
X99746000Y-96851872D01*
X100248000Y-96851872D01*
X100497000Y-96851872D01*
X100999000Y-96851872D01*
X101248000Y-96851872D01*
X101750000Y-96851872D01*
X101999000Y-96851872D01*
X102501000Y-96851872D01*
X102750000Y-96851872D01*
X103126500Y-96851872D01*
X103126500Y-96349872D01*
X102750000Y-96349872D01*
X102750000Y-96851872D01*
X102501000Y-96851872D01*
X102501000Y-96349872D01*
X101999000Y-96349872D01*
X101999000Y-96851872D01*
X101750000Y-96851872D01*
X101750000Y-96349872D01*
X101248000Y-96349872D01*
X101248000Y-96851872D01*
X100999000Y-96851872D01*
X100999000Y-96349872D01*
X100497000Y-96349872D01*
X100497000Y-96851872D01*
X100248000Y-96851872D01*
X100248000Y-96490748D01*
X100145343Y-96550017D01*
X100115436Y-96562405D01*
X99994628Y-96594775D01*
X99962535Y-96599000D01*
X99837465Y-96599000D01*
X99805372Y-96594775D01*
X99746000Y-96578866D01*
X99497000Y-96578866D01*
X99497000Y-96444114D01*
X99432224Y-96379338D01*
X99412518Y-96353657D01*
X99410333Y-96349872D01*
X98995000Y-96349872D01*
X98995000Y-96851872D01*
X98746000Y-96851872D01*
X98746000Y-96349872D01*
X98244000Y-96349872D01*
X98244000Y-96851872D01*
X97995000Y-96851872D01*
X97995000Y-96349872D01*
X97493000Y-96349872D01*
X97493000Y-96851872D01*
X97244000Y-96851872D01*
X97244000Y-96349872D01*
X97224149Y-96349872D01*
X96951084Y-96349872D01*
X96934758Y-95598872D01*
X97207823Y-95598872D01*
X97218736Y-96100872D01*
X97244000Y-96100872D01*
X97493000Y-96100872D01*
X97995000Y-96100872D01*
X98244000Y-96100872D01*
X98746000Y-96100872D01*
X98995000Y-96100872D01*
X99306898Y-96100872D01*
X99305225Y-96094628D01*
X99301000Y-96062535D01*
X99301000Y-95937465D01*
X99303000Y-95922270D01*
X100497000Y-95922270D01*
X100499000Y-95937465D01*
X100499000Y-96062535D01*
X100497000Y-96077727D01*
X100497000Y-96100872D01*
X100999000Y-96100872D01*
X101248000Y-96100872D01*
X101750000Y-96100872D01*
X101999000Y-96100872D01*
X102501000Y-96100872D01*
X102750000Y-96100872D01*
X103126500Y-96100872D01*
X103126500Y-95598872D01*
X102750000Y-95598872D01*
X102750000Y-96100872D01*
X102501000Y-96100872D01*
X102501000Y-95598872D01*
X101999000Y-95598872D01*
X101999000Y-96100872D01*
X101750000Y-96100872D01*
X101750000Y-95598872D01*
X101248000Y-95598872D01*
X101248000Y-96100872D01*
X100999000Y-96100872D01*
X100999000Y-95598872D01*
X100497000Y-95598872D01*
X100497000Y-95922270D01*
X99303000Y-95922270D01*
X99305225Y-95905372D01*
X99337595Y-95784564D01*
X99349983Y-95754657D01*
X99412518Y-95646343D01*
X99432224Y-95620662D01*
X99454014Y-95598872D01*
X98995000Y-95598872D01*
X98995000Y-96100872D01*
X98746000Y-96100872D01*
X98746000Y-95598872D01*
X98244000Y-95598872D01*
X98244000Y-96100872D01*
X97995000Y-96100872D01*
X97995000Y-95598872D01*
X97493000Y-95598872D01*
X97493000Y-96100872D01*
X97244000Y-96100872D01*
X97244000Y-95598872D01*
X97207823Y-95598872D01*
X96934758Y-95598872D01*
X96918432Y-94847872D01*
X97191497Y-94847872D01*
X97202410Y-95349872D01*
X97244000Y-95349872D01*
X97493000Y-95349872D01*
X97995000Y-95349872D01*
X98244000Y-95349872D01*
X98746000Y-95349872D01*
X98995000Y-95349872D01*
X99497000Y-95349872D01*
X99746000Y-95349872D01*
X100248000Y-95349872D01*
X100497000Y-95349872D01*
X100999000Y-95349872D01*
X101248000Y-95349872D01*
X101750000Y-95349872D01*
X101999000Y-95349872D01*
X102501000Y-95349872D01*
X102750000Y-95349872D01*
X103126500Y-95349872D01*
X103126500Y-94847872D01*
X102750000Y-94847872D01*
X102750000Y-95349872D01*
X102501000Y-95349872D01*
X102501000Y-94847872D01*
X101999000Y-94847872D01*
X101999000Y-95349872D01*
X101750000Y-95349872D01*
X101750000Y-94847872D01*
X101248000Y-94847872D01*
X101248000Y-95349872D01*
X100999000Y-95349872D01*
X100999000Y-94847872D01*
X100497000Y-94847872D01*
X100497000Y-95349872D01*
X100248000Y-95349872D01*
X100248000Y-94847872D01*
X99746000Y-94847872D01*
X99746000Y-95349872D01*
X99497000Y-95349872D01*
X99497000Y-94847872D01*
X98995000Y-94847872D01*
X98995000Y-95349872D01*
X98746000Y-95349872D01*
X98746000Y-94847872D01*
X98244000Y-94847872D01*
X98244000Y-95349872D01*
X97995000Y-95349872D01*
X97995000Y-94847872D01*
X97493000Y-94847872D01*
X97493000Y-95349872D01*
X97244000Y-95349872D01*
X97244000Y-94847872D01*
X97191497Y-94847872D01*
X96918432Y-94847872D01*
X96902106Y-94096872D01*
X97175171Y-94096872D01*
X97186085Y-94598872D01*
X97244000Y-94598872D01*
X97493000Y-94598872D01*
X97995000Y-94598872D01*
X98244000Y-94598872D01*
X98746000Y-94598872D01*
X98995000Y-94598872D01*
X99497000Y-94598872D01*
X99746000Y-94598872D01*
X100248000Y-94598872D01*
X100497000Y-94598872D01*
X100999000Y-94598872D01*
X101248000Y-94598872D01*
X101750000Y-94598872D01*
X101999000Y-94598872D01*
X102501000Y-94598872D01*
X102750000Y-94598872D01*
X103126500Y-94598872D01*
X103126500Y-94096872D01*
X102750000Y-94096872D01*
X102750000Y-94598872D01*
X102501000Y-94598872D01*
X102501000Y-94096872D01*
X101999000Y-94096872D01*
X101999000Y-94598872D01*
X101750000Y-94598872D01*
X101750000Y-94096872D01*
X101248000Y-94096872D01*
X101248000Y-94598872D01*
X100999000Y-94598872D01*
X100999000Y-94096872D01*
X100497000Y-94096872D01*
X100497000Y-94598872D01*
X100248000Y-94598872D01*
X100248000Y-94096872D01*
X99746000Y-94096872D01*
X99746000Y-94598872D01*
X99497000Y-94598872D01*
X99497000Y-94096872D01*
X98995000Y-94096872D01*
X98995000Y-94598872D01*
X98746000Y-94598872D01*
X98746000Y-94096872D01*
X98244000Y-94096872D01*
X98244000Y-94598872D01*
X97995000Y-94598872D01*
X97995000Y-94096872D01*
X97493000Y-94096872D01*
X97493000Y-94598872D01*
X97244000Y-94598872D01*
X97244000Y-94096872D01*
X97175171Y-94096872D01*
X96902106Y-94096872D01*
X96900000Y-94000000D01*
X96249510Y-94000000D01*
X96182471Y-93980315D01*
X96164105Y-93965900D01*
X96160392Y-93962373D01*
X96073808Y-93880118D01*
X95989095Y-93799640D01*
X95954049Y-93739195D01*
X95950500Y-93709740D01*
X95950500Y-93645772D01*
X96223500Y-93645772D01*
X96309002Y-93727000D01*
X96493000Y-93727000D01*
X96742000Y-93727000D01*
X96955477Y-93727000D01*
X97002307Y-93736183D01*
X97011386Y-93739886D01*
X97051279Y-93766074D01*
X97130583Y-93843673D01*
X97133472Y-93847872D01*
X97244000Y-93847872D01*
X97493000Y-93847872D01*
X97995000Y-93847872D01*
X98244000Y-93847872D01*
X98746000Y-93847872D01*
X98995000Y-93847872D01*
X99497000Y-93847872D01*
X99746000Y-93847872D01*
X100248000Y-93847872D01*
X100497000Y-93847872D01*
X100999000Y-93847872D01*
X101248000Y-93847872D01*
X101750000Y-93847872D01*
X101999000Y-93847872D01*
X102501000Y-93847872D01*
X102750000Y-93847872D01*
X103126500Y-93847872D01*
X103126500Y-93345872D01*
X102750000Y-93345872D01*
X102750000Y-93847872D01*
X102501000Y-93847872D01*
X102501000Y-93345872D01*
X101999000Y-93345872D01*
X101999000Y-93847872D01*
X101750000Y-93847872D01*
X101750000Y-93345872D01*
X101248000Y-93345872D01*
X101248000Y-93847872D01*
X100999000Y-93847872D01*
X100999000Y-93345872D01*
X100497000Y-93345872D01*
X100497000Y-93847872D01*
X100248000Y-93847872D01*
X100248000Y-93345872D01*
X99746000Y-93345872D01*
X99746000Y-93847872D01*
X99497000Y-93847872D01*
X99497000Y-93345872D01*
X98995000Y-93345872D01*
X98995000Y-93847872D01*
X98746000Y-93847872D01*
X98746000Y-93345872D01*
X98244000Y-93345872D01*
X98244000Y-93847872D01*
X97995000Y-93847872D01*
X97995000Y-93345872D01*
X97493000Y-93345872D01*
X97493000Y-93847872D01*
X97244000Y-93847872D01*
X97244000Y-93345872D01*
X96742000Y-93345872D01*
X96742000Y-93727000D01*
X96493000Y-93727000D01*
X96493000Y-93345872D01*
X96223500Y-93345872D01*
X96223500Y-93645772D01*
X95950500Y-93645772D01*
X95950500Y-93114431D01*
X95955656Y-93096872D01*
X96308752Y-93096872D01*
X96493000Y-93096872D01*
X96742000Y-93096872D01*
X97244000Y-93096872D01*
X97493000Y-93096872D01*
X97995000Y-93096872D01*
X98244000Y-93096872D01*
X98746000Y-93096872D01*
X98995000Y-93096872D01*
X99497000Y-93096872D01*
X99746000Y-93096872D01*
X100248000Y-93096872D01*
X100497000Y-93096872D01*
X100999000Y-93096872D01*
X101248000Y-93096872D01*
X101750000Y-93096872D01*
X101999000Y-93096872D01*
X102501000Y-93096872D01*
X102750000Y-93096872D01*
X103126500Y-93096872D01*
X103126500Y-92594872D01*
X102750000Y-92594872D01*
X102750000Y-93096872D01*
X102501000Y-93096872D01*
X102501000Y-92594872D01*
X101999000Y-92594872D01*
X101999000Y-93096872D01*
X101750000Y-93096872D01*
X101750000Y-92594872D01*
X101248000Y-92594872D01*
X101248000Y-93096872D01*
X100999000Y-93096872D01*
X100999000Y-92594872D01*
X100497000Y-92594872D01*
X100497000Y-93096872D01*
X100248000Y-93096872D01*
X100248000Y-92594872D01*
X99746000Y-92594872D01*
X99746000Y-93096872D01*
X99497000Y-93096872D01*
X99497000Y-92594872D01*
X98995000Y-92594872D01*
X98995000Y-93096872D01*
X98746000Y-93096872D01*
X98746000Y-92594872D01*
X98244000Y-92594872D01*
X98244000Y-93096872D01*
X97995000Y-93096872D01*
X97995000Y-92594872D01*
X97493000Y-92594872D01*
X97493000Y-93096872D01*
X97244000Y-93096872D01*
X97244000Y-92594872D01*
X96742000Y-92594872D01*
X96742000Y-93096872D01*
X96493000Y-93096872D01*
X96493000Y-92744287D01*
X96491947Y-92749581D01*
X96490622Y-92755487D01*
X96490324Y-92756678D01*
X96488690Y-92762582D01*
X96484796Y-92775416D01*
X96482898Y-92781165D01*
X96482485Y-92782320D01*
X96480286Y-92788022D01*
X96426118Y-92918795D01*
X96423672Y-92924316D01*
X96423148Y-92925425D01*
X96420392Y-92930903D01*
X96414070Y-92942731D01*
X96411076Y-92948017D01*
X96410445Y-92949070D01*
X96407182Y-92954223D01*
X96328542Y-93071916D01*
X96325015Y-93076923D01*
X96324284Y-93077908D01*
X96320562Y-93082675D01*
X96312054Y-93093042D01*
X96308752Y-93096872D01*
X95955656Y-93096872D01*
X95970185Y-93047392D01*
X96005610Y-93011328D01*
X96014669Y-93005276D01*
X96105276Y-92914669D01*
X96176465Y-92808127D01*
X96225501Y-92689744D01*
X96239694Y-92618394D01*
X96250500Y-92564071D01*
X96250500Y-92435928D01*
X96232586Y-92345872D01*
X96742000Y-92345872D01*
X97244000Y-92345872D01*
X97493000Y-92345872D01*
X97995000Y-92345872D01*
X98244000Y-92345872D01*
X98746000Y-92345872D01*
X98995000Y-92345872D01*
X99497000Y-92345872D01*
X99746000Y-92345872D01*
X100248000Y-92345872D01*
X100497000Y-92345872D01*
X100999000Y-92345872D01*
X101248000Y-92345872D01*
X101750000Y-92345872D01*
X101999000Y-92345872D01*
X102501000Y-92345872D01*
X102750000Y-92345872D01*
X103126500Y-92345872D01*
X103126500Y-91843872D01*
X102750000Y-91843872D01*
X102750000Y-92345872D01*
X102501000Y-92345872D01*
X102501000Y-91843872D01*
X101999000Y-91843872D01*
X101999000Y-92345872D01*
X101750000Y-92345872D01*
X101750000Y-91843872D01*
X101248000Y-91843872D01*
X101248000Y-92345872D01*
X100999000Y-92345872D01*
X100999000Y-91843872D01*
X100497000Y-91843872D01*
X100497000Y-92345872D01*
X100248000Y-92345872D01*
X100248000Y-91843872D01*
X99746000Y-91843872D01*
X99746000Y-92345872D01*
X99497000Y-92345872D01*
X99497000Y-91843872D01*
X98995000Y-91843872D01*
X98995000Y-92345872D01*
X98746000Y-92345872D01*
X98746000Y-91843872D01*
X98244000Y-91843872D01*
X98244000Y-92345872D01*
X97995000Y-92345872D01*
X97995000Y-91843872D01*
X97493000Y-91843872D01*
X97493000Y-92345872D01*
X97244000Y-92345872D01*
X97244000Y-91843872D01*
X96742000Y-91843872D01*
X96742000Y-92345872D01*
X96232586Y-92345872D01*
X96225502Y-92310261D01*
X96225501Y-92310260D01*
X96225501Y-92310256D01*
X96176465Y-92191873D01*
X96176464Y-92191872D01*
X96176461Y-92191866D01*
X96105276Y-92085331D01*
X96105273Y-92085327D01*
X96014672Y-91994726D01*
X96014668Y-91994723D01*
X95908133Y-91923538D01*
X95908124Y-91923533D01*
X95789744Y-91874499D01*
X95789738Y-91874497D01*
X95664071Y-91849500D01*
X95664069Y-91849500D01*
X95535931Y-91849500D01*
X95535929Y-91849500D01*
X95410261Y-91874497D01*
X95410255Y-91874499D01*
X95291875Y-91923533D01*
X95291866Y-91923538D01*
X95185331Y-91994723D01*
X95185327Y-91994726D01*
X95094726Y-92085327D01*
X95094723Y-92085331D01*
X95023538Y-92191866D01*
X95023533Y-92191875D01*
X94974499Y-92310255D01*
X94974497Y-92310261D01*
X94949500Y-92435928D01*
X94949500Y-92523190D01*
X94929815Y-92590229D01*
X94877011Y-92635984D01*
X94807853Y-92645928D01*
X94744297Y-92616903D01*
X94740095Y-92613090D01*
X94238595Y-92136665D01*
X94203549Y-92076220D01*
X94200000Y-92046765D01*
X94200000Y-91997996D01*
X94489000Y-91997996D01*
X94718247Y-92215781D01*
X94719714Y-92211978D01*
X94773882Y-92081205D01*
X94776328Y-92075684D01*
X94776852Y-92074575D01*
X94779608Y-92069097D01*
X94785930Y-92057269D01*
X94788924Y-92051983D01*
X94789555Y-92050930D01*
X94792818Y-92045777D01*
X94871458Y-91928084D01*
X94874985Y-91923077D01*
X94875716Y-91922092D01*
X94879438Y-91917325D01*
X94887946Y-91906958D01*
X94891882Y-91902393D01*
X94892706Y-91901483D01*
X94896942Y-91897032D01*
X94950102Y-91843872D01*
X96249898Y-91843872D01*
X96303058Y-91897032D01*
X96307294Y-91901483D01*
X96308118Y-91902393D01*
X96312054Y-91906958D01*
X96320562Y-91917325D01*
X96324284Y-91922092D01*
X96325015Y-91923077D01*
X96328542Y-91928084D01*
X96407182Y-92045777D01*
X96410445Y-92050930D01*
X96411076Y-92051983D01*
X96414070Y-92057269D01*
X96420392Y-92069097D01*
X96423148Y-92074575D01*
X96423672Y-92075684D01*
X96426118Y-92081205D01*
X96480286Y-92211978D01*
X96482485Y-92217680D01*
X96482898Y-92218835D01*
X96484796Y-92224584D01*
X96488690Y-92237418D01*
X96490324Y-92243322D01*
X96490622Y-92244513D01*
X96491947Y-92250419D01*
X96493000Y-92255712D01*
X96493000Y-91843872D01*
X96249898Y-91843872D01*
X94950102Y-91843872D01*
X94489000Y-91843872D01*
X94489000Y-91997996D01*
X94200000Y-91997996D01*
X94200000Y-91594872D01*
X94489000Y-91594872D01*
X94991000Y-91594872D01*
X95240000Y-91594872D01*
X95416684Y-91594872D01*
X95991000Y-91594872D01*
X96493000Y-91594872D01*
X96742000Y-91594872D01*
X97244000Y-91594872D01*
X97493000Y-91594872D01*
X97995000Y-91594872D01*
X98244000Y-91594872D01*
X98746000Y-91594872D01*
X98995000Y-91594872D01*
X99497000Y-91594872D01*
X99746000Y-91594872D01*
X100248000Y-91594872D01*
X100497000Y-91594872D01*
X100999000Y-91594872D01*
X101248000Y-91594872D01*
X101750000Y-91594872D01*
X101999000Y-91594872D01*
X102501000Y-91594872D01*
X102750000Y-91594872D01*
X103126500Y-91594872D01*
X103126500Y-91096074D01*
X103123299Y-91092872D01*
X102750000Y-91092872D01*
X102750000Y-91594872D01*
X102501000Y-91594872D01*
X102501000Y-91092872D01*
X101999000Y-91092872D01*
X101999000Y-91594872D01*
X101750000Y-91594872D01*
X101750000Y-91092872D01*
X101248000Y-91092872D01*
X101248000Y-91594872D01*
X100999000Y-91594872D01*
X100999000Y-91092872D01*
X100497000Y-91092872D01*
X100497000Y-91594872D01*
X100248000Y-91594872D01*
X100248000Y-91092872D01*
X99746000Y-91092872D01*
X99746000Y-91594872D01*
X99497000Y-91594872D01*
X99497000Y-91092872D01*
X98995000Y-91092872D01*
X98995000Y-91594872D01*
X98746000Y-91594872D01*
X98746000Y-91092872D01*
X98244000Y-91092872D01*
X98244000Y-91594872D01*
X97995000Y-91594872D01*
X97995000Y-91092872D01*
X97493000Y-91092872D01*
X97493000Y-91594872D01*
X97244000Y-91594872D01*
X97244000Y-91092872D01*
X96742000Y-91092872D01*
X96742000Y-91594872D01*
X96493000Y-91594872D01*
X96493000Y-91092872D01*
X95991000Y-91092872D01*
X95991000Y-91594872D01*
X95416684Y-91594872D01*
X95489248Y-91580438D01*
X95495153Y-91579411D01*
X95496367Y-91579230D01*
X95502504Y-91578471D01*
X95515851Y-91577157D01*
X95521934Y-91576708D01*
X95523159Y-91576648D01*
X95529225Y-91576500D01*
X95670775Y-91576500D01*
X95676841Y-91576648D01*
X95678066Y-91576708D01*
X95684149Y-91577157D01*
X95697496Y-91578471D01*
X95703633Y-91579230D01*
X95704847Y-91579411D01*
X95710752Y-91580438D01*
X95742000Y-91586653D01*
X95742000Y-91092872D01*
X95240000Y-91092872D01*
X95240000Y-91594872D01*
X94991000Y-91594872D01*
X94991000Y-91092872D01*
X94489000Y-91092872D01*
X94489000Y-91594872D01*
X94200000Y-91594872D01*
X94200000Y-90843872D01*
X94489000Y-90843872D01*
X94991000Y-90843872D01*
X95240000Y-90843872D01*
X95742000Y-90843872D01*
X95991000Y-90843872D01*
X96493000Y-90843872D01*
X96742000Y-90843872D01*
X97244000Y-90843872D01*
X97493000Y-90843872D01*
X97995000Y-90843872D01*
X98244000Y-90843872D01*
X98746000Y-90843872D01*
X98995000Y-90843872D01*
X99497000Y-90843872D01*
X99746000Y-90843872D01*
X100248000Y-90843872D01*
X100497000Y-90843872D01*
X100999000Y-90843872D01*
X101248000Y-90843872D01*
X101750000Y-90843872D01*
X101999000Y-90843872D01*
X102501000Y-90843872D01*
X102501000Y-90470323D01*
X102403734Y-90373019D01*
X101999000Y-90372857D01*
X101999000Y-90843872D01*
X101750000Y-90843872D01*
X101750000Y-90372757D01*
X101248000Y-90372557D01*
X101248000Y-90843872D01*
X100999000Y-90843872D01*
X100999000Y-90372457D01*
X100497000Y-90372257D01*
X100497000Y-90843872D01*
X100248000Y-90843872D01*
X100248000Y-90372157D01*
X99746000Y-90371957D01*
X99746000Y-90843872D01*
X99497000Y-90843872D01*
X99497000Y-90371857D01*
X98995000Y-90371657D01*
X98995000Y-90843872D01*
X98746000Y-90843872D01*
X98746000Y-90371557D01*
X98244000Y-90371357D01*
X98244000Y-90843872D01*
X97995000Y-90843872D01*
X97995000Y-90371257D01*
X97493000Y-90371057D01*
X97493000Y-90843872D01*
X97244000Y-90843872D01*
X97244000Y-90370957D01*
X96742000Y-90370757D01*
X96742000Y-90843872D01*
X96493000Y-90843872D01*
X96493000Y-90370657D01*
X95991000Y-90370457D01*
X95991000Y-90843872D01*
X95742000Y-90843872D01*
X95742000Y-90370357D01*
X95240000Y-90370157D01*
X95240000Y-90843872D01*
X94991000Y-90843872D01*
X94991000Y-90370057D01*
X94489000Y-90369857D01*
X94489000Y-90843872D01*
X94200000Y-90843872D01*
X94200000Y-90220793D01*
X94219685Y-90153754D01*
X94272489Y-90107999D01*
X94324047Y-90096793D01*
X102465546Y-90100045D01*
X102532576Y-90119756D01*
X102553194Y-90136381D01*
X102958380Y-90541729D01*
X103316547Y-90900040D01*
X103363199Y-90946710D01*
X103396671Y-91008040D01*
X103399500Y-91034374D01*
X103399500Y-117365588D01*
X103379815Y-117432627D01*
X103363181Y-117453269D01*
X102553269Y-118263181D01*
X102491946Y-118296666D01*
X102465588Y-118299500D01*
X91414412Y-118299500D01*
X91347373Y-118279815D01*
X91326731Y-118263181D01*
X90943422Y-117879872D01*
X91485000Y-117879872D01*
X91987000Y-117879872D01*
X92236000Y-117879872D01*
X92738000Y-117879872D01*
X93867242Y-117879872D01*
X94240000Y-117879872D01*
X94489000Y-117879872D01*
X94991000Y-117879872D01*
X95240000Y-117879872D01*
X95742000Y-117879872D01*
X95991000Y-117879872D01*
X96493000Y-117879872D01*
X96742000Y-117879872D01*
X97244000Y-117879872D01*
X97493000Y-117879872D01*
X97995000Y-117879872D01*
X98244000Y-117879872D01*
X98746000Y-117879872D01*
X98995000Y-117879872D01*
X99497000Y-117879872D01*
X99746000Y-117879872D01*
X100248000Y-117879872D01*
X100497000Y-117879872D01*
X100999000Y-117879872D01*
X101248000Y-117879872D01*
X101750000Y-117879872D01*
X101999000Y-117879872D01*
X102501000Y-117879872D01*
X102501000Y-117680370D01*
X102750000Y-117680370D01*
X103052498Y-117377872D01*
X102750000Y-117377872D01*
X102750000Y-117680370D01*
X102501000Y-117680370D01*
X102501000Y-117377872D01*
X101999000Y-117377872D01*
X101999000Y-117879872D01*
X101750000Y-117879872D01*
X101750000Y-117377872D01*
X101248000Y-117377872D01*
X101248000Y-117879872D01*
X100999000Y-117879872D01*
X100999000Y-117377872D01*
X100497000Y-117377872D01*
X100497000Y-117879872D01*
X100248000Y-117879872D01*
X100248000Y-117377872D01*
X99746000Y-117377872D01*
X99746000Y-117879872D01*
X99497000Y-117879872D01*
X99497000Y-117377872D01*
X98995000Y-117377872D01*
X98995000Y-117879872D01*
X98746000Y-117879872D01*
X98746000Y-117377872D01*
X98244000Y-117377872D01*
X98244000Y-117879872D01*
X97995000Y-117879872D01*
X97995000Y-117377872D01*
X97493000Y-117377872D01*
X97493000Y-117879872D01*
X97244000Y-117879872D01*
X97244000Y-117377872D01*
X96742000Y-117377872D01*
X96742000Y-117879872D01*
X96493000Y-117879872D01*
X96493000Y-117377872D01*
X95991000Y-117377872D01*
X95991000Y-117879872D01*
X95742000Y-117879872D01*
X95742000Y-117377872D01*
X95240000Y-117377872D01*
X95240000Y-117879872D01*
X94991000Y-117879872D01*
X94991000Y-117377872D01*
X94489000Y-117377872D01*
X94489000Y-117879872D01*
X94240000Y-117879872D01*
X94240000Y-117377872D01*
X93987406Y-117377872D01*
X93994775Y-117405372D01*
X93999000Y-117437465D01*
X93999000Y-117562535D01*
X93994775Y-117594628D01*
X93962405Y-117715436D01*
X93950017Y-117745343D01*
X93887482Y-117853657D01*
X93867776Y-117879338D01*
X93867242Y-117879872D01*
X92738000Y-117879872D01*
X92738000Y-117377872D01*
X92236000Y-117377872D01*
X92236000Y-117879872D01*
X91987000Y-117879872D01*
X91987000Y-117377872D01*
X91485000Y-117377872D01*
X91485000Y-117879872D01*
X90943422Y-117879872D01*
X90516819Y-117453269D01*
X90483334Y-117391946D01*
X90481821Y-117377872D01*
X90827502Y-117377872D01*
X91236000Y-117786370D01*
X91236000Y-117377872D01*
X90827502Y-117377872D01*
X90481821Y-117377872D01*
X90480500Y-117365588D01*
X90480500Y-117128872D01*
X90753500Y-117128872D01*
X91236000Y-117128872D01*
X91485000Y-117128872D01*
X91987000Y-117128872D01*
X92236000Y-117128872D01*
X92738000Y-117128872D01*
X92738000Y-117065886D01*
X92987000Y-117065886D01*
X93020662Y-117032224D01*
X93046343Y-117012518D01*
X93062003Y-117003477D01*
X93738000Y-117003477D01*
X93753658Y-117012518D01*
X93779338Y-117032224D01*
X93867776Y-117120662D01*
X93874076Y-117128872D01*
X94240000Y-117128872D01*
X94489000Y-117128872D01*
X94991000Y-117128872D01*
X95240000Y-117128872D01*
X95742000Y-117128872D01*
X95991000Y-117128872D01*
X96493000Y-117128872D01*
X96742000Y-117128872D01*
X97244000Y-117128872D01*
X97493000Y-117128872D01*
X97995000Y-117128872D01*
X98244000Y-117128872D01*
X98746000Y-117128872D01*
X98995000Y-117128872D01*
X99497000Y-117128872D01*
X99746000Y-117128872D01*
X100248000Y-117128872D01*
X100497000Y-117128872D01*
X100999000Y-117128872D01*
X101248000Y-117128872D01*
X101750000Y-117128872D01*
X101999000Y-117128872D01*
X102501000Y-117128872D01*
X102750000Y-117128872D01*
X103126500Y-117128872D01*
X103126500Y-116626872D01*
X102750000Y-116626872D01*
X102750000Y-117128872D01*
X102501000Y-117128872D01*
X102501000Y-116626872D01*
X101999000Y-116626872D01*
X101999000Y-117128872D01*
X101750000Y-117128872D01*
X101750000Y-116626872D01*
X101248000Y-116626872D01*
X101248000Y-117128872D01*
X100999000Y-117128872D01*
X100999000Y-116626872D01*
X100497000Y-116626872D01*
X100497000Y-117128872D01*
X100248000Y-117128872D01*
X100248000Y-116626872D01*
X99746000Y-116626872D01*
X99746000Y-117128872D01*
X99497000Y-117128872D01*
X99497000Y-116626872D01*
X98995000Y-116626872D01*
X98995000Y-117128872D01*
X98746000Y-117128872D01*
X98746000Y-116626872D01*
X98244000Y-116626872D01*
X98244000Y-117128872D01*
X97995000Y-117128872D01*
X97995000Y-116626872D01*
X97493000Y-116626872D01*
X97493000Y-117128872D01*
X97244000Y-117128872D01*
X97244000Y-116626872D01*
X96742000Y-116626872D01*
X96742000Y-117128872D01*
X96493000Y-117128872D01*
X96493000Y-116626872D01*
X95991000Y-116626872D01*
X95991000Y-117128872D01*
X95742000Y-117128872D01*
X95742000Y-116626872D01*
X95240000Y-116626872D01*
X95240000Y-117128872D01*
X94991000Y-117128872D01*
X94991000Y-116626872D01*
X94489000Y-116626872D01*
X94489000Y-117128872D01*
X94240000Y-117128872D01*
X94240000Y-116626872D01*
X93738000Y-116626872D01*
X93738000Y-117003477D01*
X93062003Y-117003477D01*
X93154657Y-116949983D01*
X93184564Y-116937595D01*
X93305372Y-116905225D01*
X93337465Y-116901000D01*
X93462535Y-116901000D01*
X93489000Y-116904484D01*
X93489000Y-116626872D01*
X92987000Y-116626872D01*
X92987000Y-117065886D01*
X92738000Y-117065886D01*
X92738000Y-116626872D01*
X92236000Y-116626872D01*
X92236000Y-117128872D01*
X91987000Y-117128872D01*
X91987000Y-116626872D01*
X91485000Y-116626872D01*
X91485000Y-117128872D01*
X91236000Y-117128872D01*
X91236000Y-116626872D01*
X90753500Y-116626872D01*
X90753500Y-117128872D01*
X90480500Y-117128872D01*
X90480500Y-116377872D01*
X90753500Y-116377872D01*
X91236000Y-116377872D01*
X91485000Y-116377872D01*
X91987000Y-116377872D01*
X92236000Y-116377872D01*
X92738000Y-116377872D01*
X92987000Y-116377872D01*
X93489000Y-116377872D01*
X93738000Y-116377872D01*
X94240000Y-116377872D01*
X94489000Y-116377872D01*
X94991000Y-116377872D01*
X95240000Y-116377872D01*
X95742000Y-116377872D01*
X95991000Y-116377872D01*
X96493000Y-116377872D01*
X96742000Y-116377872D01*
X97244000Y-116377872D01*
X97493000Y-116377872D01*
X97995000Y-116377872D01*
X98244000Y-116377872D01*
X98746000Y-116377872D01*
X98995000Y-116377872D01*
X99497000Y-116377872D01*
X99746000Y-116377872D01*
X100248000Y-116377872D01*
X100497000Y-116377872D01*
X100999000Y-116377872D01*
X101248000Y-116377872D01*
X101750000Y-116377872D01*
X101750000Y-116247328D01*
X101745343Y-116250017D01*
X101715436Y-116262405D01*
X101594628Y-116294775D01*
X101562535Y-116299000D01*
X101437465Y-116299000D01*
X101405372Y-116294775D01*
X101284564Y-116262405D01*
X101254657Y-116250017D01*
X101248000Y-116246173D01*
X101248000Y-116377872D01*
X100999000Y-116377872D01*
X100999000Y-116033707D01*
X101999000Y-116033707D01*
X101999000Y-116377872D01*
X102501000Y-116377872D01*
X102750000Y-116377872D01*
X103126500Y-116377872D01*
X103126500Y-115875872D01*
X102750000Y-115875872D01*
X102750000Y-116377872D01*
X102501000Y-116377872D01*
X102501000Y-115875872D01*
X102073006Y-115875872D01*
X102062405Y-115915436D01*
X102050017Y-115945343D01*
X101999000Y-116033707D01*
X100999000Y-116033707D01*
X100999000Y-116030243D01*
X100949983Y-115945343D01*
X100937595Y-115915436D01*
X100926994Y-115875872D01*
X100497000Y-115875872D01*
X100497000Y-116377872D01*
X100248000Y-116377872D01*
X100248000Y-115875872D01*
X99746000Y-115875872D01*
X99746000Y-116377872D01*
X99497000Y-116377872D01*
X99497000Y-115875872D01*
X98995000Y-115875872D01*
X98995000Y-116377872D01*
X98746000Y-116377872D01*
X98746000Y-115875872D01*
X98244000Y-115875872D01*
X98244000Y-116377872D01*
X97995000Y-116377872D01*
X97995000Y-115875872D01*
X97493000Y-115875872D01*
X97493000Y-116377872D01*
X97244000Y-116377872D01*
X97244000Y-115875872D01*
X96742000Y-115875872D01*
X96742000Y-116377872D01*
X96493000Y-116377872D01*
X96493000Y-115875872D01*
X95991000Y-115875872D01*
X95991000Y-116377872D01*
X95742000Y-116377872D01*
X95742000Y-115875872D01*
X95240000Y-115875872D01*
X95240000Y-116377872D01*
X94991000Y-116377872D01*
X94991000Y-115875872D01*
X94489000Y-115875872D01*
X94489000Y-116377872D01*
X94240000Y-116377872D01*
X94240000Y-115875872D01*
X93738000Y-115875872D01*
X93738000Y-116377872D01*
X93489000Y-116377872D01*
X93489000Y-115875872D01*
X92987000Y-115875872D01*
X92987000Y-116377872D01*
X92738000Y-116377872D01*
X92738000Y-115875872D01*
X92236000Y-115875872D01*
X92236000Y-116377872D01*
X91987000Y-116377872D01*
X91987000Y-115875872D01*
X91485000Y-115875872D01*
X91485000Y-116377872D01*
X91236000Y-116377872D01*
X91236000Y-115875872D01*
X90753500Y-115875872D01*
X90753500Y-116377872D01*
X90480500Y-116377872D01*
X90480500Y-115626872D01*
X90753500Y-115626872D01*
X91236000Y-115626872D01*
X91485000Y-115626872D01*
X91987000Y-115626872D01*
X92236000Y-115626872D01*
X92738000Y-115626872D01*
X92987000Y-115626872D01*
X93489000Y-115626872D01*
X93738000Y-115626872D01*
X94240000Y-115626872D01*
X94489000Y-115626872D01*
X94991000Y-115626872D01*
X95240000Y-115626872D01*
X95742000Y-115626872D01*
X95991000Y-115626872D01*
X96493000Y-115626872D01*
X96742000Y-115626872D01*
X97244000Y-115626872D01*
X97493000Y-115626872D01*
X97995000Y-115626872D01*
X98244000Y-115626872D01*
X98746000Y-115626872D01*
X98995000Y-115626872D01*
X99497000Y-115626872D01*
X99746000Y-115626872D01*
X100248000Y-115626872D01*
X100497000Y-115626872D01*
X100902395Y-115626872D01*
X100905225Y-115605372D01*
X100937595Y-115484564D01*
X100949983Y-115454657D01*
X100999000Y-115369756D01*
X100999000Y-115366292D01*
X101999000Y-115366292D01*
X102050017Y-115454657D01*
X102062405Y-115484564D01*
X102094775Y-115605372D01*
X102097605Y-115626872D01*
X102501000Y-115626872D01*
X102750000Y-115626872D01*
X103126500Y-115626872D01*
X103126500Y-115124872D01*
X102750000Y-115124872D01*
X102750000Y-115626872D01*
X102501000Y-115626872D01*
X102501000Y-115124872D01*
X101999000Y-115124872D01*
X101999000Y-115366292D01*
X100999000Y-115366292D01*
X100999000Y-115153826D01*
X101248000Y-115153826D01*
X101254657Y-115149983D01*
X101284564Y-115137595D01*
X101332047Y-115124872D01*
X101667953Y-115124872D01*
X101715436Y-115137595D01*
X101745343Y-115149983D01*
X101750000Y-115152671D01*
X101750000Y-115124872D01*
X101667953Y-115124872D01*
X101332047Y-115124872D01*
X101248000Y-115124872D01*
X101248000Y-115153826D01*
X100999000Y-115153826D01*
X100999000Y-115124872D01*
X100497000Y-115124872D01*
X100497000Y-115626872D01*
X100248000Y-115626872D01*
X100248000Y-115124872D01*
X99746000Y-115124872D01*
X99746000Y-115626872D01*
X99497000Y-115626872D01*
X99497000Y-115124872D01*
X98995000Y-115124872D01*
X98995000Y-115626872D01*
X98746000Y-115626872D01*
X98746000Y-115124872D01*
X98244000Y-115124872D01*
X98244000Y-115626872D01*
X97995000Y-115626872D01*
X97995000Y-115124872D01*
X97493000Y-115124872D01*
X97493000Y-115626872D01*
X97244000Y-115626872D01*
X97244000Y-115124872D01*
X96742000Y-115124872D01*
X96742000Y-115626872D01*
X96493000Y-115626872D01*
X96493000Y-115124872D01*
X95991000Y-115124872D01*
X95991000Y-115626872D01*
X95742000Y-115626872D01*
X95742000Y-115124872D01*
X95240000Y-115124872D01*
X95240000Y-115626872D01*
X94991000Y-115626872D01*
X94991000Y-115124872D01*
X94489000Y-115124872D01*
X94489000Y-115626872D01*
X94240000Y-115626872D01*
X94240000Y-115124872D01*
X93738000Y-115124872D01*
X93738000Y-115626872D01*
X93489000Y-115626872D01*
X93489000Y-115124872D01*
X92987000Y-115124872D01*
X92987000Y-115626872D01*
X92738000Y-115626872D01*
X92738000Y-115153058D01*
X92715436Y-115162405D01*
X92594628Y-115194775D01*
X92562535Y-115199000D01*
X92437465Y-115199000D01*
X92405372Y-115194775D01*
X92284564Y-115162405D01*
X92254657Y-115150017D01*
X92236000Y-115139245D01*
X92236000Y-115626872D01*
X91987000Y-115626872D01*
X91987000Y-115124872D01*
X91485000Y-115124872D01*
X91485000Y-115626872D01*
X91236000Y-115626872D01*
X91236000Y-115124872D01*
X90753500Y-115124872D01*
X90753500Y-115626872D01*
X90480500Y-115626872D01*
X90480500Y-114875872D01*
X90753500Y-114875872D01*
X91236000Y-114875872D01*
X91485000Y-114875872D01*
X91967609Y-114875872D01*
X93032391Y-114875872D01*
X93489000Y-114875872D01*
X93738000Y-114875872D01*
X94240000Y-114875872D01*
X94489000Y-114875872D01*
X94991000Y-114875872D01*
X95240000Y-114875872D01*
X95742000Y-114875872D01*
X95991000Y-114875872D01*
X96493000Y-114875872D01*
X96742000Y-114875872D01*
X97244000Y-114875872D01*
X97493000Y-114875872D01*
X97995000Y-114875872D01*
X98244000Y-114875872D01*
X98746000Y-114875872D01*
X98995000Y-114875872D01*
X99497000Y-114875872D01*
X99746000Y-114875872D01*
X100248000Y-114875872D01*
X100497000Y-114875872D01*
X100999000Y-114875872D01*
X101248000Y-114875872D01*
X101750000Y-114875872D01*
X101999000Y-114875872D01*
X102501000Y-114875872D01*
X102750000Y-114875872D01*
X103126500Y-114875872D01*
X103126500Y-114373872D01*
X102750000Y-114373872D01*
X102750000Y-114875872D01*
X102501000Y-114875872D01*
X102501000Y-114373872D01*
X101999000Y-114373872D01*
X101999000Y-114875872D01*
X101750000Y-114875872D01*
X101750000Y-114373872D01*
X101248000Y-114373872D01*
X101248000Y-114875872D01*
X100999000Y-114875872D01*
X100999000Y-114373872D01*
X100497000Y-114373872D01*
X100497000Y-114875872D01*
X100248000Y-114875872D01*
X100248000Y-114373872D01*
X99746000Y-114373872D01*
X99746000Y-114875872D01*
X99497000Y-114875872D01*
X99497000Y-114373872D01*
X98995000Y-114373872D01*
X98995000Y-114875872D01*
X98746000Y-114875872D01*
X98746000Y-114373872D01*
X98244000Y-114373872D01*
X98244000Y-114875872D01*
X97995000Y-114875872D01*
X97995000Y-114373872D01*
X97493000Y-114373872D01*
X97493000Y-114875872D01*
X97244000Y-114875872D01*
X97244000Y-114373872D01*
X96742000Y-114373872D01*
X96742000Y-114875872D01*
X96493000Y-114875872D01*
X96493000Y-114373872D01*
X95991000Y-114373872D01*
X95991000Y-114875872D01*
X95742000Y-114875872D01*
X95742000Y-114373872D01*
X95240000Y-114373872D01*
X95240000Y-114875872D01*
X94991000Y-114875872D01*
X94991000Y-114373872D01*
X94489000Y-114373872D01*
X94489000Y-114875872D01*
X94240000Y-114875872D01*
X94240000Y-114373872D01*
X93738000Y-114373872D01*
X93738000Y-114875872D01*
X93489000Y-114875872D01*
X93489000Y-114373872D01*
X93057976Y-114373872D01*
X93062405Y-114384564D01*
X93094775Y-114505372D01*
X93099000Y-114537465D01*
X93099000Y-114662535D01*
X93094775Y-114694628D01*
X93062405Y-114815436D01*
X93050017Y-114845343D01*
X93032391Y-114875872D01*
X91967609Y-114875872D01*
X91949983Y-114845343D01*
X91937595Y-114815436D01*
X91905225Y-114694628D01*
X91901000Y-114662535D01*
X91901000Y-114537465D01*
X91905225Y-114505372D01*
X91937595Y-114384564D01*
X91942024Y-114373872D01*
X91485000Y-114373872D01*
X91485000Y-114875872D01*
X91236000Y-114875872D01*
X91236000Y-114373872D01*
X90753500Y-114373872D01*
X90753500Y-114875872D01*
X90480500Y-114875872D01*
X90480500Y-114124872D01*
X90753500Y-114124872D01*
X91236000Y-114124872D01*
X91485000Y-114124872D01*
X91987000Y-114124872D01*
X92987000Y-114124872D01*
X93489000Y-114124872D01*
X93738000Y-114124872D01*
X94240000Y-114124872D01*
X94489000Y-114124872D01*
X94991000Y-114124872D01*
X95240000Y-114124872D01*
X95742000Y-114124872D01*
X95991000Y-114124872D01*
X96493000Y-114124872D01*
X96742000Y-114124872D01*
X97244000Y-114124872D01*
X97493000Y-114124872D01*
X97995000Y-114124872D01*
X98244000Y-114124872D01*
X98746000Y-114124872D01*
X98995000Y-114124872D01*
X99497000Y-114124872D01*
X99746000Y-114124872D01*
X100248000Y-114124872D01*
X100497000Y-114124872D01*
X100999000Y-114124872D01*
X101248000Y-114124872D01*
X101750000Y-114124872D01*
X101999000Y-114124872D01*
X102501000Y-114124872D01*
X102750000Y-114124872D01*
X103126500Y-114124872D01*
X103126500Y-113622872D01*
X102750000Y-113622872D01*
X102750000Y-114124872D01*
X102501000Y-114124872D01*
X102501000Y-113622872D01*
X101999000Y-113622872D01*
X101999000Y-114124872D01*
X101750000Y-114124872D01*
X101750000Y-113622872D01*
X101248000Y-113622872D01*
X101248000Y-114124872D01*
X100999000Y-114124872D01*
X100999000Y-113622872D01*
X100497000Y-113622872D01*
X100497000Y-114124872D01*
X100248000Y-114124872D01*
X100248000Y-113622872D01*
X99746000Y-113622872D01*
X99746000Y-114124872D01*
X99497000Y-114124872D01*
X99497000Y-113622872D01*
X98995000Y-113622872D01*
X98995000Y-114124872D01*
X98746000Y-114124872D01*
X98746000Y-113622872D01*
X98244000Y-113622872D01*
X98244000Y-114124872D01*
X97995000Y-114124872D01*
X97995000Y-113622872D01*
X97493000Y-113622872D01*
X97493000Y-114124872D01*
X97244000Y-114124872D01*
X97244000Y-113622872D01*
X96742000Y-113622872D01*
X96742000Y-114124872D01*
X96493000Y-114124872D01*
X96493000Y-113622872D01*
X95991000Y-113622872D01*
X95991000Y-114124872D01*
X95742000Y-114124872D01*
X95742000Y-113622872D01*
X95240000Y-113622872D01*
X95240000Y-114124872D01*
X94991000Y-114124872D01*
X94991000Y-113622872D01*
X94489000Y-113622872D01*
X94489000Y-114124872D01*
X94240000Y-114124872D01*
X94240000Y-113622872D01*
X93738000Y-113622872D01*
X93738000Y-114124872D01*
X93489000Y-114124872D01*
X93489000Y-113622872D01*
X92987000Y-113622872D01*
X92987000Y-114124872D01*
X91987000Y-114124872D01*
X91987000Y-114060754D01*
X92236000Y-114060754D01*
X92254657Y-114049983D01*
X92284564Y-114037595D01*
X92405372Y-114005225D01*
X92437465Y-114001000D01*
X92562535Y-114001000D01*
X92594628Y-114005225D01*
X92715436Y-114037595D01*
X92738000Y-114046941D01*
X92738000Y-113622872D01*
X92236000Y-113622872D01*
X92236000Y-114060754D01*
X91987000Y-114060754D01*
X91987000Y-113622872D01*
X91485000Y-113622872D01*
X91485000Y-114124872D01*
X91236000Y-114124872D01*
X91236000Y-113622872D01*
X90753500Y-113622872D01*
X90753500Y-114124872D01*
X90480500Y-114124872D01*
X90480500Y-113373872D01*
X90753500Y-113373872D01*
X91236000Y-113373872D01*
X91485000Y-113373872D01*
X91987000Y-113373872D01*
X92236000Y-113373872D01*
X92738000Y-113373872D01*
X92987000Y-113373872D01*
X93489000Y-113373872D01*
X93738000Y-113373872D01*
X94240000Y-113373872D01*
X94489000Y-113373872D01*
X94991000Y-113373872D01*
X95240000Y-113373872D01*
X95742000Y-113373872D01*
X95991000Y-113373872D01*
X96493000Y-113373872D01*
X96742000Y-113373872D01*
X97244000Y-113373872D01*
X97493000Y-113373872D01*
X97995000Y-113373872D01*
X98244000Y-113373872D01*
X98746000Y-113373872D01*
X98995000Y-113373872D01*
X99497000Y-113373872D01*
X99746000Y-113373872D01*
X100248000Y-113373872D01*
X100497000Y-113373872D01*
X100999000Y-113373872D01*
X101248000Y-113373872D01*
X101750000Y-113373872D01*
X101999000Y-113373872D01*
X102501000Y-113373872D01*
X102750000Y-113373872D01*
X103126500Y-113373872D01*
X103126500Y-112871872D01*
X102750000Y-112871872D01*
X102750000Y-113373872D01*
X102501000Y-113373872D01*
X102501000Y-112871872D01*
X101999000Y-112871872D01*
X101999000Y-113373872D01*
X101750000Y-113373872D01*
X101750000Y-112871872D01*
X101248000Y-112871872D01*
X101248000Y-113373872D01*
X100999000Y-113373872D01*
X100999000Y-112871872D01*
X100497000Y-112871872D01*
X100497000Y-113373872D01*
X100248000Y-113373872D01*
X100248000Y-112871872D01*
X99746000Y-112871872D01*
X99746000Y-113373872D01*
X99497000Y-113373872D01*
X99497000Y-112871872D01*
X98995000Y-112871872D01*
X98995000Y-113373872D01*
X98746000Y-113373872D01*
X98746000Y-112871872D01*
X98244000Y-112871872D01*
X98244000Y-113373872D01*
X97995000Y-113373872D01*
X97995000Y-112871872D01*
X97493000Y-112871872D01*
X97493000Y-113373872D01*
X97244000Y-113373872D01*
X97244000Y-112871872D01*
X96742000Y-112871872D01*
X96742000Y-113373872D01*
X96493000Y-113373872D01*
X96493000Y-112871872D01*
X95991000Y-112871872D01*
X95991000Y-113373872D01*
X95742000Y-113373872D01*
X95742000Y-112871872D01*
X95240000Y-112871872D01*
X95240000Y-113373872D01*
X94991000Y-113373872D01*
X94991000Y-112871872D01*
X94489000Y-112871872D01*
X94489000Y-113373872D01*
X94240000Y-113373872D01*
X94240000Y-112871872D01*
X93738000Y-112871872D01*
X93738000Y-113373872D01*
X93489000Y-113373872D01*
X93489000Y-112871872D01*
X92987000Y-112871872D01*
X92987000Y-113373872D01*
X92738000Y-113373872D01*
X92738000Y-112871872D01*
X92236000Y-112871872D01*
X92236000Y-113373872D01*
X91987000Y-113373872D01*
X91987000Y-112871872D01*
X91485000Y-112871872D01*
X91485000Y-113373872D01*
X91236000Y-113373872D01*
X91236000Y-112871872D01*
X90753500Y-112871872D01*
X90753500Y-113373872D01*
X90480500Y-113373872D01*
X90480500Y-112622872D01*
X90753500Y-112622872D01*
X91236000Y-112622872D01*
X91485000Y-112622872D01*
X91987000Y-112622872D01*
X92236000Y-112622872D01*
X92738000Y-112622872D01*
X92987000Y-112622872D01*
X93489000Y-112622872D01*
X93738000Y-112622872D01*
X94240000Y-112622872D01*
X94489000Y-112622872D01*
X94991000Y-112622872D01*
X95240000Y-112622872D01*
X95742000Y-112622872D01*
X95991000Y-112622872D01*
X96493000Y-112622872D01*
X96742000Y-112622872D01*
X97244000Y-112622872D01*
X97493000Y-112622872D01*
X97995000Y-112622872D01*
X98244000Y-112622872D01*
X98746000Y-112622872D01*
X98995000Y-112622872D01*
X99497000Y-112622872D01*
X99746000Y-112622872D01*
X100248000Y-112622872D01*
X100497000Y-112622872D01*
X100999000Y-112622872D01*
X101248000Y-112622872D01*
X101750000Y-112622872D01*
X101999000Y-112622872D01*
X102501000Y-112622872D01*
X102750000Y-112622872D01*
X103126500Y-112622872D01*
X103126500Y-112120872D01*
X102750000Y-112120872D01*
X102750000Y-112622872D01*
X102501000Y-112622872D01*
X102501000Y-112120872D01*
X101999000Y-112120872D01*
X101999000Y-112622872D01*
X101750000Y-112622872D01*
X101750000Y-112120872D01*
X101248000Y-112120872D01*
X101248000Y-112622872D01*
X100999000Y-112622872D01*
X100999000Y-112120872D01*
X100497000Y-112120872D01*
X100497000Y-112622872D01*
X100248000Y-112622872D01*
X100248000Y-112120872D01*
X99746000Y-112120872D01*
X99746000Y-112622872D01*
X99497000Y-112622872D01*
X99497000Y-112120872D01*
X98995000Y-112120872D01*
X98995000Y-112622872D01*
X98746000Y-112622872D01*
X98746000Y-112120872D01*
X98244000Y-112120872D01*
X98244000Y-112622872D01*
X97995000Y-112622872D01*
X97995000Y-112120872D01*
X97493000Y-112120872D01*
X97493000Y-112622872D01*
X97244000Y-112622872D01*
X97244000Y-112120872D01*
X96742000Y-112120872D01*
X96742000Y-112622872D01*
X96493000Y-112622872D01*
X96493000Y-112120872D01*
X95991000Y-112120872D01*
X95991000Y-112622872D01*
X95742000Y-112622872D01*
X95742000Y-112120872D01*
X95240000Y-112120872D01*
X95240000Y-112622872D01*
X94991000Y-112622872D01*
X94991000Y-112120872D01*
X94489000Y-112120872D01*
X94489000Y-112622872D01*
X94240000Y-112622872D01*
X94240000Y-112120872D01*
X93738000Y-112120872D01*
X93738000Y-112622872D01*
X93489000Y-112622872D01*
X93489000Y-112120872D01*
X92987000Y-112120872D01*
X92987000Y-112622872D01*
X92738000Y-112622872D01*
X92738000Y-112120872D01*
X92236000Y-112120872D01*
X92236000Y-112622872D01*
X91987000Y-112622872D01*
X91987000Y-112120872D01*
X91485000Y-112120872D01*
X91485000Y-112622872D01*
X91236000Y-112622872D01*
X91236000Y-112120872D01*
X90753500Y-112120872D01*
X90753500Y-112622872D01*
X90480500Y-112622872D01*
X90480500Y-111871872D01*
X90753500Y-111871872D01*
X91236000Y-111871872D01*
X91236000Y-111522759D01*
X91485000Y-111522759D01*
X91485000Y-111871872D01*
X91987000Y-111871872D01*
X92236000Y-111871872D01*
X92738000Y-111871872D01*
X92987000Y-111871872D01*
X93489000Y-111871872D01*
X93738000Y-111871872D01*
X94240000Y-111871872D01*
X94489000Y-111871872D01*
X94991000Y-111871872D01*
X95240000Y-111871872D01*
X95742000Y-111871872D01*
X95991000Y-111871872D01*
X96493000Y-111871872D01*
X96742000Y-111871872D01*
X97244000Y-111871872D01*
X97493000Y-111871872D01*
X97995000Y-111871872D01*
X98244000Y-111871872D01*
X98746000Y-111871872D01*
X98995000Y-111871872D01*
X99497000Y-111871872D01*
X99746000Y-111871872D01*
X100248000Y-111871872D01*
X100497000Y-111871872D01*
X100999000Y-111871872D01*
X101248000Y-111871872D01*
X101750000Y-111871872D01*
X101999000Y-111871872D01*
X102501000Y-111871872D01*
X102750000Y-111871872D01*
X103126500Y-111871872D01*
X103126500Y-111369872D01*
X102750000Y-111369872D01*
X102750000Y-111871872D01*
X102501000Y-111871872D01*
X102501000Y-111369872D01*
X101999000Y-111369872D01*
X101999000Y-111871872D01*
X101750000Y-111871872D01*
X101750000Y-111369872D01*
X101248000Y-111369872D01*
X101248000Y-111871872D01*
X100999000Y-111871872D01*
X100999000Y-111369872D01*
X100497000Y-111369872D01*
X100497000Y-111871872D01*
X100248000Y-111871872D01*
X100248000Y-111369872D01*
X99746000Y-111369872D01*
X99746000Y-111871872D01*
X99497000Y-111871872D01*
X99497000Y-111369872D01*
X98995000Y-111369872D01*
X98995000Y-111871872D01*
X98746000Y-111871872D01*
X98746000Y-111369872D01*
X98244000Y-111369872D01*
X98244000Y-111871872D01*
X97995000Y-111871872D01*
X97995000Y-111369872D01*
X97493000Y-111369872D01*
X97493000Y-111871872D01*
X97244000Y-111871872D01*
X97244000Y-111369872D01*
X96742000Y-111369872D01*
X96742000Y-111871872D01*
X96493000Y-111871872D01*
X96493000Y-111369872D01*
X95991000Y-111369872D01*
X95991000Y-111871872D01*
X95742000Y-111871872D01*
X95742000Y-111369872D01*
X95240000Y-111369872D01*
X95240000Y-111871872D01*
X94991000Y-111871872D01*
X94991000Y-111369872D01*
X94489000Y-111369872D01*
X94489000Y-111871872D01*
X94240000Y-111871872D01*
X94240000Y-111369872D01*
X93738000Y-111369872D01*
X93738000Y-111871872D01*
X93489000Y-111871872D01*
X93489000Y-111369872D01*
X92987000Y-111369872D01*
X92987000Y-111871872D01*
X92738000Y-111871872D01*
X92738000Y-111369872D01*
X92236000Y-111369872D01*
X92236000Y-111871872D01*
X91987000Y-111871872D01*
X91987000Y-111369872D01*
X91910061Y-111369872D01*
X91854223Y-111407182D01*
X91849070Y-111410445D01*
X91848017Y-111411076D01*
X91842731Y-111414070D01*
X91830903Y-111420392D01*
X91825425Y-111423148D01*
X91824316Y-111423672D01*
X91818795Y-111426118D01*
X91688022Y-111480286D01*
X91682320Y-111482485D01*
X91681165Y-111482898D01*
X91675416Y-111484796D01*
X91662582Y-111488690D01*
X91656678Y-111490324D01*
X91655487Y-111490622D01*
X91649581Y-111491947D01*
X91510753Y-111519562D01*
X91504847Y-111520589D01*
X91503633Y-111520770D01*
X91497496Y-111521529D01*
X91485000Y-111522759D01*
X91236000Y-111522759D01*
X91236000Y-111508970D01*
X91150419Y-111491947D01*
X91144513Y-111490622D01*
X91143322Y-111490324D01*
X91137418Y-111488690D01*
X91124584Y-111484796D01*
X91118835Y-111482898D01*
X91117680Y-111482485D01*
X91111978Y-111480286D01*
X90981205Y-111426118D01*
X90975684Y-111423672D01*
X90974575Y-111423148D01*
X90969097Y-111420392D01*
X90957269Y-111414070D01*
X90951983Y-111411076D01*
X90950930Y-111410445D01*
X90945777Y-111407182D01*
X90889939Y-111369872D01*
X90753500Y-111369872D01*
X90753500Y-111871872D01*
X90480500Y-111871872D01*
X90480500Y-109830119D01*
X90480499Y-109830116D01*
X90465956Y-109795007D01*
X90449976Y-109756426D01*
X90449975Y-109756425D01*
X90448080Y-109751849D01*
X90440611Y-109682379D01*
X90451155Y-109661314D01*
X90408811Y-109671054D01*
X90343061Y-109647417D01*
X90328505Y-109634955D01*
X89093574Y-108400024D01*
X89019883Y-108369500D01*
X89019882Y-108369500D01*
X87018836Y-108369500D01*
X87006481Y-108365872D01*
X89445501Y-108365872D01*
X89734000Y-108654371D01*
X89734000Y-108365872D01*
X89445501Y-108365872D01*
X87006481Y-108365872D01*
X86951797Y-108349815D01*
X86906042Y-108297011D01*
X86896098Y-108227853D01*
X86897219Y-108221309D01*
X86905499Y-108179678D01*
X86905500Y-108179676D01*
X86905500Y-108116872D01*
X89232000Y-108116872D01*
X89731664Y-108116872D01*
X89719714Y-108088022D01*
X89717515Y-108082320D01*
X89717102Y-108081165D01*
X89715204Y-108075416D01*
X89711310Y-108062582D01*
X89709676Y-108056678D01*
X89709378Y-108055487D01*
X89708053Y-108049581D01*
X89680438Y-107910753D01*
X89679411Y-107904847D01*
X89679230Y-107903633D01*
X89678471Y-107897496D01*
X89677157Y-107884149D01*
X89676708Y-107878066D01*
X89676648Y-107876841D01*
X89676500Y-107870775D01*
X89676500Y-107864071D01*
X89949499Y-107864071D01*
X89974497Y-107989738D01*
X89974499Y-107989744D01*
X90023533Y-108108124D01*
X90023538Y-108108133D01*
X90094722Y-108214667D01*
X90094723Y-108214668D01*
X90094724Y-108214669D01*
X90163182Y-108283127D01*
X90196666Y-108344448D01*
X90199500Y-108370807D01*
X90199500Y-108646254D01*
X90199509Y-108646397D01*
X90199509Y-108677576D01*
X90223467Y-108859585D01*
X90223468Y-108859588D01*
X90270980Y-109036916D01*
X90304098Y-109116872D01*
X90341236Y-109206535D01*
X90433028Y-109365527D01*
X90433030Y-109365530D01*
X90433031Y-109365531D01*
X90514563Y-109471789D01*
X90539756Y-109536959D01*
X90529790Y-109585544D01*
X90531975Y-109584248D01*
X90601800Y-109586742D01*
X90650322Y-109616715D01*
X90819596Y-109785989D01*
X90827770Y-109795007D01*
X90890714Y-109871707D01*
X90904218Y-109891918D01*
X90948102Y-109974021D01*
X90957404Y-109996480D01*
X90965195Y-110022165D01*
X90965818Y-110092032D01*
X90934215Y-110145839D01*
X90894726Y-110185327D01*
X90894723Y-110185331D01*
X90823538Y-110291866D01*
X90823533Y-110291875D01*
X90774499Y-110410255D01*
X90774497Y-110410261D01*
X90749500Y-110535928D01*
X90749500Y-110535931D01*
X90749500Y-110664069D01*
X90749500Y-110664071D01*
X90749499Y-110664071D01*
X90774497Y-110789738D01*
X90774499Y-110789744D01*
X90823533Y-110908124D01*
X90823538Y-110908133D01*
X90894723Y-111014668D01*
X90894726Y-111014672D01*
X90985327Y-111105273D01*
X90985331Y-111105276D01*
X91091866Y-111176461D01*
X91091872Y-111176464D01*
X91091873Y-111176465D01*
X91210256Y-111225501D01*
X91210260Y-111225501D01*
X91210261Y-111225502D01*
X91335928Y-111250500D01*
X91335931Y-111250500D01*
X91464071Y-111250500D01*
X91548615Y-111233682D01*
X91589744Y-111225501D01*
X91708127Y-111176465D01*
X91814669Y-111105276D01*
X91905276Y-111014669D01*
X91918460Y-110994937D01*
X92236000Y-110994937D01*
X92236000Y-111120872D01*
X92738000Y-111120872D01*
X92987000Y-111120872D01*
X93489000Y-111120872D01*
X93738000Y-111120872D01*
X94240000Y-111120872D01*
X94489000Y-111120872D01*
X94991000Y-111120872D01*
X95240000Y-111120872D01*
X95742000Y-111120872D01*
X95991000Y-111120872D01*
X96493000Y-111120872D01*
X96742000Y-111120872D01*
X97244000Y-111120872D01*
X97493000Y-111120872D01*
X97995000Y-111120872D01*
X98244000Y-111120872D01*
X98746000Y-111120872D01*
X98995000Y-111120872D01*
X99497000Y-111120872D01*
X99746000Y-111120872D01*
X100248000Y-111120872D01*
X100497000Y-111120872D01*
X100999000Y-111120872D01*
X101248000Y-111120872D01*
X101750000Y-111120872D01*
X101999000Y-111120872D01*
X102501000Y-111120872D01*
X102750000Y-111120872D01*
X103126500Y-111120872D01*
X103126500Y-110618872D01*
X102750000Y-110618872D01*
X102750000Y-111120872D01*
X102501000Y-111120872D01*
X102501000Y-110618872D01*
X101999000Y-110618872D01*
X101999000Y-111120872D01*
X101750000Y-111120872D01*
X101750000Y-110618872D01*
X101248000Y-110618872D01*
X101248000Y-111120872D01*
X100999000Y-111120872D01*
X100999000Y-110618872D01*
X100497000Y-110618872D01*
X100497000Y-111120872D01*
X100248000Y-111120872D01*
X100248000Y-110618872D01*
X99746000Y-110618872D01*
X99746000Y-111120872D01*
X99497000Y-111120872D01*
X99497000Y-110618872D01*
X98995000Y-110618872D01*
X98995000Y-111120872D01*
X98746000Y-111120872D01*
X98746000Y-110618872D01*
X98244000Y-110618872D01*
X98244000Y-111120872D01*
X97995000Y-111120872D01*
X97995000Y-110618872D01*
X97493000Y-110618872D01*
X97493000Y-111120872D01*
X97244000Y-111120872D01*
X97244000Y-110618872D01*
X96742000Y-110618872D01*
X96742000Y-111120872D01*
X96493000Y-111120872D01*
X96493000Y-110618872D01*
X95991000Y-110618872D01*
X95991000Y-111120872D01*
X95742000Y-111120872D01*
X95742000Y-110618872D01*
X95240000Y-110618872D01*
X95240000Y-111120872D01*
X94991000Y-111120872D01*
X94991000Y-110618872D01*
X94489000Y-110618872D01*
X94489000Y-111120872D01*
X94240000Y-111120872D01*
X94240000Y-110618872D01*
X93738000Y-110618872D01*
X93738000Y-111120872D01*
X93489000Y-111120872D01*
X93489000Y-110618872D01*
X92987000Y-110618872D01*
X92987000Y-111120872D01*
X92738000Y-111120872D01*
X92738000Y-110618872D01*
X92323500Y-110618872D01*
X92323500Y-110670775D01*
X92323352Y-110676841D01*
X92323292Y-110678066D01*
X92322843Y-110684149D01*
X92321529Y-110697496D01*
X92320770Y-110703633D01*
X92320589Y-110704847D01*
X92319562Y-110710753D01*
X92291947Y-110849581D01*
X92290622Y-110855487D01*
X92290324Y-110856678D01*
X92288690Y-110862582D01*
X92284796Y-110875416D01*
X92282898Y-110881165D01*
X92282485Y-110882320D01*
X92280286Y-110888022D01*
X92236000Y-110994937D01*
X91918460Y-110994937D01*
X91976465Y-110908127D01*
X92025501Y-110789744D01*
X92047716Y-110678066D01*
X92050500Y-110664071D01*
X92050500Y-110535928D01*
X92025502Y-110410261D01*
X92025501Y-110410260D01*
X92025501Y-110410256D01*
X91976465Y-110291873D01*
X91976464Y-110291872D01*
X91976461Y-110291866D01*
X91918459Y-110205061D01*
X92236000Y-110205061D01*
X92280286Y-110311978D01*
X92282485Y-110317680D01*
X92282898Y-110318835D01*
X92284796Y-110324584D01*
X92288690Y-110337418D01*
X92290324Y-110343322D01*
X92290622Y-110344513D01*
X92291947Y-110350419D01*
X92295817Y-110369872D01*
X92738000Y-110369872D01*
X92987000Y-110369872D01*
X93489000Y-110369872D01*
X93738000Y-110369872D01*
X94240000Y-110369872D01*
X94489000Y-110369872D01*
X94991000Y-110369872D01*
X95240000Y-110369872D01*
X95742000Y-110369872D01*
X95991000Y-110369872D01*
X96493000Y-110369872D01*
X96742000Y-110369872D01*
X97244000Y-110369872D01*
X97493000Y-110369872D01*
X97995000Y-110369872D01*
X98244000Y-110369872D01*
X98746000Y-110369872D01*
X98995000Y-110369872D01*
X99497000Y-110369872D01*
X99746000Y-110369872D01*
X100248000Y-110369872D01*
X100497000Y-110369872D01*
X100999000Y-110369872D01*
X101248000Y-110369872D01*
X101750000Y-110369872D01*
X101999000Y-110369872D01*
X102501000Y-110369872D01*
X102750000Y-110369872D01*
X103126500Y-110369872D01*
X103126500Y-109867872D01*
X102750000Y-109867872D01*
X102750000Y-110369872D01*
X102501000Y-110369872D01*
X102501000Y-109867872D01*
X101999000Y-109867872D01*
X101999000Y-110369872D01*
X101750000Y-110369872D01*
X101750000Y-109867872D01*
X101248000Y-109867872D01*
X101248000Y-110369872D01*
X100999000Y-110369872D01*
X100999000Y-109867872D01*
X100497000Y-109867872D01*
X100497000Y-110369872D01*
X100248000Y-110369872D01*
X100248000Y-109867872D01*
X99746000Y-109867872D01*
X99746000Y-110369872D01*
X99497000Y-110369872D01*
X99497000Y-109867872D01*
X98995000Y-109867872D01*
X98995000Y-110369872D01*
X98746000Y-110369872D01*
X98746000Y-109867872D01*
X98244000Y-109867872D01*
X98244000Y-110369872D01*
X97995000Y-110369872D01*
X97995000Y-109867872D01*
X97493000Y-109867872D01*
X97493000Y-110369872D01*
X97244000Y-110369872D01*
X97244000Y-109867872D01*
X96742000Y-109867872D01*
X96742000Y-110369872D01*
X96493000Y-110369872D01*
X96493000Y-109867872D01*
X95991000Y-109867872D01*
X95991000Y-110369872D01*
X95742000Y-110369872D01*
X95742000Y-109867872D01*
X95240000Y-109867872D01*
X95240000Y-110369872D01*
X94991000Y-110369872D01*
X94991000Y-109867872D01*
X94489000Y-109867872D01*
X94489000Y-110369872D01*
X94240000Y-110369872D01*
X94240000Y-109867872D01*
X93738000Y-109867872D01*
X93738000Y-110369872D01*
X93489000Y-110369872D01*
X93489000Y-109867872D01*
X92987000Y-109867872D01*
X92987000Y-110369872D01*
X92738000Y-110369872D01*
X92738000Y-109867872D01*
X92236000Y-109867872D01*
X92236000Y-110205061D01*
X91918459Y-110205061D01*
X91905276Y-110185331D01*
X91905273Y-110185327D01*
X91823906Y-110103960D01*
X91790421Y-110042637D01*
X91788651Y-110032485D01*
X91776531Y-109940410D01*
X91758123Y-109871707D01*
X91729019Y-109763083D01*
X91702900Y-109700024D01*
X91658764Y-109593465D01*
X91566972Y-109434473D01*
X91553201Y-109416526D01*
X91455218Y-109288827D01*
X91441503Y-109275112D01*
X91431916Y-109265524D01*
X91431904Y-109265510D01*
X91283265Y-109116872D01*
X91667322Y-109116872D01*
X91669081Y-109119087D01*
X91786280Y-109271829D01*
X91788714Y-109275112D01*
X91789191Y-109275778D01*
X91791484Y-109279092D01*
X91796449Y-109286523D01*
X91798684Y-109289992D01*
X91799115Y-109290686D01*
X91801164Y-109294106D01*
X91897424Y-109460837D01*
X91899355Y-109464310D01*
X91899741Y-109465031D01*
X91901637Y-109468719D01*
X91905589Y-109476734D01*
X91907322Y-109480397D01*
X91907660Y-109481143D01*
X91909274Y-109484866D01*
X91964779Y-109618872D01*
X91987000Y-109618872D01*
X92236000Y-109618872D01*
X92738000Y-109618872D01*
X92987000Y-109618872D01*
X93489000Y-109618872D01*
X93738000Y-109618872D01*
X94240000Y-109618872D01*
X94489000Y-109618872D01*
X94991000Y-109618872D01*
X95240000Y-109618872D01*
X95742000Y-109618872D01*
X95991000Y-109618872D01*
X96493000Y-109618872D01*
X96742000Y-109618872D01*
X97244000Y-109618872D01*
X97493000Y-109618872D01*
X97995000Y-109618872D01*
X98244000Y-109618872D01*
X98746000Y-109618872D01*
X98995000Y-109618872D01*
X99497000Y-109618872D01*
X99746000Y-109618872D01*
X100248000Y-109618872D01*
X100497000Y-109618872D01*
X100999000Y-109618872D01*
X101248000Y-109618872D01*
X101750000Y-109618872D01*
X101999000Y-109618872D01*
X102501000Y-109618872D01*
X102750000Y-109618872D01*
X103126500Y-109618872D01*
X103126500Y-109116872D01*
X102750000Y-109116872D01*
X102750000Y-109618872D01*
X102501000Y-109618872D01*
X102501000Y-109116872D01*
X101999000Y-109116872D01*
X101999000Y-109618872D01*
X101750000Y-109618872D01*
X101750000Y-109116872D01*
X101248000Y-109116872D01*
X101248000Y-109618872D01*
X100999000Y-109618872D01*
X100999000Y-109116872D01*
X100497000Y-109116872D01*
X100497000Y-109618872D01*
X100248000Y-109618872D01*
X100248000Y-109116872D01*
X99746000Y-109116872D01*
X99746000Y-109618872D01*
X99497000Y-109618872D01*
X99497000Y-109116872D01*
X98995000Y-109116872D01*
X98995000Y-109618872D01*
X98746000Y-109618872D01*
X98746000Y-109116872D01*
X98244000Y-109116872D01*
X98244000Y-109618872D01*
X97995000Y-109618872D01*
X97995000Y-109116872D01*
X97493000Y-109116872D01*
X97493000Y-109618872D01*
X97244000Y-109618872D01*
X97244000Y-109116872D01*
X96742000Y-109116872D01*
X96742000Y-109618872D01*
X96493000Y-109618872D01*
X96493000Y-109116872D01*
X95991000Y-109116872D01*
X95991000Y-109618872D01*
X95742000Y-109618872D01*
X95742000Y-109116872D01*
X95240000Y-109116872D01*
X95240000Y-109618872D01*
X94991000Y-109618872D01*
X94991000Y-109116872D01*
X94489000Y-109116872D01*
X94489000Y-109618872D01*
X94240000Y-109618872D01*
X94240000Y-109116872D01*
X93738000Y-109116872D01*
X93738000Y-109618872D01*
X93489000Y-109618872D01*
X93489000Y-109116872D01*
X92987000Y-109116872D01*
X92987000Y-109618872D01*
X92738000Y-109618872D01*
X92738000Y-109116872D01*
X92236000Y-109116872D01*
X92236000Y-109618872D01*
X91987000Y-109618872D01*
X91987000Y-109116872D01*
X91667322Y-109116872D01*
X91283265Y-109116872D01*
X91180403Y-109014010D01*
X91172229Y-109004992D01*
X91109285Y-108928292D01*
X91095781Y-108908081D01*
X91074290Y-108867872D01*
X91485000Y-108867872D01*
X91987000Y-108867872D01*
X92236000Y-108867872D01*
X92738000Y-108867872D01*
X92987000Y-108867872D01*
X93489000Y-108867872D01*
X93738000Y-108867872D01*
X94240000Y-108867872D01*
X94489000Y-108867872D01*
X94991000Y-108867872D01*
X95240000Y-108867872D01*
X95742000Y-108867872D01*
X95991000Y-108867872D01*
X96493000Y-108867872D01*
X96742000Y-108867872D01*
X97244000Y-108867872D01*
X97493000Y-108867872D01*
X97995000Y-108867872D01*
X98244000Y-108867872D01*
X98746000Y-108867872D01*
X98995000Y-108867872D01*
X99497000Y-108867872D01*
X99497000Y-108499000D01*
X99746000Y-108499000D01*
X99746000Y-108867872D01*
X100248000Y-108867872D01*
X100497000Y-108867872D01*
X100999000Y-108867872D01*
X101248000Y-108867872D01*
X101750000Y-108867872D01*
X101999000Y-108867872D01*
X102501000Y-108867872D01*
X102750000Y-108867872D01*
X103126500Y-108867872D01*
X103126500Y-108365872D01*
X102750000Y-108365872D01*
X102750000Y-108867872D01*
X102501000Y-108867872D01*
X102501000Y-108365872D01*
X101999000Y-108365872D01*
X101999000Y-108867872D01*
X101750000Y-108867872D01*
X101750000Y-108365872D01*
X101248000Y-108365872D01*
X101248000Y-108867872D01*
X100999000Y-108867872D01*
X100999000Y-108365872D01*
X100497000Y-108365872D01*
X100497000Y-108867872D01*
X100248000Y-108867872D01*
X100248000Y-108365872D01*
X100181242Y-108365872D01*
X100179338Y-108367776D01*
X100153657Y-108387482D01*
X100045343Y-108450017D01*
X100015436Y-108462405D01*
X99894628Y-108494775D01*
X99862535Y-108499000D01*
X99746000Y-108499000D01*
X99497000Y-108499000D01*
X99497000Y-108416728D01*
X99446343Y-108387482D01*
X99420662Y-108367776D01*
X99418758Y-108365872D01*
X98995000Y-108365872D01*
X98995000Y-108867872D01*
X98746000Y-108867872D01*
X98746000Y-108365872D01*
X98244000Y-108365872D01*
X98244000Y-108867872D01*
X97995000Y-108867872D01*
X97995000Y-108365872D01*
X97493000Y-108365872D01*
X97493000Y-108867872D01*
X97244000Y-108867872D01*
X97244000Y-108365872D01*
X96742000Y-108365872D01*
X96742000Y-108867872D01*
X96493000Y-108867872D01*
X96493000Y-108365872D01*
X95991000Y-108365872D01*
X95991000Y-108867872D01*
X95742000Y-108867872D01*
X95742000Y-108365872D01*
X95240000Y-108365872D01*
X95240000Y-108867872D01*
X94991000Y-108867872D01*
X94991000Y-108365872D01*
X94489000Y-108365872D01*
X94489000Y-108867872D01*
X94240000Y-108867872D01*
X94240000Y-108365872D01*
X93738000Y-108365872D01*
X93738000Y-108867872D01*
X93489000Y-108867872D01*
X93489000Y-108365872D01*
X92987000Y-108365872D01*
X92987000Y-108867872D01*
X92738000Y-108867872D01*
X92738000Y-108365872D01*
X92236000Y-108365872D01*
X92236000Y-108867872D01*
X91987000Y-108867872D01*
X91987000Y-108365872D01*
X91485000Y-108365872D01*
X91485000Y-108867872D01*
X91074290Y-108867872D01*
X91051895Y-108825973D01*
X91042595Y-108803519D01*
X91015573Y-108714433D01*
X91010831Y-108690593D01*
X91001097Y-108591752D01*
X91000500Y-108579599D01*
X91000500Y-108370807D01*
X91020185Y-108303768D01*
X91036814Y-108283130D01*
X91105276Y-108214669D01*
X91176465Y-108108127D01*
X91190293Y-108074743D01*
X91485000Y-108074743D01*
X91485000Y-108116872D01*
X91987000Y-108116872D01*
X92236000Y-108116872D01*
X92738000Y-108116872D01*
X92987000Y-108116872D01*
X93489000Y-108116872D01*
X93738000Y-108116872D01*
X94240000Y-108116872D01*
X94489000Y-108116872D01*
X94991000Y-108116872D01*
X95240000Y-108116872D01*
X95742000Y-108116872D01*
X95991000Y-108116872D01*
X96493000Y-108116872D01*
X96742000Y-108116872D01*
X97244000Y-108116872D01*
X97493000Y-108116872D01*
X97995000Y-108116872D01*
X98244000Y-108116872D01*
X98746000Y-108116872D01*
X98995000Y-108116872D01*
X99238190Y-108116872D01*
X100497000Y-108116872D01*
X100999000Y-108116872D01*
X101248000Y-108116872D01*
X101750000Y-108116872D01*
X101999000Y-108116872D01*
X102501000Y-108116872D01*
X102750000Y-108116872D01*
X103126500Y-108116872D01*
X103126500Y-107614872D01*
X102750000Y-107614872D01*
X102750000Y-108116872D01*
X102501000Y-108116872D01*
X102501000Y-107614872D01*
X101999000Y-107614872D01*
X101999000Y-108116872D01*
X101750000Y-108116872D01*
X101750000Y-107614872D01*
X101248000Y-107614872D01*
X101248000Y-108116872D01*
X100999000Y-108116872D01*
X100999000Y-107614872D01*
X100497000Y-107614872D01*
X100497000Y-108116872D01*
X99238190Y-108116872D01*
X99237595Y-108115436D01*
X99205225Y-107994628D01*
X99201000Y-107962535D01*
X99201000Y-107837465D01*
X99205225Y-107805372D01*
X99237595Y-107684564D01*
X99249983Y-107654657D01*
X99272953Y-107614872D01*
X98995000Y-107614872D01*
X98995000Y-108116872D01*
X98746000Y-108116872D01*
X98746000Y-107614872D01*
X98244000Y-107614872D01*
X98244000Y-108116872D01*
X97995000Y-108116872D01*
X97995000Y-107614872D01*
X97493000Y-107614872D01*
X97493000Y-108116872D01*
X97244000Y-108116872D01*
X97244000Y-107614872D01*
X96742000Y-107614872D01*
X96742000Y-108116872D01*
X96493000Y-108116872D01*
X96493000Y-107614872D01*
X95991000Y-107614872D01*
X95991000Y-108116872D01*
X95742000Y-108116872D01*
X95742000Y-107614872D01*
X95240000Y-107614872D01*
X95240000Y-108116872D01*
X94991000Y-108116872D01*
X94991000Y-107614872D01*
X94489000Y-107614872D01*
X94489000Y-108116872D01*
X94240000Y-108116872D01*
X94240000Y-107614872D01*
X93738000Y-107614872D01*
X93738000Y-108116872D01*
X93489000Y-108116872D01*
X93489000Y-107614872D01*
X92987000Y-107614872D01*
X92987000Y-108116872D01*
X92738000Y-108116872D01*
X92738000Y-107614872D01*
X92236000Y-107614872D01*
X92236000Y-108116872D01*
X91987000Y-108116872D01*
X91987000Y-107614872D01*
X91504768Y-107614872D01*
X91519562Y-107689247D01*
X91520589Y-107695153D01*
X91520770Y-107696367D01*
X91521529Y-107702504D01*
X91522843Y-107715851D01*
X91523292Y-107721934D01*
X91523352Y-107723159D01*
X91523500Y-107729225D01*
X91523500Y-107870775D01*
X91523352Y-107876841D01*
X91523292Y-107878066D01*
X91522843Y-107884149D01*
X91521529Y-107897496D01*
X91520770Y-107903633D01*
X91520589Y-107904847D01*
X91519562Y-107910753D01*
X91491947Y-108049581D01*
X91490622Y-108055487D01*
X91490324Y-108056678D01*
X91488690Y-108062582D01*
X91485000Y-108074743D01*
X91190293Y-108074743D01*
X91225501Y-107989744D01*
X91247716Y-107878066D01*
X91250500Y-107864071D01*
X91250500Y-107735928D01*
X91225502Y-107610261D01*
X91225501Y-107610260D01*
X91225501Y-107610256D01*
X91176465Y-107491873D01*
X91176464Y-107491872D01*
X91176461Y-107491866D01*
X91105276Y-107385331D01*
X91105273Y-107385327D01*
X91085818Y-107365872D01*
X91485000Y-107365872D01*
X91987000Y-107365872D01*
X92236000Y-107365872D01*
X92738000Y-107365872D01*
X92987000Y-107365872D01*
X93489000Y-107365872D01*
X93738000Y-107365872D01*
X94240000Y-107365872D01*
X94489000Y-107365872D01*
X94991000Y-107365872D01*
X95240000Y-107365872D01*
X95742000Y-107365872D01*
X95991000Y-107365872D01*
X96493000Y-107365872D01*
X96742000Y-107365872D01*
X97244000Y-107365872D01*
X97493000Y-107365872D01*
X97995000Y-107365872D01*
X98244000Y-107365872D01*
X98746000Y-107365872D01*
X98995000Y-107365872D01*
X99497000Y-107365872D01*
X99497000Y-107299000D01*
X99746000Y-107299000D01*
X99746000Y-107301000D01*
X99862535Y-107301000D01*
X99894628Y-107305225D01*
X100015436Y-107337595D01*
X100045343Y-107349983D01*
X100072863Y-107365872D01*
X100248000Y-107365872D01*
X100497000Y-107365872D01*
X100999000Y-107365872D01*
X101248000Y-107365872D01*
X101750000Y-107365872D01*
X101999000Y-107365872D01*
X102501000Y-107365872D01*
X102750000Y-107365872D01*
X103126500Y-107365872D01*
X103126500Y-106863872D01*
X102750000Y-106863872D01*
X102750000Y-107365872D01*
X102501000Y-107365872D01*
X102501000Y-106863872D01*
X101999000Y-106863872D01*
X101999000Y-107365872D01*
X101750000Y-107365872D01*
X101750000Y-106863872D01*
X101248000Y-106863872D01*
X101248000Y-107365872D01*
X100999000Y-107365872D01*
X100999000Y-106863872D01*
X100497000Y-106863872D01*
X100497000Y-107365872D01*
X100248000Y-107365872D01*
X100248000Y-107099114D01*
X100179338Y-107167776D01*
X100153657Y-107187482D01*
X100045343Y-107250017D01*
X100015436Y-107262405D01*
X99894628Y-107294775D01*
X99862535Y-107299000D01*
X99746000Y-107299000D01*
X99497000Y-107299000D01*
X99497000Y-107216728D01*
X99446343Y-107187482D01*
X99420662Y-107167776D01*
X99332224Y-107079338D01*
X99312518Y-107053657D01*
X99249983Y-106945343D01*
X99237595Y-106915436D01*
X99223779Y-106863872D01*
X98995000Y-106863872D01*
X98995000Y-107365872D01*
X98746000Y-107365872D01*
X98746000Y-106863872D01*
X98244000Y-106863872D01*
X98244000Y-107365872D01*
X97995000Y-107365872D01*
X97995000Y-106863872D01*
X97493000Y-106863872D01*
X97493000Y-107365872D01*
X97244000Y-107365872D01*
X97244000Y-106863872D01*
X96742000Y-106863872D01*
X96742000Y-107365872D01*
X96493000Y-107365872D01*
X96493000Y-106863872D01*
X95991000Y-106863872D01*
X95991000Y-107365872D01*
X95742000Y-107365872D01*
X95742000Y-106863872D01*
X95240000Y-106863872D01*
X95240000Y-107365872D01*
X94991000Y-107365872D01*
X94991000Y-106863872D01*
X94489000Y-106863872D01*
X94489000Y-107365872D01*
X94240000Y-107365872D01*
X94240000Y-106863872D01*
X93738000Y-106863872D01*
X93738000Y-107365872D01*
X93489000Y-107365872D01*
X93489000Y-106863872D01*
X92987000Y-106863872D01*
X92987000Y-107365872D01*
X92738000Y-107365872D01*
X92738000Y-106863872D01*
X92236000Y-106863872D01*
X92236000Y-107365872D01*
X91987000Y-107365872D01*
X91987000Y-106863872D01*
X91485000Y-106863872D01*
X91485000Y-107365872D01*
X91085818Y-107365872D01*
X91014672Y-107294726D01*
X91014668Y-107294723D01*
X90908133Y-107223538D01*
X90908124Y-107223533D01*
X90789744Y-107174499D01*
X90789738Y-107174497D01*
X90664071Y-107149500D01*
X90664069Y-107149500D01*
X90535931Y-107149500D01*
X90535929Y-107149500D01*
X90410261Y-107174497D01*
X90410255Y-107174499D01*
X90291875Y-107223533D01*
X90291866Y-107223538D01*
X90185331Y-107294723D01*
X90185327Y-107294726D01*
X90094726Y-107385327D01*
X90094723Y-107385331D01*
X90023538Y-107491866D01*
X90023533Y-107491875D01*
X89974499Y-107610255D01*
X89974497Y-107610261D01*
X89949500Y-107735928D01*
X89949500Y-107735931D01*
X89949500Y-107864069D01*
X89949500Y-107864071D01*
X89949499Y-107864071D01*
X89676500Y-107864071D01*
X89676500Y-107729225D01*
X89676648Y-107723159D01*
X89676708Y-107721934D01*
X89677157Y-107715851D01*
X89678471Y-107702504D01*
X89679230Y-107696367D01*
X89679411Y-107695153D01*
X89680438Y-107689247D01*
X89695232Y-107614872D01*
X89232000Y-107614872D01*
X89232000Y-108116872D01*
X86905500Y-108116872D01*
X86905500Y-107680326D01*
X86902959Y-107667554D01*
X86895328Y-107629188D01*
X86895328Y-107614872D01*
X87170829Y-107614872D01*
X87174562Y-107633640D01*
X87175606Y-107639661D01*
X87175786Y-107640876D01*
X87176528Y-107646890D01*
X87177843Y-107660237D01*
X87178292Y-107666329D01*
X87178352Y-107667554D01*
X87178500Y-107673620D01*
X87178500Y-108096500D01*
X87481000Y-108096500D01*
X87730000Y-108096500D01*
X88232000Y-108096500D01*
X88481000Y-108096500D01*
X88983000Y-108096500D01*
X88983000Y-107614872D01*
X88481000Y-107614872D01*
X88481000Y-108096500D01*
X88232000Y-108096500D01*
X88232000Y-107614872D01*
X87730000Y-107614872D01*
X87730000Y-108096500D01*
X87481000Y-108096500D01*
X87481000Y-107614872D01*
X87170829Y-107614872D01*
X86895328Y-107614872D01*
X86895328Y-107580811D01*
X86905500Y-107529674D01*
X86905500Y-107280779D01*
X87178500Y-107280779D01*
X87178500Y-107365872D01*
X87481000Y-107365872D01*
X87730000Y-107365872D01*
X88232000Y-107365872D01*
X88481000Y-107365872D01*
X88983000Y-107365872D01*
X88983000Y-107275115D01*
X89232000Y-107275115D01*
X89232000Y-107365872D01*
X89734000Y-107365872D01*
X89734000Y-107198830D01*
X89645343Y-107250017D01*
X89615436Y-107262405D01*
X89494628Y-107294775D01*
X89462535Y-107299000D01*
X89337465Y-107299000D01*
X89305372Y-107294775D01*
X89232000Y-107275115D01*
X88983000Y-107275115D01*
X88983000Y-107130114D01*
X88963860Y-107110974D01*
X89983000Y-107110974D01*
X89997032Y-107096942D01*
X90001483Y-107092706D01*
X90002393Y-107091882D01*
X90006958Y-107087946D01*
X90017325Y-107079438D01*
X90022092Y-107075716D01*
X90023077Y-107074985D01*
X90028084Y-107071458D01*
X90145777Y-106992818D01*
X90150930Y-106989555D01*
X90151983Y-106988924D01*
X90157269Y-106985930D01*
X90169097Y-106979608D01*
X90174575Y-106976852D01*
X90175684Y-106976328D01*
X90181205Y-106973882D01*
X90311978Y-106919714D01*
X90317680Y-106917515D01*
X90318835Y-106917102D01*
X90324584Y-106915204D01*
X90337418Y-106911310D01*
X90343322Y-106909676D01*
X90344513Y-106909378D01*
X90350419Y-106908053D01*
X90465997Y-106885062D01*
X90734000Y-106885062D01*
X90849581Y-106908053D01*
X90855487Y-106909378D01*
X90856678Y-106909676D01*
X90862582Y-106911310D01*
X90875416Y-106915204D01*
X90881165Y-106917102D01*
X90882320Y-106917515D01*
X90888022Y-106919714D01*
X91018795Y-106973882D01*
X91024316Y-106976328D01*
X91025425Y-106976852D01*
X91030903Y-106979608D01*
X91042731Y-106985930D01*
X91048017Y-106988924D01*
X91049070Y-106989555D01*
X91054223Y-106992818D01*
X91171916Y-107071458D01*
X91176923Y-107074985D01*
X91177908Y-107075716D01*
X91182675Y-107079438D01*
X91193042Y-107087946D01*
X91197607Y-107091882D01*
X91198517Y-107092706D01*
X91202968Y-107096942D01*
X91236000Y-107129974D01*
X91236000Y-106863872D01*
X90734000Y-106863872D01*
X90734000Y-106885062D01*
X90465997Y-106885062D01*
X90485000Y-106881282D01*
X90485000Y-106863872D01*
X89983000Y-106863872D01*
X89983000Y-107110974D01*
X88963860Y-107110974D01*
X88932224Y-107079338D01*
X88912518Y-107053657D01*
X88849983Y-106945343D01*
X88837595Y-106915436D01*
X88823779Y-106863872D01*
X88481000Y-106863872D01*
X88481000Y-107365872D01*
X88232000Y-107365872D01*
X88232000Y-106863872D01*
X87730000Y-106863872D01*
X87730000Y-107365872D01*
X87481000Y-107365872D01*
X87481000Y-106863872D01*
X87428000Y-106863872D01*
X87428000Y-106906483D01*
X87427955Y-106909818D01*
X87427937Y-106910487D01*
X87427805Y-106913784D01*
X87427414Y-106921084D01*
X87427203Y-106924260D01*
X87427150Y-106924928D01*
X87426827Y-106928377D01*
X87419120Y-107000050D01*
X87418061Y-107007667D01*
X87417798Y-107009207D01*
X87416243Y-107016854D01*
X87412315Y-107033474D01*
X87410312Y-107040912D01*
X87409859Y-107042407D01*
X87407368Y-107049784D01*
X87360011Y-107176746D01*
X87325030Y-107227125D01*
X87315385Y-107235482D01*
X87260542Y-107262933D01*
X87178500Y-107280779D01*
X86905500Y-107280779D01*
X86905500Y-107086664D01*
X86925185Y-107019625D01*
X86977989Y-106973870D01*
X87047147Y-106963926D01*
X87110703Y-106992951D01*
X87117181Y-106998983D01*
X87130117Y-107011919D01*
X87148598Y-106962373D01*
X87154999Y-106902844D01*
X87155000Y-106902827D01*
X87155000Y-106855000D01*
X86952678Y-106855000D01*
X86951054Y-106857015D01*
X86884759Y-106879078D01*
X86817060Y-106861797D01*
X86811447Y-106858260D01*
X86804468Y-106853597D01*
X86752740Y-106819034D01*
X86752738Y-106819033D01*
X86752735Y-106819032D01*
X86679677Y-106804500D01*
X86679674Y-106804500D01*
X86104000Y-106804500D01*
X86036961Y-106784815D01*
X85991206Y-106732011D01*
X85980000Y-106680500D01*
X85980000Y-106604738D01*
X86303000Y-106604738D01*
X86303000Y-106655262D01*
X86322335Y-106701940D01*
X86358060Y-106737665D01*
X86404738Y-106757000D01*
X86455262Y-106757000D01*
X86501940Y-106737665D01*
X86537665Y-106701940D01*
X86557000Y-106655262D01*
X86557000Y-106614872D01*
X87331207Y-106614872D01*
X87481000Y-106614872D01*
X87730000Y-106614872D01*
X88232000Y-106614872D01*
X88481000Y-106614872D01*
X88803974Y-106614872D01*
X88805225Y-106605372D01*
X88817000Y-106561426D01*
X89983000Y-106561426D01*
X89994775Y-106605372D01*
X89996026Y-106614872D01*
X90485000Y-106614872D01*
X90734000Y-106614872D01*
X91236000Y-106614872D01*
X91485000Y-106614872D01*
X91987000Y-106614872D01*
X92236000Y-106614872D01*
X92738000Y-106614872D01*
X92987000Y-106614872D01*
X93489000Y-106614872D01*
X93738000Y-106614872D01*
X94240000Y-106614872D01*
X94489000Y-106614872D01*
X94991000Y-106614872D01*
X95240000Y-106614872D01*
X95742000Y-106614872D01*
X95991000Y-106614872D01*
X96493000Y-106614872D01*
X96742000Y-106614872D01*
X97244000Y-106614872D01*
X97493000Y-106614872D01*
X97995000Y-106614872D01*
X98244000Y-106614872D01*
X98746000Y-106614872D01*
X98995000Y-106614872D01*
X99203974Y-106614872D01*
X100497000Y-106614872D01*
X100999000Y-106614872D01*
X101248000Y-106614872D01*
X101750000Y-106614872D01*
X101999000Y-106614872D01*
X102501000Y-106614872D01*
X102750000Y-106614872D01*
X103126500Y-106614872D01*
X103126500Y-106112872D01*
X102750000Y-106112872D01*
X102750000Y-106614872D01*
X102501000Y-106614872D01*
X102501000Y-106112872D01*
X101999000Y-106112872D01*
X101999000Y-106614872D01*
X101750000Y-106614872D01*
X101750000Y-106112872D01*
X101248000Y-106112872D01*
X101248000Y-106614872D01*
X100999000Y-106614872D01*
X100999000Y-106112872D01*
X100497000Y-106112872D01*
X100497000Y-106614872D01*
X99203974Y-106614872D01*
X99205225Y-106605372D01*
X99237595Y-106484564D01*
X99249983Y-106454657D01*
X99312518Y-106346343D01*
X99332224Y-106320662D01*
X99338084Y-106314802D01*
X99243722Y-106314802D01*
X99237656Y-106314654D01*
X99236431Y-106314594D01*
X99230348Y-106314145D01*
X99217001Y-106312831D01*
X99210864Y-106312072D01*
X99209650Y-106311891D01*
X99203744Y-106310864D01*
X99064916Y-106283249D01*
X99059010Y-106281924D01*
X99057819Y-106281626D01*
X99051915Y-106279992D01*
X99039081Y-106276098D01*
X99033332Y-106274200D01*
X99032177Y-106273787D01*
X99026475Y-106271588D01*
X98995000Y-106258550D01*
X98995000Y-106614872D01*
X98746000Y-106614872D01*
X98746000Y-106122128D01*
X98742581Y-106119844D01*
X98737574Y-106116317D01*
X98736589Y-106115586D01*
X98733113Y-106112872D01*
X99923167Y-106112872D01*
X100015436Y-106137595D01*
X100045343Y-106149983D01*
X100153657Y-106212518D01*
X100179338Y-106232224D01*
X100248000Y-106300886D01*
X100248000Y-106112872D01*
X99923167Y-106112872D01*
X98733113Y-106112872D01*
X98244000Y-106112872D01*
X98244000Y-106614872D01*
X97995000Y-106614872D01*
X97995000Y-106112872D01*
X97493000Y-106112872D01*
X97493000Y-106614872D01*
X97244000Y-106614872D01*
X97244000Y-106112872D01*
X96742000Y-106112872D01*
X96742000Y-106614872D01*
X96493000Y-106614872D01*
X96493000Y-106112872D01*
X95991000Y-106112872D01*
X95991000Y-106614872D01*
X95742000Y-106614872D01*
X95742000Y-106112872D01*
X95240000Y-106112872D01*
X95240000Y-106614872D01*
X94991000Y-106614872D01*
X94991000Y-106112872D01*
X94489000Y-106112872D01*
X94489000Y-106614872D01*
X94240000Y-106614872D01*
X94240000Y-106112872D01*
X93738000Y-106112872D01*
X93738000Y-106614872D01*
X93489000Y-106614872D01*
X93489000Y-106112872D01*
X92987000Y-106112872D01*
X92987000Y-106614872D01*
X92738000Y-106614872D01*
X92738000Y-106112872D01*
X92236000Y-106112872D01*
X92236000Y-106614872D01*
X91987000Y-106614872D01*
X91987000Y-106112872D01*
X91485000Y-106112872D01*
X91485000Y-106614872D01*
X91236000Y-106614872D01*
X91236000Y-106112872D01*
X90734000Y-106112872D01*
X90734000Y-106614872D01*
X90485000Y-106614872D01*
X90485000Y-106112872D01*
X89983000Y-106112872D01*
X89983000Y-106561426D01*
X88817000Y-106561426D01*
X88837595Y-106484564D01*
X88849983Y-106454657D01*
X88912518Y-106346343D01*
X88932224Y-106320662D01*
X88983000Y-106269886D01*
X88983000Y-106124884D01*
X89232000Y-106124884D01*
X89276833Y-106112872D01*
X89523167Y-106112872D01*
X89615436Y-106137595D01*
X89645343Y-106149983D01*
X89734000Y-106201169D01*
X89734000Y-106112872D01*
X89523167Y-106112872D01*
X89276833Y-106112872D01*
X89232000Y-106112872D01*
X89232000Y-106124884D01*
X88983000Y-106124884D01*
X88983000Y-106112872D01*
X88481000Y-106112872D01*
X88481000Y-106614872D01*
X88232000Y-106614872D01*
X88232000Y-106112872D01*
X87730000Y-106112872D01*
X87730000Y-106614872D01*
X87481000Y-106614872D01*
X87481000Y-106112872D01*
X87371059Y-106112872D01*
X87407368Y-106210217D01*
X87409859Y-106217593D01*
X87410312Y-106219088D01*
X87412315Y-106226526D01*
X87416243Y-106243146D01*
X87417798Y-106250793D01*
X87418061Y-106252333D01*
X87419120Y-106259950D01*
X87426827Y-106331623D01*
X87427150Y-106335072D01*
X87427203Y-106335740D01*
X87427414Y-106338916D01*
X87427805Y-106346216D01*
X87427937Y-106349513D01*
X87427955Y-106350182D01*
X87428000Y-106353517D01*
X87428000Y-106461335D01*
X87418560Y-106508790D01*
X87414754Y-106517978D01*
X87387875Y-106558204D01*
X87331207Y-106614872D01*
X86557000Y-106614872D01*
X86557000Y-106604738D01*
X86537665Y-106558060D01*
X86501940Y-106522335D01*
X86455262Y-106503000D01*
X86404738Y-106503000D01*
X86358060Y-106522335D01*
X86322335Y-106558060D01*
X86303000Y-106604738D01*
X85980000Y-106604738D01*
X85980000Y-106579500D01*
X85999685Y-106512461D01*
X86052489Y-106466706D01*
X86104000Y-106455500D01*
X86684676Y-106455500D01*
X86684677Y-106455499D01*
X86757740Y-106440966D01*
X86812533Y-106404355D01*
X86879207Y-106383478D01*
X86946587Y-106401962D01*
X86949316Y-106405000D01*
X87155000Y-106405000D01*
X87155000Y-106357172D01*
X87154999Y-106357155D01*
X87148598Y-106297624D01*
X87130118Y-106248078D01*
X87122181Y-106256016D01*
X87060858Y-106289501D01*
X86991166Y-106284517D01*
X86935233Y-106242645D01*
X86910816Y-106177181D01*
X86910500Y-106168335D01*
X86910500Y-105730324D01*
X86902408Y-105689647D01*
X86897828Y-105666620D01*
X86897828Y-105642431D01*
X87171364Y-105642431D01*
X87179562Y-105683641D01*
X87180604Y-105689647D01*
X87180784Y-105690861D01*
X87181528Y-105696890D01*
X87182843Y-105710237D01*
X87183292Y-105716329D01*
X87183352Y-105717554D01*
X87183500Y-105723620D01*
X87183500Y-105863872D01*
X87481000Y-105863872D01*
X87730000Y-105863872D01*
X88232000Y-105863872D01*
X88481000Y-105863872D01*
X88983000Y-105863872D01*
X89232000Y-105863872D01*
X89734000Y-105863872D01*
X89983000Y-105863872D01*
X90485000Y-105863872D01*
X90734000Y-105863872D01*
X91236000Y-105863872D01*
X91485000Y-105863872D01*
X91987000Y-105863872D01*
X92236000Y-105863872D01*
X92738000Y-105863872D01*
X92987000Y-105863872D01*
X93489000Y-105863872D01*
X93738000Y-105863872D01*
X94240000Y-105863872D01*
X94489000Y-105863872D01*
X94991000Y-105863872D01*
X95240000Y-105863872D01*
X95742000Y-105863872D01*
X95991000Y-105863872D01*
X96493000Y-105863872D01*
X96742000Y-105863872D01*
X97026458Y-105863872D01*
X96933733Y-105831427D01*
X96930469Y-105830233D01*
X96929814Y-105829983D01*
X96926584Y-105828698D01*
X96919507Y-105825767D01*
X96916216Y-105824348D01*
X96915576Y-105824061D01*
X96912514Y-105822638D01*
X96742000Y-105740525D01*
X96742000Y-105863872D01*
X96493000Y-105863872D01*
X96493000Y-105596491D01*
X96417625Y-105549132D01*
X96414649Y-105547202D01*
X96414066Y-105546812D01*
X96411251Y-105544873D01*
X96405004Y-105540440D01*
X96402139Y-105538344D01*
X96401579Y-105537922D01*
X96398893Y-105535840D01*
X96186497Y-105366464D01*
X96183871Y-105364310D01*
X96183335Y-105363858D01*
X96181047Y-105361872D01*
X95991000Y-105361872D01*
X95991000Y-105863872D01*
X95742000Y-105863872D01*
X95742000Y-105361872D01*
X95240000Y-105361872D01*
X95240000Y-105863872D01*
X94991000Y-105863872D01*
X94991000Y-105361872D01*
X94489000Y-105361872D01*
X94489000Y-105863872D01*
X94240000Y-105863872D01*
X94240000Y-105361872D01*
X93738000Y-105361872D01*
X93738000Y-105863872D01*
X93489000Y-105863872D01*
X93489000Y-105361872D01*
X92987000Y-105361872D01*
X92987000Y-105863872D01*
X92738000Y-105863872D01*
X92738000Y-105361872D01*
X92236000Y-105361872D01*
X92236000Y-105863872D01*
X91987000Y-105863872D01*
X91987000Y-105361872D01*
X91485000Y-105361872D01*
X91485000Y-105863872D01*
X91236000Y-105863872D01*
X91236000Y-105361872D01*
X90734000Y-105361872D01*
X90734000Y-105863872D01*
X90485000Y-105863872D01*
X90485000Y-105361872D01*
X89983000Y-105361872D01*
X89983000Y-105863872D01*
X89734000Y-105863872D01*
X89734000Y-105361872D01*
X89232000Y-105361872D01*
X89232000Y-105863872D01*
X88983000Y-105863872D01*
X88983000Y-105361872D01*
X88481000Y-105361872D01*
X88481000Y-105863872D01*
X88232000Y-105863872D01*
X88232000Y-105361872D01*
X87730000Y-105361872D01*
X87730000Y-105863872D01*
X87481000Y-105863872D01*
X87481000Y-105361872D01*
X87178500Y-105361872D01*
X87178500Y-105586380D01*
X87178352Y-105592446D01*
X87178292Y-105593671D01*
X87177843Y-105599763D01*
X87176528Y-105613110D01*
X87175786Y-105619124D01*
X87175606Y-105620339D01*
X87174561Y-105626366D01*
X87171364Y-105642431D01*
X86897828Y-105642431D01*
X86897828Y-105618242D01*
X86905500Y-105579674D01*
X86905500Y-105080326D01*
X86895328Y-105029188D01*
X86895328Y-105005000D01*
X87168864Y-105005000D01*
X87174562Y-105033640D01*
X87175606Y-105039661D01*
X87175786Y-105040876D01*
X87176528Y-105046890D01*
X87177843Y-105060237D01*
X87178292Y-105066329D01*
X87178352Y-105067554D01*
X87178500Y-105073620D01*
X87178500Y-105112872D01*
X87481000Y-105112872D01*
X87730000Y-105112872D01*
X88232000Y-105112872D01*
X88481000Y-105112872D01*
X88983000Y-105112872D01*
X89232000Y-105112872D01*
X89734000Y-105112872D01*
X89983000Y-105112872D01*
X90485000Y-105112872D01*
X90734000Y-105112872D01*
X91236000Y-105112872D01*
X91485000Y-105112872D01*
X91987000Y-105112872D01*
X92236000Y-105112872D01*
X92738000Y-105112872D01*
X92987000Y-105112872D01*
X93489000Y-105112872D01*
X93738000Y-105112872D01*
X94240000Y-105112872D01*
X94489000Y-105112872D01*
X94991000Y-105112872D01*
X95240000Y-105112872D01*
X95742000Y-105112872D01*
X95742000Y-104923761D01*
X95704479Y-104886240D01*
X95704466Y-104886226D01*
X95648858Y-104830619D01*
X95646418Y-104828109D01*
X95645936Y-104827599D01*
X95643592Y-104825049D01*
X95638488Y-104819337D01*
X95636158Y-104816653D01*
X95635706Y-104816117D01*
X95633552Y-104813491D01*
X95471973Y-104610872D01*
X95240000Y-104610872D01*
X95240000Y-105112872D01*
X94991000Y-105112872D01*
X94991000Y-104610872D01*
X94489000Y-104610872D01*
X94489000Y-105112872D01*
X94240000Y-105112872D01*
X94240000Y-104610872D01*
X93738000Y-104610872D01*
X93738000Y-105112872D01*
X93489000Y-105112872D01*
X93489000Y-104610872D01*
X92987000Y-104610872D01*
X92987000Y-105112872D01*
X92738000Y-105112872D01*
X92738000Y-104610872D01*
X92236000Y-104610872D01*
X92236000Y-105112872D01*
X91987000Y-105112872D01*
X91987000Y-104610872D01*
X91485000Y-104610872D01*
X91485000Y-105112872D01*
X91236000Y-105112872D01*
X91236000Y-104610872D01*
X90734000Y-104610872D01*
X90734000Y-105112872D01*
X90485000Y-105112872D01*
X90485000Y-104610872D01*
X89983000Y-104610872D01*
X89983000Y-105112872D01*
X89734000Y-105112872D01*
X89734000Y-104610872D01*
X89232000Y-104610872D01*
X89232000Y-105112872D01*
X88983000Y-105112872D01*
X88983000Y-104610872D01*
X88481000Y-104610872D01*
X88481000Y-105112872D01*
X88232000Y-105112872D01*
X88232000Y-104610872D01*
X87730000Y-104610872D01*
X87730000Y-105112872D01*
X87481000Y-105112872D01*
X87481000Y-104610872D01*
X87336315Y-104610872D01*
X87325030Y-104627125D01*
X87315385Y-104635482D01*
X87260542Y-104662933D01*
X87178500Y-104680779D01*
X87178500Y-104936380D01*
X87178352Y-104942446D01*
X87178292Y-104943671D01*
X87177843Y-104949763D01*
X87176528Y-104963110D01*
X87175786Y-104969124D01*
X87175606Y-104970339D01*
X87174562Y-104976360D01*
X87168864Y-105005000D01*
X86895328Y-105005000D01*
X86895328Y-104980811D01*
X86905500Y-104929674D01*
X86905500Y-104486664D01*
X86925185Y-104419625D01*
X86977989Y-104373870D01*
X87047147Y-104363926D01*
X87110703Y-104392951D01*
X87117181Y-104398983D01*
X87130117Y-104411919D01*
X87148598Y-104362373D01*
X87154999Y-104302844D01*
X87155000Y-104302827D01*
X87155000Y-104255000D01*
X86952678Y-104255000D01*
X86951054Y-104257015D01*
X86884759Y-104279078D01*
X86817060Y-104261797D01*
X86811447Y-104258260D01*
X86804468Y-104253597D01*
X86752740Y-104219034D01*
X86752738Y-104219033D01*
X86752735Y-104219032D01*
X86679677Y-104204500D01*
X86679674Y-104204500D01*
X86104000Y-104204500D01*
X86036961Y-104184815D01*
X85991206Y-104132011D01*
X85980000Y-104080500D01*
X85980000Y-104004738D01*
X86303000Y-104004738D01*
X86303000Y-104055262D01*
X86322335Y-104101940D01*
X86358060Y-104137665D01*
X86404738Y-104157000D01*
X86455262Y-104157000D01*
X86501940Y-104137665D01*
X86537665Y-104101940D01*
X86557000Y-104055262D01*
X86557000Y-104030000D01*
X87316079Y-104030000D01*
X87387875Y-104101796D01*
X87414754Y-104142022D01*
X87418560Y-104151210D01*
X87428000Y-104198665D01*
X87428000Y-104306483D01*
X87427955Y-104309818D01*
X87427937Y-104310487D01*
X87427805Y-104313784D01*
X87427414Y-104321084D01*
X87427203Y-104324260D01*
X87427150Y-104324928D01*
X87426827Y-104328377D01*
X87423225Y-104361872D01*
X87481000Y-104361872D01*
X87730000Y-104361872D01*
X88232000Y-104361872D01*
X88481000Y-104361872D01*
X88983000Y-104361872D01*
X89232000Y-104361872D01*
X89734000Y-104361872D01*
X89983000Y-104361872D01*
X90485000Y-104361872D01*
X90734000Y-104361872D01*
X91236000Y-104361872D01*
X91485000Y-104361872D01*
X91987000Y-104361872D01*
X92236000Y-104361872D01*
X92738000Y-104361872D01*
X92987000Y-104361872D01*
X93489000Y-104361872D01*
X93738000Y-104361872D01*
X94240000Y-104361872D01*
X94489000Y-104361872D01*
X94991000Y-104361872D01*
X94991000Y-103859872D01*
X94489000Y-103859872D01*
X94489000Y-104361872D01*
X94240000Y-104361872D01*
X94240000Y-103859872D01*
X93738000Y-103859872D01*
X93738000Y-104361872D01*
X93489000Y-104361872D01*
X93489000Y-103859872D01*
X92987000Y-103859872D01*
X92987000Y-104361872D01*
X92738000Y-104361872D01*
X92738000Y-103859872D01*
X92236000Y-103859872D01*
X92236000Y-104361872D01*
X91987000Y-104361872D01*
X91987000Y-103859872D01*
X91485000Y-103859872D01*
X91485000Y-104361872D01*
X91236000Y-104361872D01*
X91236000Y-103859872D01*
X90734000Y-103859872D01*
X90734000Y-104361872D01*
X90485000Y-104361872D01*
X90485000Y-103859872D01*
X89983000Y-103859872D01*
X89983000Y-104361872D01*
X89734000Y-104361872D01*
X89734000Y-103859872D01*
X89232000Y-103859872D01*
X89232000Y-104361872D01*
X88983000Y-104361872D01*
X88983000Y-103859872D01*
X88481000Y-103859872D01*
X88481000Y-104361872D01*
X88232000Y-104361872D01*
X88232000Y-103859872D01*
X87730000Y-103859872D01*
X87730000Y-104361872D01*
X87481000Y-104361872D01*
X87481000Y-103859872D01*
X87428000Y-103859872D01*
X87428000Y-103861335D01*
X87418560Y-103908790D01*
X87414754Y-103917978D01*
X87387875Y-103958204D01*
X87316079Y-104030000D01*
X86557000Y-104030000D01*
X86557000Y-104004738D01*
X86537665Y-103958060D01*
X86501940Y-103922335D01*
X86455262Y-103903000D01*
X86404738Y-103903000D01*
X86358060Y-103922335D01*
X86322335Y-103958060D01*
X86303000Y-104004738D01*
X85980000Y-104004738D01*
X85980000Y-103944500D01*
X85999685Y-103877461D01*
X86052489Y-103831706D01*
X86104000Y-103820500D01*
X86169880Y-103820500D01*
X86169882Y-103820500D01*
X86184516Y-103814438D01*
X86231967Y-103805000D01*
X86336802Y-103805000D01*
X86336802Y-103804999D01*
X86973197Y-103804999D01*
X86973198Y-103805000D01*
X87155000Y-103805000D01*
X87155000Y-103757172D01*
X87154999Y-103757155D01*
X87148598Y-103697624D01*
X87130118Y-103648078D01*
X86973197Y-103804999D01*
X86336802Y-103804999D01*
X86811920Y-103329881D01*
X86801339Y-103281242D01*
X86795400Y-103265318D01*
X87077259Y-103265318D01*
X87094430Y-103344248D01*
X87093640Y-103366359D01*
X87115750Y-103365570D01*
X87260543Y-103397067D01*
X87315386Y-103424518D01*
X87325031Y-103432875D01*
X87360012Y-103483255D01*
X87407368Y-103610217D01*
X87407589Y-103610872D01*
X87481000Y-103610872D01*
X87730000Y-103610872D01*
X88232000Y-103610872D01*
X88481000Y-103610872D01*
X88983000Y-103610872D01*
X89232000Y-103610872D01*
X89563758Y-103610872D01*
X90436242Y-103610872D01*
X90485000Y-103610872D01*
X90734000Y-103610872D01*
X91236000Y-103610872D01*
X91485000Y-103610872D01*
X91987000Y-103610872D01*
X92236000Y-103610872D01*
X92738000Y-103610872D01*
X92987000Y-103610872D01*
X93489000Y-103610872D01*
X93738000Y-103610872D01*
X93863758Y-103610872D01*
X94736242Y-103610872D01*
X94991000Y-103610872D01*
X94991000Y-103347451D01*
X94977805Y-103230326D01*
X94977465Y-103226873D01*
X94977406Y-103226174D01*
X94977162Y-103222691D01*
X94976733Y-103215044D01*
X94976589Y-103211639D01*
X94976569Y-103210939D01*
X94976518Y-103207398D01*
X94976518Y-103127082D01*
X94976500Y-103126498D01*
X94976500Y-103108872D01*
X94895236Y-103108872D01*
X94899000Y-103137465D01*
X94899000Y-103262535D01*
X94894775Y-103294628D01*
X94862405Y-103415436D01*
X94850017Y-103445343D01*
X94787482Y-103553657D01*
X94767776Y-103579338D01*
X94736242Y-103610872D01*
X93863758Y-103610872D01*
X93832224Y-103579338D01*
X93812518Y-103553657D01*
X93749983Y-103445343D01*
X93738000Y-103416413D01*
X93738000Y-103610872D01*
X93489000Y-103610872D01*
X93489000Y-103108872D01*
X92987000Y-103108872D01*
X92987000Y-103610872D01*
X92738000Y-103610872D01*
X92738000Y-103108872D01*
X92236000Y-103108872D01*
X92236000Y-103610872D01*
X91987000Y-103610872D01*
X91987000Y-103108872D01*
X91485000Y-103108872D01*
X91485000Y-103610872D01*
X91236000Y-103610872D01*
X91236000Y-103108872D01*
X90734000Y-103108872D01*
X90734000Y-103610872D01*
X90485000Y-103610872D01*
X90485000Y-103556891D01*
X90467776Y-103579338D01*
X90436242Y-103610872D01*
X89563758Y-103610872D01*
X89532224Y-103579338D01*
X89512518Y-103553657D01*
X89449983Y-103445343D01*
X89437595Y-103415436D01*
X89405225Y-103294628D01*
X89401000Y-103262535D01*
X89401000Y-103137465D01*
X89404764Y-103108872D01*
X89232000Y-103108872D01*
X89232000Y-103610872D01*
X88983000Y-103610872D01*
X88983000Y-103108872D01*
X88481000Y-103108872D01*
X88481000Y-103610872D01*
X88232000Y-103610872D01*
X88232000Y-103108872D01*
X87730000Y-103108872D01*
X87730000Y-103610872D01*
X87481000Y-103610872D01*
X87481000Y-103108872D01*
X87158149Y-103108872D01*
X87156098Y-103119183D01*
X87153144Y-103130980D01*
X87152431Y-103133331D01*
X87148328Y-103144797D01*
X87138041Y-103169631D01*
X87132834Y-103180640D01*
X87131676Y-103182806D01*
X87125425Y-103193234D01*
X87077259Y-103265318D01*
X86795400Y-103265318D01*
X86787184Y-103243287D01*
X86802036Y-103175014D01*
X86828646Y-103145918D01*
X86826965Y-103144237D01*
X86835598Y-103135603D01*
X86835597Y-103135603D01*
X86835601Y-103135601D01*
X86890966Y-103052740D01*
X86905500Y-102979674D01*
X86905500Y-102480326D01*
X86895328Y-102429188D01*
X86895328Y-102405000D01*
X87168864Y-102405000D01*
X87174562Y-102433640D01*
X87175606Y-102439661D01*
X87175786Y-102440876D01*
X87176528Y-102446890D01*
X87177843Y-102460237D01*
X87178292Y-102466329D01*
X87178352Y-102467554D01*
X87178500Y-102473620D01*
X87178500Y-102859872D01*
X87481000Y-102859872D01*
X87730000Y-102859872D01*
X88232000Y-102859872D01*
X88481000Y-102859872D01*
X88983000Y-102859872D01*
X89232000Y-102859872D01*
X89504707Y-102859872D01*
X90734000Y-102859872D01*
X91236000Y-102859872D01*
X91485000Y-102859872D01*
X91987000Y-102859872D01*
X92236000Y-102859872D01*
X92738000Y-102859872D01*
X92987000Y-102859872D01*
X93489000Y-102859872D01*
X93738000Y-102859872D01*
X93804707Y-102859872D01*
X93812518Y-102846343D01*
X93832224Y-102820662D01*
X93920662Y-102732224D01*
X93946343Y-102712518D01*
X94054657Y-102649983D01*
X94084564Y-102637595D01*
X94111002Y-102630511D01*
X94489000Y-102630511D01*
X94515437Y-102637595D01*
X94545343Y-102649983D01*
X94653657Y-102712518D01*
X94679338Y-102732224D01*
X94767776Y-102820662D01*
X94787482Y-102846343D01*
X94795293Y-102859872D01*
X94976500Y-102859872D01*
X94976500Y-102357872D01*
X94489000Y-102357872D01*
X94489000Y-102630511D01*
X94111002Y-102630511D01*
X94205372Y-102605225D01*
X94237465Y-102601000D01*
X94240000Y-102601000D01*
X94240000Y-102357872D01*
X93738000Y-102357872D01*
X93738000Y-102859872D01*
X93489000Y-102859872D01*
X93489000Y-102357872D01*
X92987000Y-102357872D01*
X92987000Y-102859872D01*
X92738000Y-102859872D01*
X92738000Y-102357872D01*
X92236000Y-102357872D01*
X92236000Y-102859872D01*
X91987000Y-102859872D01*
X91987000Y-102357872D01*
X91485000Y-102357872D01*
X91485000Y-102859872D01*
X91236000Y-102859872D01*
X91236000Y-102357872D01*
X90734000Y-102357872D01*
X90734000Y-102859872D01*
X89504707Y-102859872D01*
X89512518Y-102846343D01*
X89532224Y-102820662D01*
X89620662Y-102732224D01*
X89646343Y-102712518D01*
X89734000Y-102661909D01*
X89734000Y-102601000D01*
X89983000Y-102601000D01*
X90062535Y-102601000D01*
X90094628Y-102605225D01*
X90215436Y-102637595D01*
X90245343Y-102649983D01*
X90353657Y-102712518D01*
X90379338Y-102732224D01*
X90467776Y-102820662D01*
X90485000Y-102843108D01*
X90485000Y-102357872D01*
X89983000Y-102357872D01*
X89983000Y-102601000D01*
X89734000Y-102601000D01*
X89734000Y-102357872D01*
X89232000Y-102357872D01*
X89232000Y-102859872D01*
X88983000Y-102859872D01*
X88983000Y-102357872D01*
X88481000Y-102357872D01*
X88481000Y-102859872D01*
X88232000Y-102859872D01*
X88232000Y-102357872D01*
X87730000Y-102357872D01*
X87730000Y-102859872D01*
X87481000Y-102859872D01*
X87481000Y-102357872D01*
X87177044Y-102357872D01*
X87176528Y-102363110D01*
X87175786Y-102369124D01*
X87175606Y-102370339D01*
X87174562Y-102376360D01*
X87168864Y-102405000D01*
X86895328Y-102405000D01*
X86895328Y-102380811D01*
X86905500Y-102329674D01*
X86905500Y-102080779D01*
X87178500Y-102080779D01*
X87178500Y-102108872D01*
X87481000Y-102108872D01*
X87730000Y-102108872D01*
X88232000Y-102108872D01*
X88481000Y-102108872D01*
X88983000Y-102108872D01*
X89232000Y-102108872D01*
X89734000Y-102108872D01*
X89983000Y-102108872D01*
X90485000Y-102108872D01*
X90734000Y-102108872D01*
X91236000Y-102108872D01*
X91485000Y-102108872D01*
X91987000Y-102108872D01*
X92236000Y-102108872D01*
X92738000Y-102108872D01*
X92987000Y-102108872D01*
X93489000Y-102108872D01*
X93738000Y-102108872D01*
X94240000Y-102108872D01*
X94489000Y-102108872D01*
X94976500Y-102108872D01*
X94976500Y-101606872D01*
X94489000Y-101606872D01*
X94489000Y-102108872D01*
X94240000Y-102108872D01*
X94240000Y-101606872D01*
X93738000Y-101606872D01*
X93738000Y-102108872D01*
X93489000Y-102108872D01*
X93489000Y-101606872D01*
X92987000Y-101606872D01*
X92987000Y-102108872D01*
X92738000Y-102108872D01*
X92738000Y-101606872D01*
X92236000Y-101606872D01*
X92236000Y-102108872D01*
X91987000Y-102108872D01*
X91987000Y-101606872D01*
X91485000Y-101606872D01*
X91485000Y-102108872D01*
X91236000Y-102108872D01*
X91236000Y-101606872D01*
X90734000Y-101606872D01*
X90734000Y-102108872D01*
X90485000Y-102108872D01*
X90485000Y-101606872D01*
X89983000Y-101606872D01*
X89983000Y-102108872D01*
X89734000Y-102108872D01*
X89734000Y-101606872D01*
X89232000Y-101606872D01*
X89232000Y-102108872D01*
X88983000Y-102108872D01*
X88983000Y-101606872D01*
X88481000Y-101606872D01*
X88481000Y-102108872D01*
X88232000Y-102108872D01*
X88232000Y-101606872D01*
X87730000Y-101606872D01*
X87730000Y-102108872D01*
X87481000Y-102108872D01*
X87481000Y-101606872D01*
X87428000Y-101606872D01*
X87428000Y-101706483D01*
X87427955Y-101709818D01*
X87427937Y-101710487D01*
X87427805Y-101713784D01*
X87427414Y-101721084D01*
X87427203Y-101724260D01*
X87427150Y-101724928D01*
X87426827Y-101728377D01*
X87419120Y-101800050D01*
X87418061Y-101807667D01*
X87417798Y-101809207D01*
X87416243Y-101816854D01*
X87412315Y-101833474D01*
X87410312Y-101840912D01*
X87409859Y-101842407D01*
X87407368Y-101849784D01*
X87360011Y-101976746D01*
X87325030Y-102027125D01*
X87315385Y-102035482D01*
X87260542Y-102062933D01*
X87178500Y-102080779D01*
X86905500Y-102080779D01*
X86905500Y-101886664D01*
X86925185Y-101819625D01*
X86977989Y-101773870D01*
X87047147Y-101763926D01*
X87110703Y-101792951D01*
X87117181Y-101798983D01*
X87130117Y-101811919D01*
X87148598Y-101762373D01*
X87154999Y-101702844D01*
X87155000Y-101702827D01*
X87155000Y-101655000D01*
X86952678Y-101655000D01*
X86951054Y-101657015D01*
X86884759Y-101679078D01*
X86817060Y-101661797D01*
X86811447Y-101658260D01*
X86804468Y-101653597D01*
X86752740Y-101619034D01*
X86752738Y-101619033D01*
X86752735Y-101619032D01*
X86679677Y-101604500D01*
X86679674Y-101604500D01*
X86104000Y-101604500D01*
X86036961Y-101584815D01*
X85991206Y-101532011D01*
X85980000Y-101480500D01*
X85980000Y-101404738D01*
X86303000Y-101404738D01*
X86303000Y-101455262D01*
X86322335Y-101501940D01*
X86358060Y-101537665D01*
X86404738Y-101557000D01*
X86455262Y-101557000D01*
X86501940Y-101537665D01*
X86537665Y-101501940D01*
X86557000Y-101455262D01*
X86557000Y-101404738D01*
X86537665Y-101358060D01*
X86501940Y-101322335D01*
X86455262Y-101303000D01*
X86404738Y-101303000D01*
X86358060Y-101322335D01*
X86322335Y-101358060D01*
X86303000Y-101404738D01*
X85980000Y-101404738D01*
X85980000Y-101344500D01*
X85999685Y-101277461D01*
X86052489Y-101231706D01*
X86104000Y-101220500D01*
X86169880Y-101220500D01*
X86169882Y-101220500D01*
X86184516Y-101214438D01*
X86231967Y-101205000D01*
X86336802Y-101205000D01*
X86336802Y-101204999D01*
X86973197Y-101204999D01*
X86973198Y-101205000D01*
X87155000Y-101205000D01*
X87155000Y-101157172D01*
X87154999Y-101157155D01*
X87148598Y-101097624D01*
X87130118Y-101048078D01*
X86973197Y-101204999D01*
X86336802Y-101204999D01*
X86685929Y-100855872D01*
X87340999Y-100855872D01*
X87360012Y-100883255D01*
X87407368Y-101010217D01*
X87409859Y-101017593D01*
X87410312Y-101019088D01*
X87412315Y-101026526D01*
X87416243Y-101043146D01*
X87417798Y-101050793D01*
X87418061Y-101052333D01*
X87419120Y-101059950D01*
X87426827Y-101131623D01*
X87427150Y-101135072D01*
X87427203Y-101135740D01*
X87427414Y-101138916D01*
X87427805Y-101146216D01*
X87427937Y-101149513D01*
X87427955Y-101150182D01*
X87428000Y-101153517D01*
X87428000Y-101261335D01*
X87418560Y-101308790D01*
X87414754Y-101317978D01*
X87388097Y-101357872D01*
X87481000Y-101357872D01*
X87730000Y-101357872D01*
X88015752Y-101357872D01*
X89232000Y-101357872D01*
X89734000Y-101357872D01*
X89983000Y-101357872D01*
X90485000Y-101357872D01*
X90734000Y-101357872D01*
X91236000Y-101357872D01*
X91485000Y-101357872D01*
X91987000Y-101357872D01*
X92236000Y-101357872D01*
X92738000Y-101357872D01*
X92987000Y-101357872D01*
X93489000Y-101357872D01*
X93738000Y-101357872D01*
X94240000Y-101357872D01*
X94489000Y-101357872D01*
X94976500Y-101357872D01*
X94976500Y-100855872D01*
X94489000Y-100855872D01*
X94489000Y-101357872D01*
X94240000Y-101357872D01*
X94240000Y-100855872D01*
X93738000Y-100855872D01*
X93738000Y-101357872D01*
X93489000Y-101357872D01*
X93489000Y-100855872D01*
X92987000Y-100855872D01*
X92987000Y-101357872D01*
X92738000Y-101357872D01*
X92738000Y-100855872D01*
X92236000Y-100855872D01*
X92236000Y-101357872D01*
X91987000Y-101357872D01*
X91987000Y-100855872D01*
X91485000Y-100855872D01*
X91485000Y-101357872D01*
X91236000Y-101357872D01*
X91236000Y-100855872D01*
X90734000Y-100855872D01*
X90734000Y-101357872D01*
X90485000Y-101357872D01*
X90485000Y-100855872D01*
X89983000Y-100855872D01*
X89983000Y-101357872D01*
X89734000Y-101357872D01*
X89734000Y-100855872D01*
X89232000Y-100855872D01*
X89232000Y-101357872D01*
X88015752Y-101357872D01*
X88012518Y-101353657D01*
X87949983Y-101245343D01*
X87937595Y-101215436D01*
X87905225Y-101094628D01*
X87901000Y-101062535D01*
X87901000Y-100937465D01*
X87905225Y-100905372D01*
X87918488Y-100855872D01*
X87730000Y-100855872D01*
X87730000Y-101357872D01*
X87481000Y-101357872D01*
X87481000Y-100855872D01*
X87340999Y-100855872D01*
X86685929Y-100855872D01*
X86811920Y-100729881D01*
X86801339Y-100681242D01*
X86787184Y-100643287D01*
X86795106Y-100606872D01*
X87116312Y-100606872D01*
X87481000Y-100606872D01*
X87730000Y-100606872D01*
X88046014Y-100606872D01*
X88120662Y-100532224D01*
X88146343Y-100512518D01*
X88232000Y-100463064D01*
X88232000Y-100401000D01*
X88481000Y-100401000D01*
X88562535Y-100401000D01*
X88594628Y-100405225D01*
X88715436Y-100437595D01*
X88745343Y-100449983D01*
X88853657Y-100512518D01*
X88879338Y-100532224D01*
X88953986Y-100606872D01*
X88983000Y-100606872D01*
X89232000Y-100606872D01*
X89734000Y-100606872D01*
X89983000Y-100606872D01*
X90485000Y-100606872D01*
X90734000Y-100606872D01*
X91236000Y-100606872D01*
X91485000Y-100606872D01*
X91987000Y-100606872D01*
X92236000Y-100606872D01*
X92738000Y-100606872D01*
X92987000Y-100606872D01*
X93489000Y-100606872D01*
X93738000Y-100606872D01*
X94240000Y-100606872D01*
X94489000Y-100606872D01*
X94976500Y-100606872D01*
X94976500Y-100104872D01*
X94489000Y-100104872D01*
X94489000Y-100606872D01*
X94240000Y-100606872D01*
X94240000Y-100104872D01*
X93738000Y-100104872D01*
X93738000Y-100606872D01*
X93489000Y-100606872D01*
X93489000Y-100104872D01*
X92987000Y-100104872D01*
X92987000Y-100606872D01*
X92738000Y-100606872D01*
X92738000Y-100104872D01*
X92236000Y-100104872D01*
X92236000Y-100606872D01*
X91987000Y-100606872D01*
X91987000Y-100104872D01*
X91485000Y-100104872D01*
X91485000Y-100606872D01*
X91236000Y-100606872D01*
X91236000Y-100104872D01*
X90734000Y-100104872D01*
X90734000Y-100606872D01*
X90485000Y-100606872D01*
X90485000Y-100104872D01*
X89983000Y-100104872D01*
X89983000Y-100606872D01*
X89734000Y-100606872D01*
X89734000Y-100104872D01*
X89232000Y-100104872D01*
X89232000Y-100606872D01*
X88983000Y-100606872D01*
X88983000Y-100104872D01*
X88481000Y-100104872D01*
X88481000Y-100401000D01*
X88232000Y-100401000D01*
X88232000Y-100104872D01*
X87730000Y-100104872D01*
X87730000Y-100606872D01*
X87481000Y-100606872D01*
X87481000Y-100104872D01*
X87178500Y-100104872D01*
X87178500Y-100386380D01*
X87178352Y-100392446D01*
X87178292Y-100393671D01*
X87177843Y-100399754D01*
X87176529Y-100413101D01*
X87175770Y-100419238D01*
X87175589Y-100420452D01*
X87174562Y-100426357D01*
X87156098Y-100519183D01*
X87153144Y-100530980D01*
X87152431Y-100533331D01*
X87148328Y-100544797D01*
X87138041Y-100569631D01*
X87132834Y-100580640D01*
X87131676Y-100582806D01*
X87125425Y-100593234D01*
X87116312Y-100606872D01*
X86795106Y-100606872D01*
X86802036Y-100575014D01*
X86828646Y-100545918D01*
X86826965Y-100544237D01*
X86835598Y-100535603D01*
X86835597Y-100535603D01*
X86835601Y-100535601D01*
X86890966Y-100452740D01*
X86905500Y-100379674D01*
X86905500Y-99880326D01*
X86895328Y-99829188D01*
X86895328Y-99805000D01*
X87168864Y-99805000D01*
X87174562Y-99833640D01*
X87175606Y-99839661D01*
X87175786Y-99840876D01*
X87176528Y-99846890D01*
X87177413Y-99855872D01*
X87481000Y-99855872D01*
X87730000Y-99855872D01*
X88232000Y-99855872D01*
X88481000Y-99855872D01*
X88983000Y-99855872D01*
X89232000Y-99855872D01*
X89734000Y-99855872D01*
X89983000Y-99855872D01*
X90485000Y-99855872D01*
X90734000Y-99855872D01*
X91236000Y-99855872D01*
X91485000Y-99855872D01*
X91987000Y-99855872D01*
X92236000Y-99855872D01*
X92738000Y-99855872D01*
X92987000Y-99855872D01*
X93489000Y-99855872D01*
X93738000Y-99855872D01*
X94240000Y-99855872D01*
X94489000Y-99855872D01*
X94976500Y-99855872D01*
X94976500Y-99353872D01*
X94489000Y-99353872D01*
X94489000Y-99855872D01*
X94240000Y-99855872D01*
X94240000Y-99353872D01*
X93738000Y-99353872D01*
X93738000Y-99855872D01*
X93489000Y-99855872D01*
X93489000Y-99353872D01*
X92987000Y-99353872D01*
X92987000Y-99855872D01*
X92738000Y-99855872D01*
X92738000Y-99353872D01*
X92236000Y-99353872D01*
X92236000Y-99855872D01*
X91987000Y-99855872D01*
X91987000Y-99353872D01*
X91485000Y-99353872D01*
X91485000Y-99855872D01*
X91236000Y-99855872D01*
X91236000Y-99353872D01*
X90734000Y-99353872D01*
X90734000Y-99855872D01*
X90485000Y-99855872D01*
X90485000Y-99353872D01*
X89983000Y-99353872D01*
X89983000Y-99855872D01*
X89734000Y-99855872D01*
X89734000Y-99353872D01*
X89232000Y-99353872D01*
X89232000Y-99855872D01*
X88983000Y-99855872D01*
X88983000Y-99353872D01*
X88481000Y-99353872D01*
X88481000Y-99855872D01*
X88232000Y-99855872D01*
X88232000Y-99353872D01*
X87730000Y-99353872D01*
X87730000Y-99855872D01*
X87481000Y-99855872D01*
X87481000Y-99353872D01*
X87178500Y-99353872D01*
X87178500Y-99736380D01*
X87178352Y-99742446D01*
X87178292Y-99743671D01*
X87177843Y-99749763D01*
X87176528Y-99763110D01*
X87175786Y-99769124D01*
X87175606Y-99770339D01*
X87174562Y-99776360D01*
X87168864Y-99805000D01*
X86895328Y-99805000D01*
X86895328Y-99780811D01*
X86905500Y-99729674D01*
X86905500Y-99230326D01*
X86895328Y-99179188D01*
X86895328Y-99130811D01*
X86900488Y-99104872D01*
X87177340Y-99104872D01*
X87481000Y-99104872D01*
X87730000Y-99104872D01*
X88232000Y-99104872D01*
X88481000Y-99104872D01*
X88983000Y-99104872D01*
X89232000Y-99104872D01*
X89734000Y-99104872D01*
X89983000Y-99104872D01*
X90485000Y-99104872D01*
X90734000Y-99104872D01*
X91236000Y-99104872D01*
X91485000Y-99104872D01*
X91987000Y-99104872D01*
X92236000Y-99104872D01*
X92738000Y-99104872D01*
X92987000Y-99104872D01*
X93489000Y-99104872D01*
X93738000Y-99104872D01*
X94240000Y-99104872D01*
X94489000Y-99104872D01*
X94976500Y-99104872D01*
X94976500Y-98602872D01*
X94489000Y-98602872D01*
X94489000Y-99104872D01*
X94240000Y-99104872D01*
X94240000Y-98602872D01*
X93738000Y-98602872D01*
X93738000Y-99104872D01*
X93489000Y-99104872D01*
X93489000Y-98602872D01*
X92987000Y-98602872D01*
X92987000Y-99104872D01*
X92738000Y-99104872D01*
X92738000Y-98602872D01*
X92236000Y-98602872D01*
X92236000Y-99104872D01*
X91987000Y-99104872D01*
X91987000Y-98602872D01*
X91485000Y-98602872D01*
X91485000Y-99104872D01*
X91236000Y-99104872D01*
X91236000Y-98602872D01*
X90734000Y-98602872D01*
X90734000Y-99104872D01*
X90485000Y-99104872D01*
X90485000Y-98602872D01*
X89983000Y-98602872D01*
X89983000Y-99104872D01*
X89734000Y-99104872D01*
X89734000Y-98602872D01*
X89232000Y-98602872D01*
X89232000Y-99104872D01*
X88983000Y-99104872D01*
X88983000Y-98602872D01*
X88481000Y-98602872D01*
X88481000Y-99104872D01*
X88232000Y-99104872D01*
X88232000Y-98602872D01*
X87730000Y-98602872D01*
X87730000Y-99104872D01*
X87481000Y-99104872D01*
X87481000Y-98602872D01*
X87406216Y-98602872D01*
X87360011Y-98726746D01*
X87325030Y-98777125D01*
X87315385Y-98785482D01*
X87260542Y-98812933D01*
X87178500Y-98830779D01*
X87178500Y-99086380D01*
X87178352Y-99092446D01*
X87178292Y-99093671D01*
X87177843Y-99099763D01*
X87177340Y-99104872D01*
X86900488Y-99104872D01*
X86905500Y-99079674D01*
X86905500Y-98636664D01*
X86925185Y-98569625D01*
X86977989Y-98523870D01*
X87047147Y-98513926D01*
X87110703Y-98542951D01*
X87117181Y-98548983D01*
X87130117Y-98561919D01*
X87148598Y-98512373D01*
X87154999Y-98452844D01*
X87155000Y-98452827D01*
X87155000Y-98405000D01*
X86952678Y-98405000D01*
X86951054Y-98407015D01*
X86884759Y-98429078D01*
X86817060Y-98411797D01*
X86811447Y-98408260D01*
X86804468Y-98403597D01*
X86752740Y-98369034D01*
X86752738Y-98369033D01*
X86752735Y-98369032D01*
X86679677Y-98354500D01*
X86679674Y-98354500D01*
X86104000Y-98354500D01*
X86036961Y-98334815D01*
X85991206Y-98282011D01*
X85980000Y-98230500D01*
X85980000Y-98154738D01*
X86303000Y-98154738D01*
X86303000Y-98205262D01*
X86322335Y-98251940D01*
X86358060Y-98287665D01*
X86404738Y-98307000D01*
X86455262Y-98307000D01*
X86501940Y-98287665D01*
X86537665Y-98251940D01*
X86557000Y-98205262D01*
X86557000Y-98180000D01*
X87316079Y-98180000D01*
X87387875Y-98251796D01*
X87414754Y-98292022D01*
X87418560Y-98301210D01*
X87428000Y-98348665D01*
X87428000Y-98353872D01*
X87481000Y-98353872D01*
X87730000Y-98353872D01*
X88232000Y-98353872D01*
X88836036Y-98353872D01*
X88983000Y-98353872D01*
X89232000Y-98353872D01*
X89734000Y-98353872D01*
X89983000Y-98353872D01*
X90485000Y-98353872D01*
X90734000Y-98353872D01*
X91236000Y-98353872D01*
X91485000Y-98353872D01*
X91987000Y-98353872D01*
X92236000Y-98353872D01*
X92738000Y-98353872D01*
X92987000Y-98353872D01*
X93489000Y-98353872D01*
X93738000Y-98353872D01*
X94240000Y-98353872D01*
X94489000Y-98353872D01*
X94976500Y-98353872D01*
X94976500Y-97851872D01*
X94489000Y-97851872D01*
X94489000Y-98353872D01*
X94240000Y-98353872D01*
X94240000Y-97851872D01*
X93738000Y-97851872D01*
X93738000Y-98353872D01*
X93489000Y-98353872D01*
X93489000Y-97851872D01*
X92987000Y-97851872D01*
X92987000Y-98353872D01*
X92738000Y-98353872D01*
X92738000Y-97851872D01*
X92236000Y-97851872D01*
X92236000Y-98353872D01*
X91987000Y-98353872D01*
X91987000Y-97851872D01*
X91485000Y-97851872D01*
X91485000Y-98353872D01*
X91236000Y-98353872D01*
X91236000Y-97851872D01*
X90734000Y-97851872D01*
X90734000Y-98353872D01*
X90485000Y-98353872D01*
X90485000Y-97851872D01*
X89983000Y-97851872D01*
X89983000Y-98353872D01*
X89734000Y-98353872D01*
X89734000Y-97851872D01*
X89232000Y-97851872D01*
X89232000Y-98353872D01*
X88983000Y-98353872D01*
X88983000Y-98264114D01*
X88979338Y-98267776D01*
X88953657Y-98287482D01*
X88845343Y-98350017D01*
X88836036Y-98353872D01*
X88232000Y-98353872D01*
X88232000Y-98276476D01*
X88220662Y-98267776D01*
X88132224Y-98179338D01*
X88112518Y-98153657D01*
X88049983Y-98045343D01*
X88037595Y-98015436D01*
X88005225Y-97894628D01*
X88001000Y-97862535D01*
X88001000Y-97851872D01*
X87730000Y-97851872D01*
X87730000Y-98353872D01*
X87481000Y-98353872D01*
X87481000Y-97851872D01*
X87423628Y-97851872D01*
X87426827Y-97881623D01*
X87427150Y-97885072D01*
X87427203Y-97885740D01*
X87427414Y-97888916D01*
X87427805Y-97896216D01*
X87427937Y-97899513D01*
X87427955Y-97900182D01*
X87428000Y-97903517D01*
X87428000Y-98011335D01*
X87418560Y-98058790D01*
X87414754Y-98067978D01*
X87387875Y-98108204D01*
X87316079Y-98180000D01*
X86557000Y-98180000D01*
X86557000Y-98154738D01*
X86537665Y-98108060D01*
X86501940Y-98072335D01*
X86455262Y-98053000D01*
X86404738Y-98053000D01*
X86358060Y-98072335D01*
X86322335Y-98108060D01*
X86303000Y-98154738D01*
X85980000Y-98154738D01*
X85980000Y-98094500D01*
X85999685Y-98027461D01*
X86052489Y-97981706D01*
X86104000Y-97970500D01*
X86169880Y-97970500D01*
X86169882Y-97970500D01*
X86184516Y-97964438D01*
X86231967Y-97955000D01*
X86336802Y-97955000D01*
X86336802Y-97954999D01*
X86973197Y-97954999D01*
X86973198Y-97955000D01*
X87155000Y-97955000D01*
X87155000Y-97907172D01*
X87154999Y-97907155D01*
X87148598Y-97847624D01*
X87130118Y-97798078D01*
X86973197Y-97954999D01*
X86336802Y-97954999D01*
X86811920Y-97479881D01*
X86801339Y-97431242D01*
X86795400Y-97415318D01*
X87077259Y-97415318D01*
X87094430Y-97494248D01*
X87093640Y-97516359D01*
X87115750Y-97515570D01*
X87260543Y-97547067D01*
X87315386Y-97574518D01*
X87325031Y-97582875D01*
X87338916Y-97602872D01*
X87481000Y-97602872D01*
X87730000Y-97602872D01*
X88032689Y-97602872D01*
X89232000Y-97602872D01*
X89734000Y-97602872D01*
X89983000Y-97602872D01*
X90485000Y-97602872D01*
X90734000Y-97602872D01*
X91236000Y-97602872D01*
X91485000Y-97602872D01*
X91987000Y-97602872D01*
X92236000Y-97602872D01*
X92738000Y-97602872D01*
X92987000Y-97602872D01*
X93489000Y-97602872D01*
X93738000Y-97602872D01*
X94240000Y-97602872D01*
X94489000Y-97602872D01*
X94976500Y-97602872D01*
X94976500Y-97100872D01*
X94489000Y-97100872D01*
X94489000Y-97602872D01*
X94240000Y-97602872D01*
X94240000Y-97100872D01*
X93738000Y-97100872D01*
X93738000Y-97602872D01*
X93489000Y-97602872D01*
X93489000Y-97100872D01*
X92987000Y-97100872D01*
X92987000Y-97602872D01*
X92738000Y-97602872D01*
X92738000Y-97100872D01*
X92236000Y-97100872D01*
X92236000Y-97602872D01*
X91987000Y-97602872D01*
X91987000Y-97100872D01*
X91485000Y-97100872D01*
X91485000Y-97602872D01*
X91236000Y-97602872D01*
X91236000Y-97100872D01*
X90734000Y-97100872D01*
X90734000Y-97602872D01*
X90485000Y-97602872D01*
X90485000Y-97100872D01*
X89983000Y-97100872D01*
X89983000Y-97602872D01*
X89734000Y-97602872D01*
X89734000Y-97100872D01*
X89232000Y-97100872D01*
X89232000Y-97602872D01*
X88032689Y-97602872D01*
X88037595Y-97584563D01*
X88049983Y-97554657D01*
X88112518Y-97446343D01*
X88132224Y-97420662D01*
X88220662Y-97332224D01*
X88232000Y-97323523D01*
X88232000Y-97211755D01*
X88481000Y-97211755D01*
X88505372Y-97205225D01*
X88537465Y-97201000D01*
X88662535Y-97201000D01*
X88694628Y-97205225D01*
X88815436Y-97237595D01*
X88845343Y-97249983D01*
X88953657Y-97312518D01*
X88979338Y-97332224D01*
X88983000Y-97335886D01*
X88983000Y-97100872D01*
X88481000Y-97100872D01*
X88481000Y-97211755D01*
X88232000Y-97211755D01*
X88232000Y-97100872D01*
X87730000Y-97100872D01*
X87730000Y-97602872D01*
X87481000Y-97602872D01*
X87481000Y-97100872D01*
X87178500Y-97100872D01*
X87178500Y-97136380D01*
X87178352Y-97142446D01*
X87178292Y-97143671D01*
X87177843Y-97149754D01*
X87176529Y-97163101D01*
X87175770Y-97169238D01*
X87175589Y-97170452D01*
X87174562Y-97176357D01*
X87156098Y-97269183D01*
X87153144Y-97280980D01*
X87152431Y-97283331D01*
X87148328Y-97294797D01*
X87138041Y-97319631D01*
X87132834Y-97330640D01*
X87131676Y-97332806D01*
X87125425Y-97343234D01*
X87077259Y-97415318D01*
X86795400Y-97415318D01*
X86787184Y-97393287D01*
X86802036Y-97325014D01*
X86828646Y-97295918D01*
X86826965Y-97294237D01*
X86835598Y-97285603D01*
X86835597Y-97285603D01*
X86835601Y-97285601D01*
X86890966Y-97202740D01*
X86905500Y-97129674D01*
X86905500Y-96630326D01*
X86895328Y-96579188D01*
X86895328Y-96555000D01*
X87168864Y-96555000D01*
X87174562Y-96583640D01*
X87175606Y-96589661D01*
X87175786Y-96590876D01*
X87176528Y-96596890D01*
X87177843Y-96610237D01*
X87178292Y-96616329D01*
X87178352Y-96617554D01*
X87178500Y-96623620D01*
X87178500Y-96851872D01*
X87481000Y-96851872D01*
X87730000Y-96851872D01*
X88232000Y-96851872D01*
X88481000Y-96851872D01*
X88983000Y-96851872D01*
X89232000Y-96851872D01*
X89734000Y-96851872D01*
X89983000Y-96851872D01*
X90485000Y-96851872D01*
X90734000Y-96851872D01*
X91236000Y-96851872D01*
X91485000Y-96851872D01*
X91987000Y-96851872D01*
X92236000Y-96851872D01*
X92738000Y-96851872D01*
X92987000Y-96851872D01*
X93489000Y-96851872D01*
X93738000Y-96851872D01*
X94240000Y-96851872D01*
X94489000Y-96851872D01*
X94976500Y-96851872D01*
X94976500Y-96349872D01*
X94489000Y-96349872D01*
X94489000Y-96851872D01*
X94240000Y-96851872D01*
X94240000Y-96349872D01*
X93738000Y-96349872D01*
X93738000Y-96851872D01*
X93489000Y-96851872D01*
X93489000Y-96349872D01*
X92987000Y-96349872D01*
X92987000Y-96851872D01*
X92738000Y-96851872D01*
X92738000Y-96349872D01*
X92236000Y-96349872D01*
X92236000Y-96851872D01*
X91987000Y-96851872D01*
X91987000Y-96349872D01*
X91485000Y-96349872D01*
X91485000Y-96851872D01*
X91236000Y-96851872D01*
X91236000Y-96349872D01*
X90734000Y-96349872D01*
X90734000Y-96851872D01*
X90485000Y-96851872D01*
X90485000Y-96349872D01*
X89983000Y-96349872D01*
X89983000Y-96851872D01*
X89734000Y-96851872D01*
X89734000Y-96349872D01*
X89232000Y-96349872D01*
X89232000Y-96851872D01*
X88983000Y-96851872D01*
X88983000Y-96349872D01*
X88481000Y-96349872D01*
X88481000Y-96851872D01*
X88232000Y-96851872D01*
X88232000Y-96349872D01*
X87730000Y-96349872D01*
X87730000Y-96851872D01*
X87481000Y-96851872D01*
X87481000Y-96349872D01*
X87178500Y-96349872D01*
X87178500Y-96486380D01*
X87178352Y-96492446D01*
X87178292Y-96493671D01*
X87177843Y-96499763D01*
X87176528Y-96513110D01*
X87175786Y-96519124D01*
X87175606Y-96520339D01*
X87174562Y-96526360D01*
X87168864Y-96555000D01*
X86895328Y-96555000D01*
X86895328Y-96530811D01*
X86905500Y-96479674D01*
X86905500Y-95980326D01*
X86895328Y-95929188D01*
X86895328Y-95905000D01*
X87168864Y-95905000D01*
X87174562Y-95933640D01*
X87175606Y-95939661D01*
X87175786Y-95940876D01*
X87176528Y-95946890D01*
X87177843Y-95960237D01*
X87178292Y-95966329D01*
X87178352Y-95967554D01*
X87178500Y-95973620D01*
X87178500Y-96100872D01*
X87481000Y-96100872D01*
X87730000Y-96100872D01*
X88232000Y-96100872D01*
X88481000Y-96100872D01*
X88983000Y-96100872D01*
X89232000Y-96100872D01*
X89734000Y-96100872D01*
X89983000Y-96100872D01*
X90485000Y-96100872D01*
X90734000Y-96100872D01*
X91236000Y-96100872D01*
X91485000Y-96100872D01*
X91987000Y-96100872D01*
X92236000Y-96100872D01*
X92738000Y-96100872D01*
X92987000Y-96100872D01*
X93489000Y-96100872D01*
X93738000Y-96100872D01*
X94240000Y-96100872D01*
X94489000Y-96100872D01*
X94976500Y-96100872D01*
X94976500Y-95866814D01*
X94733677Y-95598872D01*
X94489000Y-95598872D01*
X94489000Y-96100872D01*
X94240000Y-96100872D01*
X94240000Y-95598872D01*
X93738000Y-95598872D01*
X93738000Y-96100872D01*
X93489000Y-96100872D01*
X93489000Y-95598872D01*
X92987000Y-95598872D01*
X92987000Y-96100872D01*
X92738000Y-96100872D01*
X92738000Y-95598872D01*
X92236000Y-95598872D01*
X92236000Y-96100872D01*
X91987000Y-96100872D01*
X91987000Y-95598872D01*
X91485000Y-95598872D01*
X91485000Y-96100872D01*
X91236000Y-96100872D01*
X91236000Y-95598872D01*
X90734000Y-95598872D01*
X90734000Y-96100872D01*
X90485000Y-96100872D01*
X90485000Y-95598872D01*
X89983000Y-95598872D01*
X89983000Y-96100872D01*
X89734000Y-96100872D01*
X89734000Y-95598872D01*
X89232000Y-95598872D01*
X89232000Y-96100872D01*
X88983000Y-96100872D01*
X88983000Y-95598872D01*
X88481000Y-95598872D01*
X88481000Y-96100872D01*
X88232000Y-96100872D01*
X88232000Y-95598872D01*
X87730000Y-95598872D01*
X87730000Y-96100872D01*
X87481000Y-96100872D01*
X87481000Y-95598872D01*
X87178500Y-95598872D01*
X87178500Y-95836380D01*
X87178352Y-95842446D01*
X87178292Y-95843671D01*
X87177843Y-95849763D01*
X87176528Y-95863110D01*
X87175786Y-95869124D01*
X87175606Y-95870339D01*
X87174562Y-95876360D01*
X87168864Y-95905000D01*
X86895328Y-95905000D01*
X86895328Y-95880811D01*
X86905500Y-95829674D01*
X86905500Y-95330326D01*
X86905500Y-95330323D01*
X86905499Y-95330321D01*
X86890967Y-95257264D01*
X86890966Y-95257260D01*
X86835601Y-95174399D01*
X86752740Y-95119034D01*
X86752739Y-95119033D01*
X86752735Y-95119032D01*
X86679677Y-95104500D01*
X86679674Y-95104500D01*
X86554500Y-95104500D01*
X86487461Y-95084815D01*
X86441706Y-95032011D01*
X86430500Y-94980500D01*
X86430500Y-94941881D01*
X86979000Y-94941881D01*
X86998447Y-94954876D01*
X87008207Y-94962113D01*
X87010106Y-94963671D01*
X87019136Y-94971855D01*
X87038145Y-94990864D01*
X87046329Y-94999894D01*
X87047887Y-95001793D01*
X87055124Y-95011553D01*
X87125425Y-95116766D01*
X87131676Y-95127194D01*
X87132834Y-95129360D01*
X87138041Y-95140369D01*
X87148328Y-95165203D01*
X87152431Y-95176669D01*
X87153144Y-95179020D01*
X87156098Y-95190817D01*
X87174562Y-95283643D01*
X87175589Y-95289548D01*
X87175770Y-95290762D01*
X87176529Y-95296899D01*
X87177843Y-95310246D01*
X87178292Y-95316329D01*
X87178352Y-95317554D01*
X87178500Y-95323620D01*
X87178500Y-95349872D01*
X87481000Y-95349872D01*
X87730000Y-95349872D01*
X88232000Y-95349872D01*
X88481000Y-95349872D01*
X88983000Y-95349872D01*
X89232000Y-95349872D01*
X89734000Y-95349872D01*
X89983000Y-95349872D01*
X90485000Y-95349872D01*
X90485000Y-95070560D01*
X90394628Y-95094775D01*
X90362535Y-95099000D01*
X90237465Y-95099000D01*
X90205372Y-95094775D01*
X90084564Y-95062405D01*
X90054657Y-95050017D01*
X89983000Y-95008645D01*
X89983000Y-95349872D01*
X89734000Y-95349872D01*
X89734000Y-94913114D01*
X90734000Y-94913114D01*
X90734000Y-95349872D01*
X91236000Y-95349872D01*
X91485000Y-95349872D01*
X91987000Y-95349872D01*
X92236000Y-95349872D01*
X92738000Y-95349872D01*
X92987000Y-95349872D01*
X93489000Y-95349872D01*
X93738000Y-95349872D01*
X94240000Y-95349872D01*
X94240000Y-95054124D01*
X94053083Y-94847872D01*
X93738000Y-94847872D01*
X93738000Y-95349872D01*
X93489000Y-95349872D01*
X93489000Y-94847872D01*
X92987000Y-94847872D01*
X92987000Y-95349872D01*
X92738000Y-95349872D01*
X92738000Y-94847872D01*
X92236000Y-94847872D01*
X92236000Y-95349872D01*
X91987000Y-95349872D01*
X91987000Y-94847872D01*
X91485000Y-94847872D01*
X91485000Y-95349872D01*
X91236000Y-95349872D01*
X91236000Y-94847872D01*
X90790822Y-94847872D01*
X90787482Y-94853657D01*
X90767776Y-94879338D01*
X90734000Y-94913114D01*
X89734000Y-94913114D01*
X89734000Y-94847872D01*
X89232000Y-94847872D01*
X89232000Y-95349872D01*
X88983000Y-95349872D01*
X88983000Y-94847872D01*
X88481000Y-94847872D01*
X88481000Y-95349872D01*
X88232000Y-95349872D01*
X88232000Y-94847872D01*
X87730000Y-94847872D01*
X87730000Y-95349872D01*
X87481000Y-95349872D01*
X87481000Y-94847872D01*
X86979000Y-94847872D01*
X86979000Y-94941881D01*
X86430500Y-94941881D01*
X86430500Y-94558445D01*
X86979000Y-94558445D01*
X86979000Y-94598872D01*
X87481000Y-94598872D01*
X87481000Y-94228017D01*
X87730000Y-94228017D01*
X87730000Y-94598872D01*
X88232000Y-94598872D01*
X88481000Y-94598872D01*
X88983000Y-94598872D01*
X89232000Y-94598872D01*
X89706362Y-94598872D01*
X89705225Y-94594628D01*
X89701000Y-94562535D01*
X89701000Y-94437465D01*
X89705225Y-94405372D01*
X89734000Y-94297980D01*
X89734000Y-94096872D01*
X90743986Y-94096872D01*
X90767776Y-94120662D01*
X90787482Y-94146343D01*
X90850017Y-94254657D01*
X90862405Y-94284564D01*
X90894775Y-94405372D01*
X90899000Y-94437465D01*
X90899000Y-94562535D01*
X90894775Y-94594628D01*
X90893638Y-94598872D01*
X91236000Y-94598872D01*
X91485000Y-94598872D01*
X91987000Y-94598872D01*
X92236000Y-94598872D01*
X92738000Y-94598872D01*
X92987000Y-94598872D01*
X93489000Y-94598872D01*
X93489000Y-94225435D01*
X93372489Y-94096872D01*
X92987000Y-94096872D01*
X92987000Y-94598872D01*
X92738000Y-94598872D01*
X92738000Y-94096872D01*
X92236000Y-94096872D01*
X92236000Y-94598872D01*
X91987000Y-94598872D01*
X91987000Y-94096872D01*
X91485000Y-94096872D01*
X91485000Y-94598872D01*
X91236000Y-94598872D01*
X91236000Y-94096872D01*
X90743986Y-94096872D01*
X89734000Y-94096872D01*
X89232000Y-94096872D01*
X89232000Y-94598872D01*
X88983000Y-94598872D01*
X88983000Y-94096872D01*
X88481000Y-94096872D01*
X88481000Y-94598872D01*
X88232000Y-94598872D01*
X88232000Y-94096872D01*
X88180242Y-94096872D01*
X88179338Y-94097776D01*
X88153657Y-94117482D01*
X88045343Y-94180017D01*
X88015436Y-94192405D01*
X87894628Y-94224775D01*
X87862535Y-94229000D01*
X87737465Y-94229000D01*
X87730000Y-94228017D01*
X87481000Y-94228017D01*
X87481000Y-94137491D01*
X87446344Y-94117483D01*
X87420662Y-94097776D01*
X87419758Y-94096872D01*
X87389804Y-94096872D01*
X87360011Y-94176746D01*
X87325030Y-94227125D01*
X87315385Y-94235482D01*
X87260542Y-94262933D01*
X87115750Y-94294429D01*
X87093639Y-94293639D01*
X87094429Y-94315750D01*
X87062933Y-94460542D01*
X87035482Y-94515385D01*
X87027125Y-94525030D01*
X86979000Y-94558445D01*
X86430500Y-94558445D01*
X86430500Y-94479000D01*
X86450185Y-94411961D01*
X86502989Y-94366206D01*
X86554500Y-94355000D01*
X86702828Y-94355000D01*
X86702844Y-94354999D01*
X86762373Y-94348598D01*
X86811919Y-94330117D01*
X86336802Y-93855000D01*
X86973197Y-93855000D01*
X87130117Y-94011919D01*
X87148598Y-93962373D01*
X87154999Y-93902844D01*
X87155000Y-93902827D01*
X87155000Y-93855000D01*
X86973197Y-93855000D01*
X86336802Y-93855000D01*
X86280251Y-93855000D01*
X86244418Y-93847872D01*
X88481000Y-93847872D01*
X88983000Y-93847872D01*
X89232000Y-93847872D01*
X89734000Y-93847872D01*
X89983000Y-93847872D01*
X90485000Y-93847872D01*
X90734000Y-93847872D01*
X91236000Y-93847872D01*
X91485000Y-93847872D01*
X91987000Y-93847872D01*
X92236000Y-93847872D01*
X92738000Y-93847872D01*
X92738000Y-93723346D01*
X92254839Y-93669663D01*
X92241342Y-93667403D01*
X92238650Y-93666798D01*
X92236000Y-93666047D01*
X92236000Y-93847872D01*
X91987000Y-93847872D01*
X91987000Y-93527935D01*
X91691146Y-93345872D01*
X91485000Y-93345872D01*
X91485000Y-93847872D01*
X91236000Y-93847872D01*
X91236000Y-93345872D01*
X90734000Y-93345872D01*
X90734000Y-93847872D01*
X90485000Y-93847872D01*
X90485000Y-93345872D01*
X89983000Y-93345872D01*
X89983000Y-93847872D01*
X89734000Y-93847872D01*
X89734000Y-93345872D01*
X89232000Y-93345872D01*
X89232000Y-93847872D01*
X88983000Y-93847872D01*
X88983000Y-93345872D01*
X88481000Y-93345872D01*
X88481000Y-93847872D01*
X86244418Y-93847872D01*
X86232800Y-93845561D01*
X86197415Y-93830904D01*
X86169883Y-93819500D01*
X86169882Y-93819500D01*
X86104000Y-93819500D01*
X86036961Y-93799815D01*
X85991206Y-93747011D01*
X85980000Y-93695500D01*
X85980000Y-93604738D01*
X86303000Y-93604738D01*
X86303000Y-93655262D01*
X86322335Y-93701940D01*
X86358060Y-93737665D01*
X86404738Y-93757000D01*
X86455262Y-93757000D01*
X86501940Y-93737665D01*
X86537665Y-93701940D01*
X86557000Y-93655262D01*
X86557000Y-93604738D01*
X86537665Y-93558060D01*
X86501940Y-93522335D01*
X86455262Y-93503000D01*
X86404738Y-93503000D01*
X86358060Y-93522335D01*
X86322335Y-93558060D01*
X86303000Y-93604738D01*
X85980000Y-93604738D01*
X85980000Y-93544500D01*
X85999685Y-93477461D01*
X86052489Y-93431706D01*
X86104000Y-93420500D01*
X86269880Y-93420500D01*
X86269882Y-93420500D01*
X86284516Y-93414438D01*
X86331967Y-93405000D01*
X86336802Y-93405000D01*
X86336802Y-93404999D01*
X86973197Y-93404999D01*
X86973198Y-93405000D01*
X87155000Y-93405000D01*
X87155000Y-93357172D01*
X87154999Y-93357155D01*
X87148598Y-93297624D01*
X87130118Y-93248078D01*
X86973197Y-93404999D01*
X86336802Y-93404999D01*
X86811920Y-92929881D01*
X86811920Y-92929879D01*
X86761166Y-92910949D01*
X86705232Y-92869078D01*
X86680816Y-92803613D01*
X86680500Y-92794768D01*
X86680500Y-92701551D01*
X86979000Y-92701551D01*
X87027124Y-92734967D01*
X87035481Y-92744612D01*
X87062932Y-92799454D01*
X87094430Y-92944248D01*
X87093640Y-92966359D01*
X87115750Y-92965570D01*
X87260543Y-92997067D01*
X87315386Y-93024518D01*
X87325031Y-93032875D01*
X87360012Y-93083255D01*
X87365091Y-93096872D01*
X87481000Y-93096872D01*
X87481000Y-93031982D01*
X87730000Y-93031982D01*
X87737465Y-93031000D01*
X87862535Y-93031000D01*
X87894628Y-93035225D01*
X88015436Y-93067595D01*
X88045343Y-93079983D01*
X88074596Y-93096872D01*
X88232000Y-93096872D01*
X88481000Y-93096872D01*
X88983000Y-93096872D01*
X89232000Y-93096872D01*
X89734000Y-93096872D01*
X89983000Y-93096872D01*
X90485000Y-93096872D01*
X90734000Y-93096872D01*
X91236000Y-93096872D01*
X91236000Y-93065781D01*
X90922729Y-92873000D01*
X90734000Y-92873000D01*
X90734000Y-93096872D01*
X90485000Y-93096872D01*
X90485000Y-92873000D01*
X89983000Y-92873000D01*
X89983000Y-93096872D01*
X89734000Y-93096872D01*
X89734000Y-92873000D01*
X89232000Y-92873000D01*
X89232000Y-93096872D01*
X88983000Y-93096872D01*
X88983000Y-92873000D01*
X88643665Y-92873000D01*
X88596210Y-92863560D01*
X88587022Y-92859754D01*
X88546796Y-92832875D01*
X88481000Y-92767079D01*
X88481000Y-93096872D01*
X88232000Y-93096872D01*
X88232000Y-92594872D01*
X87730000Y-92594872D01*
X87730000Y-93031982D01*
X87481000Y-93031982D01*
X87481000Y-92594872D01*
X86979000Y-92594872D01*
X86979000Y-92701551D01*
X86680500Y-92701551D01*
X86680500Y-92345872D01*
X86979000Y-92345872D01*
X87481000Y-92345872D01*
X87730000Y-92345872D01*
X88232000Y-92345872D01*
X88232000Y-91843872D01*
X87730000Y-91843872D01*
X87730000Y-92345872D01*
X87481000Y-92345872D01*
X87481000Y-91843872D01*
X86979000Y-91843872D01*
X86979000Y-92345872D01*
X86680500Y-92345872D01*
X86680500Y-91594872D01*
X86979000Y-91594872D01*
X87481000Y-91594872D01*
X87730000Y-91594872D01*
X88232000Y-91594872D01*
X88232000Y-91092872D01*
X87730000Y-91092872D01*
X87730000Y-91594872D01*
X87481000Y-91594872D01*
X87481000Y-91092872D01*
X86979000Y-91092872D01*
X86979000Y-91594872D01*
X86680500Y-91594872D01*
X86680500Y-90461447D01*
X86979000Y-90461447D01*
X86979000Y-90843872D01*
X87481000Y-90843872D01*
X87730000Y-90843872D01*
X88232000Y-90843872D01*
X88232000Y-90367359D01*
X87730000Y-90367158D01*
X87730000Y-90843872D01*
X87481000Y-90843872D01*
X87481000Y-90367058D01*
X87073550Y-90366896D01*
X86979000Y-90461447D01*
X86680500Y-90461447D01*
X86680500Y-90425231D01*
X86700185Y-90358192D01*
X86716819Y-90337550D01*
X86800932Y-90253437D01*
X86924179Y-90130189D01*
X86985500Y-90096706D01*
X87011903Y-90093872D01*
X88576051Y-90094497D01*
G37*
%TD.AperFunction*%
%TD*%
M02*
