%TF.GenerationSoftware,KiCad,Pcbnew,9.0.4*%
%TF.CreationDate,2025-09-07T07:02:52-04:00*%
%TF.ProjectId,flex_partial,666c6578-5f70-4617-9274-69616c2e6b69,v20231105*%
%TF.SameCoordinates,Original*%
%TF.FileFunction,Copper,L1,Top*%
%TF.FilePolarity,Positive*%
%FSLAX46Y46*%
G04 Gerber Fmt 4.6, Leading zero omitted, Abs format (unit mm)*
G04 Created by KiCad (PCBNEW 9.0.4) date 2025-09-07 07:02:52*
%MOMM*%
%LPD*%
G01*
G04 APERTURE LIST*
G04 Aperture macros list*
%AMRoundRect*
0 Rectangle with rounded corners*
0 $1 Rounding radius*
0 $2 $3 $4 $5 $6 $7 $8 $9 X,Y pos of 4 corners*
0 Add a 4 corners polygon primitive as box body*
4,1,4,$2,$3,$4,$5,$6,$7,$8,$9,$2,$3,0*
0 Add four circle primitives for the rounded corners*
1,1,$1+$1,$2,$3*
1,1,$1+$1,$4,$5*
1,1,$1+$1,$6,$7*
1,1,$1+$1,$8,$9*
0 Add four rect primitives between the rounded corners*
20,1,$1+$1,$2,$3,$4,$5,0*
20,1,$1+$1,$4,$5,$6,$7,0*
20,1,$1+$1,$6,$7,$8,$9,0*
20,1,$1+$1,$8,$9,$2,$3,0*%
%AMRotRect*
0 Rectangle, with rotation*
0 The origin of the aperture is its center*
0 $1 length*
0 $2 width*
0 $3 Rotation angle, in degrees counterclockwise*
0 Add horizontal line*
21,1,$1,$2,0,0,$3*%
G04 Aperture macros list end*
%TA.AperFunction,Conductor*%
%ADD10C,0.200000*%
%TD*%
%TA.AperFunction,NonConductor*%
%ADD11C,0.200000*%
%TD*%
%TA.AperFunction,EtchedComponent*%
%ADD12C,0.000000*%
%TD*%
%TA.AperFunction,SMDPad,CuDef*%
%ADD13C,1.500000*%
%TD*%
%TA.AperFunction,SMDPad,CuDef*%
%ADD14RoundRect,0.237500X-0.300000X-0.237500X0.300000X-0.237500X0.300000X0.237500X-0.300000X0.237500X0*%
%TD*%
%TA.AperFunction,SMDPad,CuDef*%
%ADD15RotRect,0.800000X0.500000X45.000000*%
%TD*%
%TA.AperFunction,SMDPad,CuDef*%
%ADD16RotRect,0.800000X0.400000X45.000000*%
%TD*%
%TA.AperFunction,SMDPad,CuDef*%
%ADD17R,0.800000X0.500000*%
%TD*%
%TA.AperFunction,SMDPad,CuDef*%
%ADD18R,0.800000X0.400000*%
%TD*%
%TA.AperFunction,CastellatedPad*%
%ADD19C,0.450000*%
%TD*%
%TA.AperFunction,ComponentPad*%
%ADD20C,0.450000*%
%TD*%
%TA.AperFunction,SMDPad,CuDef*%
%ADD21R,1.350000X0.450000*%
%TD*%
%TA.AperFunction,SMDPad,CuDef*%
%ADD22R,1.300000X0.300000*%
%TD*%
%TA.AperFunction,SMDPad,CuDef*%
%ADD23R,0.510000X0.700000*%
%TD*%
%TA.AperFunction,ViaPad*%
%ADD24C,0.800000*%
%TD*%
%TA.AperFunction,Conductor*%
%ADD25C,0.300000*%
%TD*%
%TA.AperFunction,Conductor*%
%ADD26C,0.500000*%
%TD*%
%TA.AperFunction,Conductor*%
%ADD27C,0.250000*%
%TD*%
G04 APERTURE END LIST*
D10*
%TO.N,+3.3VA*%
X91500000Y-112700000D02*
X91900000Y-112300000D01*
D11*
X101200000Y-110400000D02*
X101200000Y-109300000D01*
D10*
%TO.N,Net-(J4-Pin_1)*%
X95800000Y-115700000D02*
X96700000Y-116600000D01*
%TO.N,Net-(J5-Pin_1)*%
X97900000Y-115000000D02*
X98500000Y-115200000D01*
%TO.N,+3V3*%
X96600000Y-97600000D02*
X97000000Y-97800000D01*
%TO.N,GND*%
X92700000Y-112500000D02*
X92900000Y-111900000D01*
%TO.N,+5V*%
X96200000Y-95000000D02*
G75*
G02*
X96164658Y-94956894I200100J200100D01*
G01*
D11*
X101500000Y-92600000D02*
X102400000Y-92600000D01*
D10*
%TO.N,unconnected-(U1-NC-Pad1)*%
X91400000Y-116200000D02*
X90900000Y-116200000D01*
%TO.N,+5V*%
X93600000Y-92200000D02*
X92800000Y-91900000D01*
%TO.N,+3.3VA*%
X91400000Y-113600000D02*
X91500000Y-113200000D01*
%TO.N,+3V3*%
X90100000Y-91300000D02*
X89300000Y-92400000D01*
%TO.N,unconnected-(U1-NC-Pad1)*%
X91000000Y-116200000D02*
X91400000Y-116000000D01*
%TO.N,GND*%
X101500000Y-115700000D02*
X100500000Y-114800000D01*
D11*
X100000000Y-110400000D02*
X100000000Y-109300000D01*
D10*
%TO.N,+5V*%
X96500000Y-94700000D02*
X96858256Y-94355628D01*
D11*
X101400000Y-111700000D02*
X102300000Y-111700000D01*
D10*
%TO.N,GND*%
X93600000Y-116400000D02*
X93400000Y-116800000D01*
%TO.N,+3V3*%
X90100000Y-91300000D02*
X88900000Y-90500000D01*
X96600000Y-97000000D02*
X97000000Y-96800000D01*
%TO.N,Net-(J4-Pin_1)*%
X95800000Y-115700000D02*
X96600000Y-114600000D01*
D11*
X98300000Y-111700000D02*
X97400000Y-111700000D01*
D10*
%TO.N,+5V*%
X92900000Y-91300000D02*
X91800000Y-90400000D01*
%TO.N,+3V3*%
X97000000Y-96800000D02*
X96500000Y-96400000D01*
X90100000Y-91900000D02*
X90900000Y-92100000D01*
%TO.N,Net-(J4-Pin_1)*%
X95200000Y-115700000D02*
X95000000Y-115400000D01*
%TO.N,Net-(J5-Pin_1)*%
X98000000Y-115700000D02*
X97900000Y-115000000D01*
%TO.N,+3V3*%
X90700000Y-91200000D02*
X91100000Y-91800000D01*
%TO.N,+5V*%
X96200000Y-94400000D02*
X96858255Y-94355628D01*
%TO.N,Net-(J5-Pin_1)*%
X98600000Y-115700000D02*
X99500000Y-116700000D01*
%TO.N,GND*%
X101500000Y-115700000D02*
X100700000Y-116800000D01*
%TO.N,Net-(J3-Pin_1)*%
X95600000Y-91400000D02*
X94500000Y-90400000D01*
%TO.N,Net-(J4-Pin_1)*%
X95000000Y-115400000D02*
X95600000Y-115200000D01*
D11*
X101400000Y-91500000D02*
X102400000Y-91500000D01*
D10*
%TO.N,+3V3*%
X96600000Y-97200000D02*
X97200000Y-97400000D01*
X97000000Y-97800000D02*
X96800000Y-98000000D01*
D11*
X101300000Y-93100000D02*
X101300000Y-93900000D01*
D10*
X97200000Y-97400000D02*
X96600000Y-97600000D01*
%TO.N,Net-(J3-Pin_1)*%
X96600000Y-90500000D02*
X95600000Y-91400000D01*
%TO.N,+3.3VA*%
X91200000Y-112300000D02*
X91500000Y-112700000D01*
%TO.N,Net-(J5-Pin_1)*%
X98600000Y-115700000D02*
X97800000Y-116800000D01*
%TO.N,+5V*%
X96058601Y-95093100D02*
X95400000Y-94000000D01*
D11*
X98400000Y-92500000D02*
X97500000Y-92500000D01*
D10*
%TO.N,GND*%
X93300000Y-112300000D02*
X92600000Y-112700000D01*
D11*
X98500000Y-91500000D02*
X97600000Y-91500000D01*
D10*
%TO.N,+3V3*%
X90100000Y-91300000D02*
X91100000Y-90400000D01*
X96800000Y-97050000D02*
X97300000Y-96800000D01*
%TO.N,Net-(J3-Pin_1)*%
X95600000Y-91400000D02*
X96600000Y-92400000D01*
%TO.N,+5V*%
X96500000Y-95100000D02*
X97224375Y-94850000D01*
%TO.N,+3.3VA*%
X91500000Y-113200000D02*
X91700000Y-113600000D01*
%TO.N,+5V*%
X93800000Y-92000000D02*
X93500000Y-91100000D01*
%TO.N,+3V3*%
X96800000Y-96900000D02*
X96800000Y-97200000D01*
%TO.N,/CTRL*%
X93300000Y-113600000D02*
X93500000Y-113300000D01*
%TO.N,+3V3*%
X97000000Y-98300000D02*
X96400000Y-97900000D01*
%TO.N,GND*%
X101500000Y-115700000D02*
X102300000Y-114700000D01*
%TO.N,Net-(J4-Pin_1)*%
X95800000Y-115700000D02*
X94800000Y-114700000D01*
%TO.N,/CTRL*%
X93600000Y-113600000D02*
X93502711Y-113300000D01*
%TO.N,+5V*%
X92900000Y-91300000D02*
X93900000Y-90400000D01*
%TO.N,unconnected-(U1-NC-Pad1)*%
X91000000Y-116200000D02*
X91400000Y-116400000D01*
X91560000Y-116160000D02*
X91560000Y-116760000D01*
%TO.N,+3.3VA*%
X91400000Y-111200000D02*
X91700000Y-111600000D01*
%TO.N,Net-(J5-Pin_1)*%
X98600000Y-115700000D02*
X99400000Y-114600000D01*
%TO.N,Net-(J4-Pin_1)*%
X95800000Y-115700000D02*
X94900000Y-116700000D01*
D11*
X98300000Y-110500000D02*
X97400000Y-110500000D01*
X99800000Y-93100000D02*
X99800000Y-93900000D01*
D10*
%TO.N,Net-(J3-Pin_1)*%
X95600000Y-91400000D02*
X96600000Y-90500000D01*
D11*
X101200000Y-110400000D02*
X102200000Y-110400000D01*
D10*
%TO.N,+5V*%
X96100000Y-95100000D02*
X96700000Y-95200000D01*
%TO.N,+3.3VA*%
X91400000Y-111200000D02*
X91200000Y-111700000D01*
%TO.N,GND*%
X101500000Y-115700000D02*
X102500000Y-116600000D01*
D12*
%TA.AperFunction,EtchedComponent*%
%TD*%
%TO.C,J6*%
G36*
X101780000Y-93382000D02*
G01*
X97980000Y-93382000D01*
X97980000Y-90882000D01*
X101780000Y-90882000D01*
X101780000Y-93382000D01*
G37*
%TD.AperFunction*%
%TA.AperFunction,EtchedComponent*%
%TO.C,J6*%
G36*
X101780000Y-112318000D02*
G01*
X97980000Y-112318000D01*
X97980000Y-109818000D01*
X101780000Y-109818000D01*
X101780000Y-112318000D01*
G37*
%TD.AperFunction*%
%TD*%
D13*
%TO.P,J3.1,1,Pin_1*%
%TO.N,GND*%
X101500000Y-115700000D03*
%TD*%
D14*
%TO.P,C1,1*%
%TO.N,+3.3VA*%
X91537500Y-112000000D03*
%TO.P,C1,2*%
%TO.N,GND*%
X93262500Y-112000000D03*
%TD*%
D15*
%TO.P,RN4,1,R1.1*%
%TO.N,Net-(RN4-R1.1)*%
X92015076Y-107887868D03*
D16*
%TO.P,RN4,2,R2.1*%
%TO.N,Net-(RN4-R2.1)*%
X92580761Y-108453553D03*
%TO.P,RN4,3,R3.1*%
%TO.N,/CTRL*%
X93146447Y-109019239D03*
D15*
%TO.P,RN4,4,R4.1*%
%TO.N,Net-(J5-Pin_1)*%
X93712132Y-109584924D03*
%TO.P,RN4,5,R4.2*%
%TO.N,Net-(J6-Pin_1)*%
X94984924Y-108312132D03*
D16*
%TO.P,RN4,6,R3.2*%
%TO.N,Net-(J6-Pin_2)*%
X94419239Y-107746447D03*
%TO.P,RN4,7,R2.2*%
%TO.N,Net-(J6-Pin_4)*%
X93853553Y-107180761D03*
D15*
%TO.P,RN4,8,R1.2*%
%TO.N,Net-(J6-Pin_6)*%
X93287868Y-106615076D03*
%TD*%
D17*
%TO.P,RN3,1,R1.1*%
%TO.N,Net-(RN3-R1.1)*%
X91300000Y-102350000D03*
D18*
%TO.P,RN3,2,R2.1*%
%TO.N,GND*%
X91300000Y-103150000D03*
%TO.P,RN3,3,R3.1*%
%TO.N,Net-(RN3-R3.1)*%
X91300000Y-103950000D03*
D17*
%TO.P,RN3,4,R4.1*%
%TO.N,Net-(RN3-R4.1)*%
X91300000Y-104750000D03*
%TO.P,RN3,5,R4.2*%
%TO.N,Net-(J6-Pin_7)*%
X93100000Y-104750000D03*
D18*
%TO.P,RN3,6,R3.2*%
%TO.N,Net-(J6-Pin_9)*%
X93100000Y-103950000D03*
%TO.P,RN3,7,R2.2*%
%TO.N,GND*%
X93100000Y-103150000D03*
D17*
%TO.P,RN3,8,R1.2*%
%TO.N,Net-(J6-Pin_11)*%
X93100000Y-102350000D03*
%TD*%
%TO.P,RN2,1,R1.1*%
%TO.N,Net-(RN2-R1.1)*%
X91300000Y-98420000D03*
D18*
%TO.P,RN2,2,R2.1*%
%TO.N,Net-(RN2-R2.1)*%
X91300000Y-99220000D03*
%TO.P,RN2,3,R3.1*%
%TO.N,Net-(RN2-R3.1)*%
X91300000Y-100020000D03*
D17*
%TO.P,RN2,4,R4.1*%
%TO.N,Net-(RN2-R4.1)*%
X91300000Y-100820000D03*
%TO.P,RN2,5,R4.2*%
%TO.N,Net-(J6-Pin_13)*%
X93100000Y-100820000D03*
D18*
%TO.P,RN2,6,R3.2*%
%TO.N,Net-(J6-Pin_14)*%
X93100000Y-100020000D03*
%TO.P,RN2,7,R2.2*%
%TO.N,Net-(J6-Pin_15)*%
X93100000Y-99220000D03*
D17*
%TO.P,RN2,8,R1.2*%
%TO.N,Net-(J6-Pin_16)*%
X93100000Y-98420000D03*
%TD*%
D19*
%TO.P,X2,1,Pin_1*%
%TO.N,+3.3VA*%
X85760000Y-105980000D03*
D20*
X86435000Y-105980000D03*
D21*
X86435000Y-105980000D03*
%TD*%
D13*
%TO.P,J1,1,Pin_1*%
%TO.N,+5V*%
X92900000Y-91300000D03*
%TD*%
%TO.P,J3,1,Pin_1*%
%TO.N,Net-(J3-Pin_1)*%
X95600000Y-91400000D03*
%TD*%
D22*
%TO.P,J6,1,Pin_1*%
%TO.N,Net-(J6-Pin_1)*%
X98150000Y-108850000D03*
%TO.P,J6,2,Pin_2*%
%TO.N,Net-(J6-Pin_2)*%
X98150000Y-108350000D03*
%TO.P,J6,3,Pin_3*%
%TO.N,GND*%
X98150000Y-107850000D03*
%TO.P,J6,4,Pin_4*%
%TO.N,Net-(J6-Pin_4)*%
X98150000Y-107350000D03*
%TO.P,J6,5,Pin_5*%
%TO.N,GND*%
X98150000Y-106850000D03*
%TO.P,J6,6,Pin_6*%
%TO.N,Net-(J6-Pin_6)*%
X98150000Y-106350000D03*
%TO.P,J6,7,Pin_7*%
%TO.N,Net-(J6-Pin_7)*%
X98150000Y-105850000D03*
%TO.P,J6,8,Pin_8*%
%TO.N,Net-(J3-Pin_1)*%
X98150000Y-105350000D03*
%TO.P,J6,9,Pin_9*%
%TO.N,Net-(J6-Pin_9)*%
X98150000Y-104850000D03*
%TO.P,J6,10,Pin_10*%
%TO.N,GND*%
X98150000Y-104350000D03*
%TO.P,J6,11,Pin_11*%
%TO.N,Net-(J6-Pin_11)*%
X98150000Y-103850000D03*
%TO.P,J6,12,Pin_12*%
%TO.N,GND*%
X98150000Y-103350000D03*
%TO.P,J6,13,Pin_13*%
%TO.N,Net-(J6-Pin_13)*%
X98150000Y-102850000D03*
%TO.P,J6,14,Pin_14*%
%TO.N,Net-(J6-Pin_14)*%
X98150000Y-102350000D03*
%TO.P,J6,15,Pin_15*%
%TO.N,Net-(J6-Pin_15)*%
X98150000Y-101850000D03*
%TO.P,J6,16,Pin_16*%
%TO.N,Net-(J6-Pin_16)*%
X98150000Y-101350000D03*
%TO.P,J6,17,Pin_17*%
%TO.N,Net-(J6-Pin_17)*%
X98150000Y-100850000D03*
%TO.P,J6,18,Pin_18*%
%TO.N,Net-(J6-Pin_18)*%
X98150000Y-100350000D03*
%TO.P,J6,19,Pin_19*%
%TO.N,Net-(J6-Pin_19)*%
X98150000Y-99850000D03*
%TO.P,J6,20,Pin_20*%
%TO.N,GND*%
X98150000Y-99350000D03*
%TO.P,J6,21,Pin_21*%
X98150000Y-98850000D03*
%TO.P,J6,22,Pin_22*%
%TO.N,+3V3*%
X98150000Y-98350000D03*
%TO.P,J6,23,Pin_23*%
X98150000Y-97850000D03*
%TO.P,J6,24,Pin_24*%
X98150000Y-97350000D03*
%TO.P,J6,25,Pin_25*%
X98150000Y-96850000D03*
%TO.P,J6,26,Pin_26*%
%TO.N,GND*%
X98150000Y-96350000D03*
%TO.P,J6,27,Pin_27*%
X98150000Y-95850000D03*
%TO.P,J6,28,Pin_28*%
%TO.N,+5V*%
X98150000Y-95350000D03*
%TO.P,J6,29,Pin_29*%
X98150000Y-94850000D03*
%TO.P,J6,30,Pin_30*%
X98150000Y-94350000D03*
%TD*%
D17*
%TO.P,RN1,1,R1.1*%
%TO.N,GND*%
X91300000Y-94500000D03*
D18*
%TO.P,RN1,2,R2.1*%
%TO.N,Net-(RN1-R2.1)*%
X91300000Y-95300000D03*
%TO.P,RN1,3,R3.1*%
%TO.N,Net-(RN1-R3.1)*%
X91300000Y-96100000D03*
D17*
%TO.P,RN1,4,R4.1*%
%TO.N,Net-(RN1-R4.1)*%
X91300000Y-96900000D03*
%TO.P,RN1,5,R4.2*%
%TO.N,Net-(J6-Pin_17)*%
X93100000Y-96900000D03*
D18*
%TO.P,RN1,6,R3.2*%
%TO.N,Net-(J6-Pin_18)*%
X93100000Y-96100000D03*
%TO.P,RN1,7,R2.2*%
%TO.N,Net-(J6-Pin_19)*%
X93100000Y-95300000D03*
D17*
%TO.P,RN1,8,R1.2*%
%TO.N,GND*%
X93100000Y-94500000D03*
%TD*%
D13*
%TO.P,J5,1,Pin_1*%
%TO.N,Net-(J5-Pin_1)*%
X98600000Y-115700000D03*
%TD*%
%TO.P,J2,1,Pin_1*%
%TO.N,+3V3*%
X90100000Y-91300000D03*
%TD*%
D19*
%TO.P,X1,6,SCLK*%
%TO.N,Net-(RN4-R2.1)*%
X85755000Y-107930000D03*
D20*
X86430000Y-107930000D03*
D21*
X86430000Y-107930000D03*
D19*
%TO.P,X1,7,SDATA*%
%TO.N,Net-(RN4-R1.1)*%
X85755000Y-107280000D03*
D20*
X86430000Y-107280000D03*
D21*
X86430000Y-107280000D03*
D19*
%TO.P,X1,8,GND*%
%TO.N,GND*%
X85755000Y-106630000D03*
D20*
X86430000Y-106630000D03*
D21*
X86430000Y-106630000D03*
D19*
%TO.P,X1,10,LRCLK*%
%TO.N,Net-(RN3-R4.1)*%
X85755000Y-105330000D03*
D20*
X86430000Y-105330000D03*
D21*
X86430000Y-105330000D03*
D19*
%TO.P,X1,11,VCLK*%
%TO.N,Net-(RN3-R3.1)*%
X85755000Y-104680000D03*
D20*
X86430000Y-104680000D03*
D21*
X86430000Y-104680000D03*
D19*
%TO.P,X1,12,GND*%
%TO.N,GND*%
X85755000Y-104030000D03*
D20*
X86430000Y-104030000D03*
D21*
X86430000Y-104030000D03*
D19*
%TO.P,X1,14,nDSYNC*%
%TO.N,Net-(RN3-R1.1)*%
X85755000Y-102730000D03*
D20*
X86430000Y-102730000D03*
D21*
X86430000Y-102730000D03*
D19*
%TO.P,X1,15,D6*%
%TO.N,Net-(RN2-R4.1)*%
X85755000Y-102080000D03*
D20*
X86430000Y-102080000D03*
D21*
X86430000Y-102080000D03*
D19*
%TO.P,X1,16,GND*%
%TO.N,GND*%
X85755000Y-101430000D03*
D20*
X86430000Y-101430000D03*
D21*
X86430000Y-101430000D03*
D19*
%TO.P,X1,18,D5*%
%TO.N,Net-(RN2-R3.1)*%
X85755000Y-100130000D03*
D20*
X86430000Y-100130000D03*
D21*
X86430000Y-100130000D03*
D19*
%TO.P,X1,19,D4*%
%TO.N,Net-(RN2-R2.1)*%
X85755000Y-99480000D03*
D20*
X86430000Y-99480000D03*
D21*
X86430000Y-99480000D03*
D19*
%TO.P,X1,20,D3*%
%TO.N,Net-(RN2-R1.1)*%
X85755000Y-98830000D03*
D20*
X86430000Y-98830000D03*
D21*
X86430000Y-98830000D03*
D19*
%TO.P,X1,21,GND*%
%TO.N,GND*%
X85755000Y-98180000D03*
D20*
X86430000Y-98180000D03*
D21*
X86430000Y-98180000D03*
D19*
%TO.P,X1,23,D2*%
%TO.N,Net-(RN1-R4.1)*%
X85755000Y-96880000D03*
D20*
X86430000Y-96880000D03*
D21*
X86430000Y-96880000D03*
D19*
%TO.P,X1,24,D1*%
%TO.N,Net-(RN1-R3.1)*%
X85755000Y-96230000D03*
D20*
X86430000Y-96230000D03*
D21*
X86430000Y-96230000D03*
D19*
%TO.P,X1,25,D0*%
%TO.N,Net-(RN1-R2.1)*%
X85755000Y-95580000D03*
D20*
X86430000Y-95580000D03*
D21*
X86430000Y-95580000D03*
D19*
%TO.P,X1,28,GND*%
%TO.N,GND*%
X85755000Y-93630000D03*
D20*
X86430000Y-93630000D03*
D21*
X86430000Y-93630000D03*
%TD*%
D13*
%TO.P,J4,1,Pin_1*%
%TO.N,Net-(J4-Pin_1)*%
X95800000Y-115700000D03*
%TD*%
D23*
%TO.P,U1,1,NC*%
%TO.N,unconnected-(U1-NC-Pad1)*%
X91550000Y-116160000D03*
%TO.P,U1,2*%
%TO.N,Net-(J4-Pin_1)*%
X92500000Y-116160000D03*
%TO.P,U1,3,GND*%
%TO.N,GND*%
X93450000Y-116160000D03*
%TO.P,U1,4*%
%TO.N,/CTRL*%
X93450000Y-113840000D03*
%TO.P,U1,5,VCC*%
%TO.N,+3.3VA*%
X91550000Y-113840000D03*
%TD*%
D24*
%TO.N,GND*%
X99800000Y-98900000D03*
%TO.N,+3.3VA*%
X90600000Y-107800000D03*
X91400000Y-110600000D03*
%TO.N,GND*%
X90300000Y-94500000D03*
X99900000Y-96000000D03*
X99700000Y-103400000D03*
X93400000Y-117500000D03*
X89400000Y-106700000D03*
X94300000Y-103200000D03*
X101500000Y-115700000D03*
X92500000Y-114600000D03*
X88500000Y-101000000D03*
X90000000Y-103200000D03*
X87800000Y-93630000D03*
X88600000Y-97800000D03*
%TO.N,Net-(J3-Pin_1)*%
X99314497Y-105391302D03*
X95600000Y-92500000D03*
%TO.N,GND*%
X99800000Y-106700000D03*
X99800000Y-107900000D03*
%TD*%
D25*
%TO.N,GND*%
X98935786Y-99350000D02*
G75*
G03*
X99642900Y-99057114I14J1000000D01*
G01*
X98150000Y-99350000D02*
X98935786Y-99350000D01*
X99642893Y-99057107D02*
X99800000Y-98900000D01*
X99750000Y-98850000D02*
X99800000Y-98900000D01*
X98150000Y-98850000D02*
X99750000Y-98850000D01*
%TO.N,+3.3VA*%
X89166447Y-105833553D02*
X89353554Y-105646446D01*
X89707107Y-105500000D02*
X89892893Y-105500000D01*
X90500000Y-107700000D02*
X90600000Y-107800000D01*
X91400000Y-111862501D02*
X91537499Y-112000000D01*
X91537499Y-112000000D02*
X91537499Y-113827499D01*
X91537499Y-113827499D02*
X91550000Y-113840000D01*
X91400000Y-110600000D02*
X91400000Y-111862501D01*
X90246447Y-105646447D02*
X90353554Y-105753554D01*
X86435000Y-105980000D02*
X88812893Y-105980000D01*
X90500000Y-106107107D02*
X90500000Y-107700000D01*
X89707107Y-105500000D02*
G75*
G03*
X89353551Y-105646443I-7J-500000D01*
G01*
X89892893Y-105500000D02*
G75*
G02*
X90246450Y-105646444I7J-500000D01*
G01*
X90353554Y-105753554D02*
G75*
G02*
X90499995Y-106107107I-353554J-353546D01*
G01*
X89166447Y-105833553D02*
G75*
G02*
X88812893Y-105979995I-353547J353553D01*
G01*
%TO.N,GND*%
X86430000Y-98180000D02*
X88012893Y-98180000D01*
X86430000Y-93630000D02*
X87800000Y-93630000D01*
X86430000Y-104030000D02*
X87755786Y-104030000D01*
X93262501Y-112000000D02*
X92500000Y-112762501D01*
X93400000Y-117500000D02*
X93400000Y-116210000D01*
X86430000Y-106630000D02*
X89330000Y-106630000D01*
X99750000Y-95850000D02*
X99900000Y-96000000D01*
X98150000Y-95850000D02*
X99750000Y-95850000D01*
X88822893Y-93922893D02*
X89107107Y-94207107D01*
X91300000Y-94500000D02*
X93100000Y-94500000D01*
X98150000Y-96349999D02*
X99135787Y-96349999D01*
X87800000Y-93630000D02*
X88115786Y-93630000D01*
X89330000Y-106630000D02*
X89400000Y-106700000D01*
X98150000Y-103350000D02*
X99650000Y-103350000D01*
X92500000Y-112762501D02*
X92500000Y-114600000D01*
X94250000Y-103150000D02*
X94300000Y-103200000D01*
X93100000Y-103150000D02*
X94250000Y-103150000D01*
X99842894Y-96057106D02*
X99900000Y-96000000D01*
X90050000Y-103150000D02*
X90000000Y-103200000D01*
X98150000Y-104350000D02*
X99142893Y-104350000D01*
X88216447Y-101283553D02*
X88500000Y-101000000D01*
X93100000Y-103150000D02*
X91300000Y-103150000D01*
X99496447Y-104203553D02*
X99553554Y-104146446D01*
X88366447Y-98033553D02*
X88600000Y-97800000D01*
X93400000Y-116210000D02*
X93450000Y-116160000D01*
X86430000Y-101430000D02*
X87862893Y-101430000D01*
X93100000Y-94500000D02*
X93187786Y-94500000D01*
X89814214Y-94500000D02*
X90300000Y-94500000D01*
X91300000Y-103150000D02*
X90050000Y-103150000D01*
X88462893Y-103737107D02*
X88707107Y-103492893D01*
X99700000Y-103792893D02*
X99700000Y-103400000D01*
X99650000Y-103350000D02*
X99700000Y-103400000D01*
X89414214Y-103200000D02*
X90000000Y-103200000D01*
X90300000Y-94500000D02*
X91300000Y-94500000D01*
X88462893Y-103737107D02*
G75*
G02*
X87755786Y-104029990I-707093J707107D01*
G01*
X89107107Y-94207107D02*
G75*
G03*
X89814214Y-94499990I707093J707107D01*
G01*
X88216447Y-101283553D02*
G75*
G02*
X87862893Y-101429995I-353547J353553D01*
G01*
X99700000Y-103792893D02*
G75*
G02*
X99553557Y-104146449I-500000J-7D01*
G01*
X88707107Y-103492893D02*
G75*
G02*
X89414214Y-103200010I707093J-707107D01*
G01*
X99842894Y-96057106D02*
G75*
G02*
X99135787Y-96349990I-707094J707106D01*
G01*
X88822893Y-93922893D02*
G75*
G03*
X88115786Y-93630010I-707093J-707107D01*
G01*
X99142893Y-104350000D02*
G75*
G03*
X99496450Y-104203556I7J500000D01*
G01*
X88012893Y-98180000D02*
G75*
G03*
X88366450Y-98033556I7J500000D01*
G01*
D26*
%TO.N,+5V*%
X92900000Y-91300000D02*
X96018214Y-94418214D01*
D27*
X98150000Y-95350001D02*
X97264215Y-95350001D01*
D26*
X96164660Y-94771767D02*
X96159740Y-94776687D01*
D27*
X96350000Y-94850000D02*
X96200000Y-94700000D01*
X98150000Y-94850000D02*
X96350000Y-94850000D01*
D26*
X96159740Y-94951973D02*
X96164660Y-94956893D01*
D27*
X96557108Y-95057108D02*
X96200000Y-94700000D01*
D26*
X96159740Y-94776687D02*
X96159740Y-94951973D01*
D27*
X98150000Y-94350000D02*
X96964214Y-94350000D01*
X96257107Y-94642893D02*
X96200000Y-94700000D01*
X96964214Y-94350000D02*
G75*
G03*
X96257100Y-94642886I-14J-1000000D01*
G01*
X97264215Y-95350001D02*
G75*
G02*
X96557101Y-95057115I-15J1000001D01*
G01*
D26*
X96018214Y-94418214D02*
G75*
G02*
X96164695Y-94771767I-353514J-353586D01*
G01*
D10*
%TO.N,Net-(J3-Pin_1)*%
X98191303Y-105391302D02*
X98150000Y-105349999D01*
D27*
X95600000Y-92500000D02*
X95600000Y-91400000D01*
D10*
X99314497Y-105391302D02*
X98191303Y-105391302D01*
%TO.N,Net-(J4-Pin_1)*%
X95800000Y-115700000D02*
X95500000Y-115400000D01*
X92653553Y-115546447D02*
X92646446Y-115553554D01*
X92500000Y-115907107D02*
X92500000Y-116160000D01*
X95500000Y-115400000D02*
X93007107Y-115400000D01*
X93007107Y-115400000D02*
G75*
G03*
X92653550Y-115546444I-7J-500000D01*
G01*
X92646446Y-115553554D02*
G75*
G03*
X92500005Y-115907107I353554J-353546D01*
G01*
%TO.N,Net-(J5-Pin_1)*%
X94653553Y-110953553D02*
X94446446Y-110746446D01*
X94800000Y-111692893D02*
X94800000Y-111307107D01*
X98600000Y-115700000D02*
X94946446Y-112046446D01*
X93453553Y-110453553D02*
X93446446Y-110446446D01*
X94092893Y-110600000D02*
X93807107Y-110600000D01*
X93300000Y-110092893D02*
X93300000Y-109997056D01*
X93300000Y-109997056D02*
X93712132Y-109584924D01*
X93453553Y-110453553D02*
G75*
G03*
X93807107Y-110599995I353547J353553D01*
G01*
X94800000Y-111692893D02*
G75*
G03*
X94946443Y-112046449I500000J-7D01*
G01*
X94653553Y-110953553D02*
G75*
G02*
X94799995Y-111307107I-353553J-353547D01*
G01*
X93446446Y-110446446D02*
G75*
G02*
X93300005Y-110092893I353554J353546D01*
G01*
X94446446Y-110746446D02*
G75*
G03*
X94092893Y-110600005I-353546J-353554D01*
G01*
%TO.N,Net-(J6-Pin_13)*%
X93100000Y-100820000D02*
X93405786Y-100820000D01*
X96264214Y-102850000D02*
X98149999Y-102850000D01*
X94112893Y-101112893D02*
X95557107Y-102557107D01*
X96264214Y-102850000D02*
G75*
G02*
X95557100Y-102557114I-14J1000000D01*
G01*
X94112893Y-101112893D02*
G75*
G03*
X93405786Y-100820010I-707093J-707107D01*
G01*
%TO.N,Net-(J6-Pin_17)*%
X93100000Y-96900000D02*
X93396447Y-96900000D01*
X93573224Y-96973224D02*
X93707107Y-97107107D01*
X94000000Y-97814214D02*
X94000000Y-97885786D01*
X94292893Y-98592893D02*
X96257107Y-100557107D01*
X96964214Y-100850000D02*
X98150000Y-100850000D01*
X96964214Y-100850000D02*
G75*
G02*
X96257100Y-100557114I-14J1000000D01*
G01*
X93573224Y-96973224D02*
G75*
G03*
X93396447Y-96899967I-176824J-176776D01*
G01*
X93707107Y-97107107D02*
G75*
G02*
X93999990Y-97814214I-707107J-707093D01*
G01*
X94292893Y-98592893D02*
G75*
G02*
X94000010Y-97885786I707107J707093D01*
G01*
%TO.N,Net-(J6-Pin_14)*%
X93100000Y-100020000D02*
X93205786Y-100020000D01*
X93912893Y-100312893D02*
X95657107Y-102057107D01*
X96364214Y-102350000D02*
X98150000Y-102350000D01*
X93912893Y-100312893D02*
G75*
G03*
X93205786Y-100020010I-707093J-707107D01*
G01*
X95657107Y-102057107D02*
G75*
G03*
X96364214Y-102349990I707093J707107D01*
G01*
D27*
%TO.N,+3V3*%
X98150000Y-98350000D02*
X97000000Y-98300000D01*
D26*
X96500000Y-97400000D02*
X96500000Y-97800000D01*
D27*
X98150000Y-97350000D02*
X96500000Y-97400000D01*
X98150000Y-97850001D02*
X96500000Y-97800000D01*
D26*
X90100000Y-91300000D02*
X92207675Y-92832855D01*
D27*
X98150000Y-96850000D02*
X96500000Y-96789592D01*
X97000000Y-98300000D02*
X96500000Y-97800000D01*
D26*
X93514680Y-93229477D02*
X96374294Y-96458074D01*
X96500000Y-96789592D02*
X96500000Y-97400000D01*
X92412318Y-92920422D02*
X93229828Y-93069060D01*
X92412318Y-92920422D02*
G75*
G02*
X92207686Y-92832840I89482J491922D01*
G01*
X96500000Y-96789592D02*
G75*
G03*
X96374290Y-96458078I-500000J-8D01*
G01*
X93229828Y-93069060D02*
G75*
G02*
X93514687Y-93229471I-89428J-491940D01*
G01*
D10*
%TO.N,Net-(J6-Pin_15)*%
X93100000Y-99220000D02*
X93105786Y-99220000D01*
X93812893Y-99512893D02*
X95857107Y-101557107D01*
X96564214Y-101850000D02*
X98150000Y-101850000D01*
X93105786Y-99220000D02*
G75*
G02*
X93812900Y-99512886I14J-1000000D01*
G01*
X96564214Y-101850000D02*
G75*
G02*
X95857100Y-101557114I-14J1000000D01*
G01*
%TO.N,Net-(J6-Pin_18)*%
X93992893Y-96392893D02*
X94107107Y-96507107D01*
X94400000Y-97214214D02*
X94400000Y-97485786D01*
X97264214Y-100350000D02*
X98149999Y-100350000D01*
X93100000Y-96100000D02*
X93285786Y-96100000D01*
X94692893Y-98192893D02*
X96557107Y-100057107D01*
X93992893Y-96392893D02*
G75*
G03*
X93285786Y-96100010I-707093J-707107D01*
G01*
X94107107Y-96507107D02*
G75*
G02*
X94399990Y-97214214I-707107J-707093D01*
G01*
X97264214Y-100350000D02*
G75*
G02*
X96557100Y-100057114I-14J1000000D01*
G01*
X94692893Y-98192893D02*
G75*
G02*
X94400010Y-97485786I707107J707093D01*
G01*
%TO.N,Net-(J6-Pin_16)*%
X93100000Y-98420000D02*
X93264447Y-98420000D01*
X93441224Y-98493224D02*
X96005107Y-101057107D01*
X96712214Y-101350000D02*
X98150000Y-101350000D01*
X93264447Y-98420000D02*
G75*
G02*
X93441201Y-98493247I-47J-250000D01*
G01*
X96712214Y-101350000D02*
G75*
G02*
X96005100Y-101057114I-14J1000000D01*
G01*
%TO.N,Net-(RN1-R4.1)*%
X86430000Y-96880000D02*
X91280000Y-96880000D01*
X91280000Y-96880000D02*
X91300000Y-96900000D01*
%TO.N,Net-(RN1-R2.1)*%
X86430000Y-95580000D02*
X89216447Y-95580000D01*
X89393224Y-95506776D02*
X89526777Y-95373223D01*
X89703553Y-95300000D02*
X91300000Y-95300000D01*
X89393224Y-95506776D02*
G75*
G02*
X89216447Y-95580033I-176824J176776D01*
G01*
X89526777Y-95373223D02*
G75*
G02*
X89703553Y-95299967I176823J-176777D01*
G01*
%TO.N,Net-(RN1-R3.1)*%
X86430000Y-96230000D02*
X89428579Y-96230000D01*
X89641421Y-96100000D02*
X91300000Y-96100000D01*
X89499290Y-96200710D02*
X89570711Y-96129289D01*
X89641421Y-96100000D02*
G75*
G03*
X89570700Y-96129278I-21J-100000D01*
G01*
X89428579Y-96230000D02*
G75*
G03*
X89499301Y-96200721I21J100000D01*
G01*
%TO.N,Net-(RN2-R1.1)*%
X86430000Y-98830000D02*
X88962893Y-98830000D01*
X89787107Y-98420000D02*
X91300000Y-98420000D01*
X89316447Y-98683553D02*
X89433554Y-98566446D01*
X89316447Y-98683553D02*
G75*
G02*
X88962893Y-98829995I-353547J353553D01*
G01*
X89433554Y-98566446D02*
G75*
G02*
X89787107Y-98420005I353546J-353554D01*
G01*
%TO.N,Net-(RN2-R2.1)*%
X89745685Y-99220000D02*
X91300000Y-99220000D01*
X89437158Y-99362842D02*
X89462843Y-99337157D01*
X86430000Y-99480000D02*
X89154315Y-99480000D01*
X89745685Y-99220000D02*
G75*
G03*
X89462850Y-99337164I15J-400000D01*
G01*
X89154315Y-99480000D02*
G75*
G03*
X89437151Y-99362835I-15J400000D01*
G01*
%TO.N,Net-(RN2-R3.1)*%
X91190000Y-100130000D02*
X91300000Y-100020000D01*
X86430000Y-100130000D02*
X91190000Y-100130000D01*
X86430000Y-100130000D02*
X86510000Y-100050000D01*
%TO.N,Net-(RN2-R4.1)*%
X89012893Y-101787107D02*
X89687107Y-101112893D01*
X86430000Y-102080000D02*
X88305786Y-102080000D01*
X90394214Y-100820000D02*
X91300000Y-100820000D01*
X90394214Y-100820000D02*
G75*
G03*
X89687100Y-101112886I-14J-1000000D01*
G01*
X88305786Y-102080000D02*
G75*
G03*
X89012900Y-101787114I14J1000000D01*
G01*
%TO.N,Net-(RN3-R3.1)*%
X89557107Y-103950000D02*
X91300000Y-103950000D01*
X88766447Y-104533553D02*
X89203554Y-104096446D01*
X86430000Y-104680000D02*
X88412893Y-104680000D01*
X89557107Y-103950000D02*
G75*
G03*
X89203551Y-104096443I-7J-500000D01*
G01*
X88412893Y-104680000D02*
G75*
G03*
X88766450Y-104533556I7J500000D01*
G01*
%TO.N,Net-(RN3-R1.1)*%
X89557107Y-102350000D02*
X91300000Y-102350000D01*
X89116447Y-102583553D02*
X89203554Y-102496446D01*
X86430000Y-102730000D02*
X88762893Y-102730000D01*
X88762893Y-102730000D02*
G75*
G03*
X89116450Y-102583556I7J500000D01*
G01*
X89557107Y-102350000D02*
G75*
G03*
X89203551Y-102496443I-7J-500000D01*
G01*
%TO.N,Net-(RN4-R1.1)*%
X91495837Y-108407107D02*
X92015076Y-107887868D01*
X89172893Y-107572893D02*
X90007107Y-108407107D01*
X90714214Y-108700000D02*
X90788730Y-108700000D01*
X86430000Y-107280000D02*
X88465786Y-107280000D01*
X90788730Y-108700000D02*
G75*
G03*
X91495822Y-108407092I-30J1000000D01*
G01*
X88465786Y-107280000D02*
G75*
G02*
X89172900Y-107572886I14J-1000000D01*
G01*
X90714214Y-108700000D02*
G75*
G02*
X90007100Y-108407114I-14J1000000D01*
G01*
%TO.N,Net-(RN3-R4.1)*%
X86430000Y-105330000D02*
X88762893Y-105330000D01*
X89757107Y-104750000D02*
X91300000Y-104750000D01*
X89116447Y-105183553D02*
X89403554Y-104896446D01*
X89403554Y-104896446D02*
G75*
G02*
X89757107Y-104750005I353546J-353554D01*
G01*
X89116447Y-105183553D02*
G75*
G02*
X88762893Y-105329995I-353547J353553D01*
G01*
%TO.N,/CTRL*%
X93792893Y-111000000D02*
X93507107Y-111000000D01*
X94153553Y-111153553D02*
X94146446Y-111146446D01*
X93523224Y-113276776D02*
X93626777Y-113173223D01*
X93450000Y-113840000D02*
X93450000Y-113453553D01*
X93153553Y-110853553D02*
X92646446Y-110346446D01*
X92500000Y-109992893D02*
X92500000Y-109872793D01*
X94073224Y-113026776D02*
X94226777Y-112873223D01*
X92646447Y-109519239D02*
X93146447Y-109019239D01*
X94300000Y-112696447D02*
X94300000Y-111507107D01*
X93803553Y-113100000D02*
X93896447Y-113100000D01*
X94300000Y-111507107D02*
G75*
G03*
X94153556Y-111153550I-500000J7D01*
G01*
X93803553Y-113100000D02*
G75*
G03*
X93626800Y-113173246I47J-250000D01*
G01*
X92500000Y-109872793D02*
G75*
G02*
X92646451Y-109519243I500000J-7D01*
G01*
X93523224Y-113276776D02*
G75*
G03*
X93449967Y-113453553I176776J-176824D01*
G01*
X94146446Y-111146446D02*
G75*
G03*
X93792893Y-111000005I-353546J-353554D01*
G01*
X94300000Y-112696447D02*
G75*
G02*
X94226754Y-112873200I-250000J47D01*
G01*
X93507107Y-111000000D02*
G75*
G02*
X93153550Y-110853556I-7J500000D01*
G01*
X93896447Y-113100000D02*
G75*
G03*
X94073201Y-113026753I-47J250000D01*
G01*
X92646446Y-110346446D02*
G75*
G02*
X92500005Y-109992893I353554J353546D01*
G01*
%TO.N,Net-(RN4-R2.1)*%
X89122893Y-108222893D02*
X90107107Y-109207107D01*
X86430000Y-107930000D02*
X88415786Y-107930000D01*
X91827207Y-109207107D02*
X92580761Y-108453553D01*
X90814214Y-109500000D02*
X91120100Y-109500000D01*
X90814214Y-109500000D02*
G75*
G02*
X90107100Y-109207114I-14J1000000D01*
G01*
X89122893Y-108222893D02*
G75*
G03*
X88415786Y-107930010I-707093J-707107D01*
G01*
X91120100Y-109500000D02*
G75*
G03*
X91827207Y-109207107I0J1000000D01*
G01*
%TO.N,Net-(J6-Pin_1)*%
X94984924Y-108312132D02*
X95150610Y-108146446D01*
X95504163Y-108000000D02*
X95692893Y-108000000D01*
X96046447Y-108146447D02*
X96603554Y-108703554D01*
X96957107Y-108850000D02*
X98150000Y-108850000D01*
X95504163Y-108000000D02*
G75*
G03*
X95150629Y-108146465I37J-500000D01*
G01*
X96957107Y-108850000D02*
G75*
G02*
X96603551Y-108703557I-7J500000D01*
G01*
X95692893Y-108000000D02*
G75*
G02*
X96046450Y-108146444I7J-500000D01*
G01*
%TO.N,Net-(J6-Pin_6)*%
X93287868Y-106615076D02*
X93406498Y-106496446D01*
X93760051Y-106350000D02*
X98150000Y-106350000D01*
X93760051Y-106350000D02*
G75*
G03*
X93406523Y-106496471I49J-500000D01*
G01*
%TO.N,Net-(J6-Pin_19)*%
X97426404Y-99850000D02*
X98150000Y-99850000D01*
X93100000Y-95300000D02*
X93185786Y-95300000D01*
X95192893Y-98030703D02*
X96719297Y-99557107D01*
X94900000Y-97014214D02*
X94900000Y-97323596D01*
X93892893Y-95592893D02*
X94607107Y-96307107D01*
X96719297Y-99557107D02*
G75*
G03*
X97426404Y-99849997I707103J707107D01*
G01*
X94607107Y-96307107D02*
G75*
G02*
X94899990Y-97014214I-707107J-707093D01*
G01*
X93892893Y-95592893D02*
G75*
G03*
X93185786Y-95300010I-707093J-707107D01*
G01*
X95192893Y-98030703D02*
G75*
G02*
X94900003Y-97323596I707107J707103D01*
G01*
%TO.N,Net-(J6-Pin_11)*%
X94842893Y-102642893D02*
X95757107Y-103557107D01*
X93100000Y-102350000D02*
X94135786Y-102350000D01*
X96464214Y-103850000D02*
X98150000Y-103850000D01*
X96464214Y-103850000D02*
G75*
G02*
X95757100Y-103557114I-14J1000000D01*
G01*
X94135786Y-102350000D02*
G75*
G02*
X94842900Y-102642886I14J-1000000D01*
G01*
%TO.N,Net-(J6-Pin_4)*%
X96857107Y-107350000D02*
X98150000Y-107350000D01*
X94343503Y-106897918D02*
X95990811Y-106897918D01*
X96344365Y-107044365D02*
X96503554Y-107203554D01*
X93853553Y-107180761D02*
X93989950Y-107044364D01*
X96857107Y-107350000D02*
G75*
G02*
X96503551Y-107203557I-7J500000D01*
G01*
X95990811Y-106897918D02*
G75*
G02*
X96344356Y-107044374I-11J-499982D01*
G01*
X93989950Y-107044364D02*
G75*
G02*
X94343503Y-106897915I353550J-353536D01*
G01*
%TO.N,Net-(J6-Pin_7)*%
X93100000Y-104750000D02*
X94735786Y-104750000D01*
X96664214Y-105850000D02*
X98150000Y-105850000D01*
X95442893Y-105042893D02*
X95957107Y-105557107D01*
X95957107Y-105557107D02*
G75*
G03*
X96664214Y-105849990I707093J707107D01*
G01*
X95442893Y-105042893D02*
G75*
G03*
X94735786Y-104750010I-707093J-707107D01*
G01*
%TO.N,Net-(J6-Pin_2)*%
X97057107Y-108350000D02*
X98150000Y-108350000D01*
X94419239Y-107746447D02*
X94555636Y-107610050D01*
X96110051Y-107610051D02*
X96703554Y-108203554D01*
X94909189Y-107463604D02*
X95756497Y-107463604D01*
X94555636Y-107610050D02*
G75*
G02*
X94909189Y-107463595I353564J-353550D01*
G01*
X96110051Y-107610051D02*
G75*
G03*
X95756497Y-107463605I-353551J-353549D01*
G01*
X96703554Y-108203554D02*
G75*
G03*
X97057107Y-108349995I353546J353554D01*
G01*
%TO.N,Net-(J6-Pin_9)*%
X95542893Y-104242893D02*
X95857107Y-104557107D01*
X96564214Y-104850000D02*
X98150000Y-104850000D01*
X93100000Y-103950000D02*
X94835786Y-103950000D01*
X95542893Y-104242893D02*
G75*
G03*
X94835786Y-103950010I-707093J-707107D01*
G01*
X95857107Y-104557107D02*
G75*
G03*
X96564214Y-104849990I707093J707107D01*
G01*
D25*
%TO.N,GND*%
X99649999Y-106850001D02*
X99800000Y-106700000D01*
X98150000Y-106850001D02*
X99649999Y-106850001D01*
X99749999Y-107849999D02*
X99800000Y-107900000D01*
X98150000Y-107849999D02*
X99749999Y-107849999D01*
%TD*%
M02*
