%TF.GenerationSoftware,KiCad,Pcbnew,9.0.4*%
%TF.CreationDate,2025-09-07T07:02:52-04:00*%
%TF.ProjectId,flex_partial,666c6578-5f70-4617-9274-69616c2e6b69,v20231105*%
%TF.SameCoordinates,Original*%
%TF.FileFunction,Legend,Bot*%
%TF.FilePolarity,Positive*%
%FSLAX46Y46*%
G04 Gerber Fmt 4.6, Leading zero omitted, Abs format (unit mm)*
G04 Created by KiCad (PCBNEW 9.0.4) date 2025-09-07 07:02:52*
%MOMM*%
%LPD*%
G01*
G04 APERTURE LIST*
%ADD10C,0.200000*%
%ADD11C,0.152400*%
%ADD12C,0.190500*%
%ADD13C,0.150000*%
%ADD14C,0.266700*%
%ADD15C,0.010000*%
G04 APERTURE END LIST*
D10*
X102333163Y-92971192D02*
X102333163Y-94514901D01*
X103055217Y-91191941D02*
X102300000Y-91500000D01*
X103055217Y-91191941D02*
X102360397Y-90965285D01*
X100487356Y-92243170D02*
X100487356Y-95273213D01*
X101221444Y-90536244D02*
X100523622Y-90291585D01*
X99735122Y-94962045D02*
X100487356Y-95273213D01*
X99735122Y-93113175D02*
X99735122Y-93898628D01*
X99735122Y-93898628D02*
X99735122Y-94962045D01*
X101103631Y-91844378D02*
X101287909Y-91916954D01*
X100496428Y-91599659D02*
X99958709Y-91820157D01*
X101287909Y-91950159D02*
X101287909Y-93466635D01*
X99816620Y-91672135D02*
X99816620Y-90533291D01*
X100496428Y-90802079D02*
X101103631Y-91844378D01*
X102360397Y-90965285D02*
X101641350Y-91234162D01*
D11*
X86803834Y-95052211D02*
X86803835Y-90480212D01*
D10*
X103055216Y-94218878D02*
X103055217Y-91191941D01*
X101236441Y-94965150D02*
X102333163Y-92971192D01*
X102300000Y-91500000D02*
X101641350Y-91234162D01*
X99707879Y-91922912D02*
X98686747Y-93369981D01*
X100523622Y-90291585D02*
X99816620Y-90533291D01*
X98686747Y-91505970D02*
X99393751Y-91237179D01*
X98647475Y-94518006D02*
X99735122Y-93113175D01*
X99393751Y-91237179D02*
X99958709Y-91820157D01*
X102333163Y-94514901D02*
X103055216Y-94218878D01*
X102333163Y-94514901D02*
X101641350Y-94230913D01*
X101287909Y-91950159D02*
X101623197Y-91270329D01*
X101641350Y-94230913D02*
X102333163Y-92971192D01*
D11*
X99503834Y-95306213D02*
X87057835Y-95306213D01*
X87057835Y-95306213D02*
X86803834Y-95052211D01*
D10*
X99816620Y-90533291D02*
X100496428Y-90802079D01*
X97922459Y-91191942D02*
X97922459Y-94218878D01*
D11*
X86803835Y-90480212D02*
X87057834Y-90226212D01*
D10*
X101287909Y-91916954D02*
X100496428Y-91599659D01*
X101287909Y-93466635D02*
X102300000Y-91500000D01*
X101623197Y-91270329D02*
X101221444Y-90536244D01*
X100487356Y-95273213D02*
X101236441Y-94965150D01*
X101287909Y-91916954D02*
X101287909Y-91950159D01*
X100496428Y-90802079D02*
X101221444Y-90536244D01*
X97922459Y-94218878D02*
X98647475Y-94518006D01*
X99735122Y-93898628D02*
X99487291Y-94227950D01*
X98686747Y-91505970D02*
X97922459Y-91191942D01*
X98647475Y-90928976D02*
X97922459Y-91191942D01*
X100496428Y-91599659D02*
X99707879Y-91922912D01*
X99958709Y-91820157D02*
X99707879Y-91922912D01*
X99393751Y-91237179D02*
X98647475Y-90928976D01*
X99487291Y-94227950D02*
X98647475Y-94518006D01*
X101103631Y-91844378D02*
X100496428Y-91599659D01*
D11*
X87057834Y-90226212D02*
X99630835Y-90226212D01*
D10*
X98686747Y-93369981D02*
X98686747Y-91505970D01*
X101641350Y-91234162D02*
X101287909Y-91950159D01*
X100487356Y-92243170D02*
X99707879Y-91922912D01*
X101287909Y-91916954D02*
X100487356Y-92243170D01*
D12*
X96886886Y-94220767D02*
X96372839Y-94220767D01*
X96989696Y-94529195D02*
X96629863Y-93449695D01*
X96629863Y-93449695D02*
X96270029Y-94529195D01*
X95447553Y-94529195D02*
X95447553Y-93449695D01*
X95447553Y-94477791D02*
X95550362Y-94529195D01*
X95550362Y-94529195D02*
X95755981Y-94529195D01*
X95755981Y-94529195D02*
X95858791Y-94477791D01*
X95858791Y-94477791D02*
X95910196Y-94426386D01*
X95910196Y-94426386D02*
X95961600Y-94323576D01*
X95961600Y-94323576D02*
X95961600Y-94015148D01*
X95961600Y-94015148D02*
X95910196Y-93912338D01*
X95910196Y-93912338D02*
X95858791Y-93860933D01*
X95858791Y-93860933D02*
X95755981Y-93809529D01*
X95755981Y-93809529D02*
X95550362Y-93809529D01*
X95550362Y-93809529D02*
X95447553Y-93860933D01*
X95036315Y-93809529D02*
X94779291Y-94529195D01*
X94779291Y-94529195D02*
X94522268Y-93809529D01*
X93648387Y-94529195D02*
X93648387Y-93963743D01*
X93648387Y-93963743D02*
X93699792Y-93860933D01*
X93699792Y-93860933D02*
X93802601Y-93809529D01*
X93802601Y-93809529D02*
X94008220Y-93809529D01*
X94008220Y-93809529D02*
X94111030Y-93860933D01*
X93648387Y-94477791D02*
X93751196Y-94529195D01*
X93751196Y-94529195D02*
X94008220Y-94529195D01*
X94008220Y-94529195D02*
X94111030Y-94477791D01*
X94111030Y-94477791D02*
X94162434Y-94374981D01*
X94162434Y-94374981D02*
X94162434Y-94272171D01*
X94162434Y-94272171D02*
X94111030Y-94169362D01*
X94111030Y-94169362D02*
X94008220Y-94117957D01*
X94008220Y-94117957D02*
X93751196Y-94117957D01*
X93751196Y-94117957D02*
X93648387Y-94066552D01*
X93134340Y-93809529D02*
X93134340Y-94529195D01*
X93134340Y-93912338D02*
X93082935Y-93860933D01*
X93082935Y-93860933D02*
X92980125Y-93809529D01*
X92980125Y-93809529D02*
X92825911Y-93809529D01*
X92825911Y-93809529D02*
X92723102Y-93860933D01*
X92723102Y-93860933D02*
X92671697Y-93963743D01*
X92671697Y-93963743D02*
X92671697Y-94529195D01*
X91695007Y-94477791D02*
X91797816Y-94529195D01*
X91797816Y-94529195D02*
X92003435Y-94529195D01*
X92003435Y-94529195D02*
X92106245Y-94477791D01*
X92106245Y-94477791D02*
X92157650Y-94426386D01*
X92157650Y-94426386D02*
X92209054Y-94323576D01*
X92209054Y-94323576D02*
X92209054Y-94015148D01*
X92209054Y-94015148D02*
X92157650Y-93912338D01*
X92157650Y-93912338D02*
X92106245Y-93860933D01*
X92106245Y-93860933D02*
X92003435Y-93809529D01*
X92003435Y-93809529D02*
X91797816Y-93809529D01*
X91797816Y-93809529D02*
X91695007Y-93860933D01*
X90821126Y-94477791D02*
X90923935Y-94529195D01*
X90923935Y-94529195D02*
X91129554Y-94529195D01*
X91129554Y-94529195D02*
X91232364Y-94477791D01*
X91232364Y-94477791D02*
X91283768Y-94374981D01*
X91283768Y-94374981D02*
X91283768Y-93963743D01*
X91283768Y-93963743D02*
X91232364Y-93860933D01*
X91232364Y-93860933D02*
X91129554Y-93809529D01*
X91129554Y-93809529D02*
X90923935Y-93809529D01*
X90923935Y-93809529D02*
X90821126Y-93860933D01*
X90821126Y-93860933D02*
X90769721Y-93963743D01*
X90769721Y-93963743D02*
X90769721Y-94066552D01*
X90769721Y-94066552D02*
X91283768Y-94169362D01*
X89844435Y-94529195D02*
X89844435Y-93449695D01*
X89844435Y-94477791D02*
X89947244Y-94529195D01*
X89947244Y-94529195D02*
X90152863Y-94529195D01*
X90152863Y-94529195D02*
X90255673Y-94477791D01*
X90255673Y-94477791D02*
X90307078Y-94426386D01*
X90307078Y-94426386D02*
X90358482Y-94323576D01*
X90358482Y-94323576D02*
X90358482Y-94015148D01*
X90358482Y-94015148D02*
X90307078Y-93912338D01*
X90307078Y-93912338D02*
X90255673Y-93860933D01*
X90255673Y-93860933D02*
X90152863Y-93809529D01*
X90152863Y-93809529D02*
X89947244Y-93809529D01*
X89947244Y-93809529D02*
X89844435Y-93860933D01*
X89484602Y-93449695D02*
X89124769Y-94529195D01*
X89124769Y-94529195D02*
X88764935Y-93449695D01*
X88456506Y-93552505D02*
X88405102Y-93501100D01*
X88405102Y-93501100D02*
X88302292Y-93449695D01*
X88302292Y-93449695D02*
X88045268Y-93449695D01*
X88045268Y-93449695D02*
X87942459Y-93501100D01*
X87942459Y-93501100D02*
X87891054Y-93552505D01*
X87891054Y-93552505D02*
X87839649Y-93655314D01*
X87839649Y-93655314D02*
X87839649Y-93758124D01*
X87839649Y-93758124D02*
X87891054Y-93912338D01*
X87891054Y-93912338D02*
X88507911Y-94529195D01*
X88507911Y-94529195D02*
X87839649Y-94529195D01*
D13*
X92599999Y-109961682D02*
X92219047Y-109961682D01*
X92219047Y-109961682D02*
X92219047Y-110761682D01*
X92866666Y-109961682D02*
X92866666Y-110495016D01*
X92866666Y-110761682D02*
X92828570Y-110723587D01*
X92828570Y-110723587D02*
X92866666Y-110685492D01*
X92866666Y-110685492D02*
X92904761Y-110723587D01*
X92904761Y-110723587D02*
X92866666Y-110761682D01*
X92866666Y-110761682D02*
X92866666Y-110685492D01*
X93590475Y-109999778D02*
X93514284Y-109961682D01*
X93514284Y-109961682D02*
X93361903Y-109961682D01*
X93361903Y-109961682D02*
X93285713Y-109999778D01*
X93285713Y-109999778D02*
X93247618Y-110037873D01*
X93247618Y-110037873D02*
X93209522Y-110114063D01*
X93209522Y-110114063D02*
X93209522Y-110342635D01*
X93209522Y-110342635D02*
X93247618Y-110418825D01*
X93247618Y-110418825D02*
X93285713Y-110456920D01*
X93285713Y-110456920D02*
X93361903Y-110495016D01*
X93361903Y-110495016D02*
X93514284Y-110495016D01*
X93514284Y-110495016D02*
X93590475Y-110456920D01*
X94238094Y-109999778D02*
X94161903Y-109961682D01*
X94161903Y-109961682D02*
X94009522Y-109961682D01*
X94009522Y-109961682D02*
X93933332Y-109999778D01*
X93933332Y-109999778D02*
X93895236Y-110075968D01*
X93895236Y-110075968D02*
X93895236Y-110380730D01*
X93895236Y-110380730D02*
X93933332Y-110456920D01*
X93933332Y-110456920D02*
X94009522Y-110495016D01*
X94009522Y-110495016D02*
X94161903Y-110495016D01*
X94161903Y-110495016D02*
X94238094Y-110456920D01*
X94238094Y-110456920D02*
X94276189Y-110380730D01*
X94276189Y-110380730D02*
X94276189Y-110304539D01*
X94276189Y-110304539D02*
X93895236Y-110228349D01*
X94619046Y-110495016D02*
X94619046Y-109961682D01*
X94619046Y-110418825D02*
X94657141Y-110456920D01*
X94657141Y-110456920D02*
X94733331Y-110495016D01*
X94733331Y-110495016D02*
X94847617Y-110495016D01*
X94847617Y-110495016D02*
X94923808Y-110456920D01*
X94923808Y-110456920D02*
X94961903Y-110380730D01*
X94961903Y-110380730D02*
X94961903Y-109961682D01*
X95304760Y-109999778D02*
X95380951Y-109961682D01*
X95380951Y-109961682D02*
X95533332Y-109961682D01*
X95533332Y-109961682D02*
X95609522Y-109999778D01*
X95609522Y-109999778D02*
X95647618Y-110075968D01*
X95647618Y-110075968D02*
X95647618Y-110114063D01*
X95647618Y-110114063D02*
X95609522Y-110190254D01*
X95609522Y-110190254D02*
X95533332Y-110228349D01*
X95533332Y-110228349D02*
X95419046Y-110228349D01*
X95419046Y-110228349D02*
X95342856Y-110266444D01*
X95342856Y-110266444D02*
X95304760Y-110342635D01*
X95304760Y-110342635D02*
X95304760Y-110380730D01*
X95304760Y-110380730D02*
X95342856Y-110456920D01*
X95342856Y-110456920D02*
X95419046Y-110495016D01*
X95419046Y-110495016D02*
X95533332Y-110495016D01*
X95533332Y-110495016D02*
X95609522Y-110456920D01*
X96295237Y-109999778D02*
X96219046Y-109961682D01*
X96219046Y-109961682D02*
X96066665Y-109961682D01*
X96066665Y-109961682D02*
X95990475Y-109999778D01*
X95990475Y-109999778D02*
X95952379Y-110075968D01*
X95952379Y-110075968D02*
X95952379Y-110380730D01*
X95952379Y-110380730D02*
X95990475Y-110456920D01*
X95990475Y-110456920D02*
X96066665Y-110495016D01*
X96066665Y-110495016D02*
X96219046Y-110495016D01*
X96219046Y-110495016D02*
X96295237Y-110456920D01*
X96295237Y-110456920D02*
X96333332Y-110380730D01*
X96333332Y-110380730D02*
X96333332Y-110304539D01*
X96333332Y-110304539D02*
X95952379Y-110228349D01*
X97019046Y-109961682D02*
X97019046Y-110761682D01*
X97019046Y-109999778D02*
X96942855Y-109961682D01*
X96942855Y-109961682D02*
X96790474Y-109961682D01*
X96790474Y-109961682D02*
X96714284Y-109999778D01*
X96714284Y-109999778D02*
X96676189Y-110037873D01*
X96676189Y-110037873D02*
X96638093Y-110114063D01*
X96638093Y-110114063D02*
X96638093Y-110342635D01*
X96638093Y-110342635D02*
X96676189Y-110418825D01*
X96676189Y-110418825D02*
X96714284Y-110456920D01*
X96714284Y-110456920D02*
X96790474Y-110495016D01*
X96790474Y-110495016D02*
X96942855Y-110495016D01*
X96942855Y-110495016D02*
X97019046Y-110456920D01*
X98352380Y-110495016D02*
X98352380Y-109961682D01*
X98009523Y-110495016D02*
X98009523Y-110075968D01*
X98009523Y-110075968D02*
X98047618Y-109999778D01*
X98047618Y-109999778D02*
X98123808Y-109961682D01*
X98123808Y-109961682D02*
X98238094Y-109961682D01*
X98238094Y-109961682D02*
X98314285Y-109999778D01*
X98314285Y-109999778D02*
X98352380Y-110037873D01*
X98733333Y-110495016D02*
X98733333Y-109961682D01*
X98733333Y-110418825D02*
X98771428Y-110456920D01*
X98771428Y-110456920D02*
X98847618Y-110495016D01*
X98847618Y-110495016D02*
X98961904Y-110495016D01*
X98961904Y-110495016D02*
X99038095Y-110456920D01*
X99038095Y-110456920D02*
X99076190Y-110380730D01*
X99076190Y-110380730D02*
X99076190Y-109961682D01*
X99800000Y-109961682D02*
X99800000Y-110761682D01*
X99800000Y-109999778D02*
X99723809Y-109961682D01*
X99723809Y-109961682D02*
X99571428Y-109961682D01*
X99571428Y-109961682D02*
X99495238Y-109999778D01*
X99495238Y-109999778D02*
X99457143Y-110037873D01*
X99457143Y-110037873D02*
X99419047Y-110114063D01*
X99419047Y-110114063D02*
X99419047Y-110342635D01*
X99419047Y-110342635D02*
X99457143Y-110418825D01*
X99457143Y-110418825D02*
X99495238Y-110456920D01*
X99495238Y-110456920D02*
X99571428Y-110495016D01*
X99571428Y-110495016D02*
X99723809Y-110495016D01*
X99723809Y-110495016D02*
X99800000Y-110456920D01*
X100485715Y-109999778D02*
X100409524Y-109961682D01*
X100409524Y-109961682D02*
X100257143Y-109961682D01*
X100257143Y-109961682D02*
X100180953Y-109999778D01*
X100180953Y-109999778D02*
X100142857Y-110075968D01*
X100142857Y-110075968D02*
X100142857Y-110380730D01*
X100142857Y-110380730D02*
X100180953Y-110456920D01*
X100180953Y-110456920D02*
X100257143Y-110495016D01*
X100257143Y-110495016D02*
X100409524Y-110495016D01*
X100409524Y-110495016D02*
X100485715Y-110456920D01*
X100485715Y-110456920D02*
X100523810Y-110380730D01*
X100523810Y-110380730D02*
X100523810Y-110304539D01*
X100523810Y-110304539D02*
X100142857Y-110228349D01*
X100866667Y-109961682D02*
X100866667Y-110495016D01*
X100866667Y-110342635D02*
X100904762Y-110418825D01*
X100904762Y-110418825D02*
X100942857Y-110456920D01*
X100942857Y-110456920D02*
X101019048Y-110495016D01*
X101019048Y-110495016D02*
X101095238Y-110495016D01*
X92066667Y-108749918D02*
X92028571Y-108711823D01*
X92028571Y-108711823D02*
X91914286Y-108673727D01*
X91914286Y-108673727D02*
X91838095Y-108673727D01*
X91838095Y-108673727D02*
X91723809Y-108711823D01*
X91723809Y-108711823D02*
X91647619Y-108788013D01*
X91647619Y-108788013D02*
X91609524Y-108864203D01*
X91609524Y-108864203D02*
X91571428Y-109016584D01*
X91571428Y-109016584D02*
X91571428Y-109130870D01*
X91571428Y-109130870D02*
X91609524Y-109283251D01*
X91609524Y-109283251D02*
X91647619Y-109359442D01*
X91647619Y-109359442D02*
X91723809Y-109435632D01*
X91723809Y-109435632D02*
X91838095Y-109473727D01*
X91838095Y-109473727D02*
X91914286Y-109473727D01*
X91914286Y-109473727D02*
X92028571Y-109435632D01*
X92028571Y-109435632D02*
X92066667Y-109397537D01*
X92409524Y-109092775D02*
X92676190Y-109092775D01*
X92790476Y-108673727D02*
X92409524Y-108673727D01*
X92409524Y-108673727D02*
X92409524Y-109473727D01*
X92409524Y-109473727D02*
X92790476Y-109473727D01*
X93590477Y-108673727D02*
X93323810Y-109054680D01*
X93133334Y-108673727D02*
X93133334Y-109473727D01*
X93133334Y-109473727D02*
X93438096Y-109473727D01*
X93438096Y-109473727D02*
X93514286Y-109435632D01*
X93514286Y-109435632D02*
X93552381Y-109397537D01*
X93552381Y-109397537D02*
X93590477Y-109321346D01*
X93590477Y-109321346D02*
X93590477Y-109207061D01*
X93590477Y-109207061D02*
X93552381Y-109130870D01*
X93552381Y-109130870D02*
X93514286Y-109092775D01*
X93514286Y-109092775D02*
X93438096Y-109054680D01*
X93438096Y-109054680D02*
X93133334Y-109054680D01*
X93933334Y-108673727D02*
X93933334Y-109473727D01*
X93933334Y-109473727D02*
X94390477Y-108673727D01*
X94390477Y-108673727D02*
X94390477Y-109473727D01*
X94771429Y-108978489D02*
X95380953Y-108978489D01*
X95914286Y-109473727D02*
X96066667Y-109473727D01*
X96066667Y-109473727D02*
X96142857Y-109435632D01*
X96142857Y-109435632D02*
X96219048Y-109359442D01*
X96219048Y-109359442D02*
X96257143Y-109207061D01*
X96257143Y-109207061D02*
X96257143Y-108940394D01*
X96257143Y-108940394D02*
X96219048Y-108788013D01*
X96219048Y-108788013D02*
X96142857Y-108711823D01*
X96142857Y-108711823D02*
X96066667Y-108673727D01*
X96066667Y-108673727D02*
X95914286Y-108673727D01*
X95914286Y-108673727D02*
X95838095Y-108711823D01*
X95838095Y-108711823D02*
X95761905Y-108788013D01*
X95761905Y-108788013D02*
X95723809Y-108940394D01*
X95723809Y-108940394D02*
X95723809Y-109207061D01*
X95723809Y-109207061D02*
X95761905Y-109359442D01*
X95761905Y-109359442D02*
X95838095Y-109435632D01*
X95838095Y-109435632D02*
X95914286Y-109473727D01*
X96600000Y-108673727D02*
X96600000Y-109473727D01*
X96600000Y-109092775D02*
X97057143Y-109092775D01*
X97057143Y-108673727D02*
X97057143Y-109473727D01*
X97819047Y-108673727D02*
X97438095Y-108673727D01*
X97438095Y-108673727D02*
X97438095Y-109473727D01*
X98085714Y-108978489D02*
X98695238Y-108978489D01*
X98999999Y-109473727D02*
X99190475Y-108673727D01*
X99190475Y-108673727D02*
X99342856Y-109245156D01*
X99342856Y-109245156D02*
X99495237Y-108673727D01*
X99495237Y-108673727D02*
X99685714Y-109473727D01*
X100523809Y-109207061D02*
X100714285Y-108673727D01*
X100714285Y-108673727D02*
X100904762Y-109207061D01*
X101171428Y-109397537D02*
X101209524Y-109435632D01*
X101209524Y-109435632D02*
X101285714Y-109473727D01*
X101285714Y-109473727D02*
X101476190Y-109473727D01*
X101476190Y-109473727D02*
X101552381Y-109435632D01*
X101552381Y-109435632D02*
X101590476Y-109397537D01*
X101590476Y-109397537D02*
X101628571Y-109321346D01*
X101628571Y-109321346D02*
X101628571Y-109245156D01*
X101628571Y-109245156D02*
X101590476Y-109130870D01*
X101590476Y-109130870D02*
X101133333Y-108673727D01*
X101133333Y-108673727D02*
X101628571Y-108673727D01*
X103034673Y-96654507D02*
X103034673Y-95854507D01*
X103034673Y-96159269D02*
X102958483Y-96121173D01*
X102958483Y-96121173D02*
X102806102Y-96121173D01*
X102806102Y-96121173D02*
X102729911Y-96159269D01*
X102729911Y-96159269D02*
X102691816Y-96197364D01*
X102691816Y-96197364D02*
X102653721Y-96273554D01*
X102653721Y-96273554D02*
X102653721Y-96502126D01*
X102653721Y-96502126D02*
X102691816Y-96578316D01*
X102691816Y-96578316D02*
X102729911Y-96616412D01*
X102729911Y-96616412D02*
X102806102Y-96654507D01*
X102806102Y-96654507D02*
X102958483Y-96654507D01*
X102958483Y-96654507D02*
X103034673Y-96616412D01*
X102196578Y-96654507D02*
X102272768Y-96616412D01*
X102272768Y-96616412D02*
X102310863Y-96578316D01*
X102310863Y-96578316D02*
X102348959Y-96502126D01*
X102348959Y-96502126D02*
X102348959Y-96273554D01*
X102348959Y-96273554D02*
X102310863Y-96197364D01*
X102310863Y-96197364D02*
X102272768Y-96159269D01*
X102272768Y-96159269D02*
X102196578Y-96121173D01*
X102196578Y-96121173D02*
X102082292Y-96121173D01*
X102082292Y-96121173D02*
X102006101Y-96159269D01*
X102006101Y-96159269D02*
X101968006Y-96197364D01*
X101968006Y-96197364D02*
X101929911Y-96273554D01*
X101929911Y-96273554D02*
X101929911Y-96502126D01*
X101929911Y-96502126D02*
X101968006Y-96578316D01*
X101968006Y-96578316D02*
X102006101Y-96616412D01*
X102006101Y-96616412D02*
X102082292Y-96654507D01*
X102082292Y-96654507D02*
X102196578Y-96654507D01*
X101587053Y-96654507D02*
X101587053Y-96121173D01*
X101587053Y-96273554D02*
X101548958Y-96197364D01*
X101548958Y-96197364D02*
X101510863Y-96159269D01*
X101510863Y-96159269D02*
X101434672Y-96121173D01*
X101434672Y-96121173D02*
X101358482Y-96121173D01*
X101206101Y-96121173D02*
X100901339Y-96121173D01*
X101091815Y-95854507D02*
X101091815Y-96540221D01*
X101091815Y-96540221D02*
X101053720Y-96616412D01*
X101053720Y-96616412D02*
X100977530Y-96654507D01*
X100977530Y-96654507D02*
X100901339Y-96654507D01*
X100634672Y-96654507D02*
X100634672Y-96121173D01*
X100634672Y-95854507D02*
X100672768Y-95892602D01*
X100672768Y-95892602D02*
X100634672Y-95930697D01*
X100634672Y-95930697D02*
X100596577Y-95892602D01*
X100596577Y-95892602D02*
X100634672Y-95854507D01*
X100634672Y-95854507D02*
X100634672Y-95930697D01*
X99910863Y-96121173D02*
X99910863Y-96654507D01*
X100101339Y-95816412D02*
X100291816Y-96387840D01*
X100291816Y-96387840D02*
X99796577Y-96387840D01*
X99453720Y-96654507D02*
X99301339Y-96654507D01*
X99301339Y-96654507D02*
X99225149Y-96616412D01*
X99225149Y-96616412D02*
X99187053Y-96578316D01*
X99187053Y-96578316D02*
X99110863Y-96464031D01*
X99110863Y-96464031D02*
X99072768Y-96311650D01*
X99072768Y-96311650D02*
X99072768Y-96006888D01*
X99072768Y-96006888D02*
X99110863Y-95930697D01*
X99110863Y-95930697D02*
X99148958Y-95892602D01*
X99148958Y-95892602D02*
X99225149Y-95854507D01*
X99225149Y-95854507D02*
X99377530Y-95854507D01*
X99377530Y-95854507D02*
X99453720Y-95892602D01*
X99453720Y-95892602D02*
X99491815Y-95930697D01*
X99491815Y-95930697D02*
X99529911Y-96006888D01*
X99529911Y-96006888D02*
X99529911Y-96197364D01*
X99529911Y-96197364D02*
X99491815Y-96273554D01*
X99491815Y-96273554D02*
X99453720Y-96311650D01*
X99453720Y-96311650D02*
X99377530Y-96349745D01*
X99377530Y-96349745D02*
X99225149Y-96349745D01*
X99225149Y-96349745D02*
X99148958Y-96311650D01*
X99148958Y-96311650D02*
X99110863Y-96273554D01*
X99110863Y-96273554D02*
X99072768Y-96197364D01*
X98806101Y-95854507D02*
X98310863Y-95854507D01*
X98310863Y-95854507D02*
X98577529Y-96159269D01*
X98577529Y-96159269D02*
X98463244Y-96159269D01*
X98463244Y-96159269D02*
X98387053Y-96197364D01*
X98387053Y-96197364D02*
X98348958Y-96235459D01*
X98348958Y-96235459D02*
X98310863Y-96311650D01*
X98310863Y-96311650D02*
X98310863Y-96502126D01*
X98310863Y-96502126D02*
X98348958Y-96578316D01*
X98348958Y-96578316D02*
X98387053Y-96616412D01*
X98387053Y-96616412D02*
X98463244Y-96654507D01*
X98463244Y-96654507D02*
X98691815Y-96654507D01*
X98691815Y-96654507D02*
X98768006Y-96616412D01*
X98768006Y-96616412D02*
X98806101Y-96578316D01*
X97853720Y-96197364D02*
X97929910Y-96159269D01*
X97929910Y-96159269D02*
X97968005Y-96121173D01*
X97968005Y-96121173D02*
X98006101Y-96044983D01*
X98006101Y-96044983D02*
X98006101Y-96006888D01*
X98006101Y-96006888D02*
X97968005Y-95930697D01*
X97968005Y-95930697D02*
X97929910Y-95892602D01*
X97929910Y-95892602D02*
X97853720Y-95854507D01*
X97853720Y-95854507D02*
X97701339Y-95854507D01*
X97701339Y-95854507D02*
X97625148Y-95892602D01*
X97625148Y-95892602D02*
X97587053Y-95930697D01*
X97587053Y-95930697D02*
X97548958Y-96006888D01*
X97548958Y-96006888D02*
X97548958Y-96044983D01*
X97548958Y-96044983D02*
X97587053Y-96121173D01*
X97587053Y-96121173D02*
X97625148Y-96159269D01*
X97625148Y-96159269D02*
X97701339Y-96197364D01*
X97701339Y-96197364D02*
X97853720Y-96197364D01*
X97853720Y-96197364D02*
X97929910Y-96235459D01*
X97929910Y-96235459D02*
X97968005Y-96273554D01*
X97968005Y-96273554D02*
X98006101Y-96349745D01*
X98006101Y-96349745D02*
X98006101Y-96502126D01*
X98006101Y-96502126D02*
X97968005Y-96578316D01*
X97968005Y-96578316D02*
X97929910Y-96616412D01*
X97929910Y-96616412D02*
X97853720Y-96654507D01*
X97853720Y-96654507D02*
X97701339Y-96654507D01*
X97701339Y-96654507D02*
X97625148Y-96616412D01*
X97625148Y-96616412D02*
X97587053Y-96578316D01*
X97587053Y-96578316D02*
X97548958Y-96502126D01*
X97548958Y-96502126D02*
X97548958Y-96349745D01*
X97548958Y-96349745D02*
X97587053Y-96273554D01*
X97587053Y-96273554D02*
X97625148Y-96235459D01*
X97625148Y-96235459D02*
X97701339Y-96197364D01*
X96787053Y-96730697D02*
X96177529Y-96730697D01*
X96177529Y-96730697D02*
X95568005Y-96730697D01*
X94806100Y-95816412D02*
X95491814Y-96844983D01*
X94615624Y-96959269D02*
X94577529Y-96921173D01*
X94577529Y-96921173D02*
X94501338Y-96806888D01*
X94501338Y-96806888D02*
X94463243Y-96730697D01*
X94463243Y-96730697D02*
X94425148Y-96616412D01*
X94425148Y-96616412D02*
X94387052Y-96425935D01*
X94387052Y-96425935D02*
X94387052Y-96273554D01*
X94387052Y-96273554D02*
X94425148Y-96083078D01*
X94425148Y-96083078D02*
X94463243Y-95968792D01*
X94463243Y-95968792D02*
X94501338Y-95892602D01*
X94501338Y-95892602D02*
X94577529Y-95778316D01*
X94577529Y-95778316D02*
X94615624Y-95740221D01*
X94196577Y-96730697D02*
X93587053Y-96730697D01*
X93587053Y-96730697D02*
X92977529Y-96730697D01*
X92215624Y-95816412D02*
X92901338Y-96844983D01*
X92025148Y-96959269D02*
X91987053Y-96921173D01*
X91987053Y-96921173D02*
X91910862Y-96806888D01*
X91910862Y-96806888D02*
X91872767Y-96730697D01*
X91872767Y-96730697D02*
X91834672Y-96616412D01*
X91834672Y-96616412D02*
X91796576Y-96425935D01*
X91796576Y-96425935D02*
X91796576Y-96273554D01*
X91796576Y-96273554D02*
X91834672Y-96083078D01*
X91834672Y-96083078D02*
X91872767Y-95968792D01*
X91872767Y-95968792D02*
X91910862Y-95892602D01*
X91910862Y-95892602D02*
X91987053Y-95778316D01*
X91987053Y-95778316D02*
X92025148Y-95740221D01*
X91606101Y-96730697D02*
X90996577Y-96730697D01*
D14*
X96682540Y-92440388D02*
X96682540Y-90929088D01*
X96682540Y-90929088D02*
X95818940Y-92440388D01*
X95818940Y-92440388D02*
X95818940Y-90929088D01*
X94451573Y-90929088D02*
X94739440Y-90929088D01*
X94739440Y-90929088D02*
X94883373Y-91001055D01*
X94883373Y-91001055D02*
X94955340Y-91073022D01*
X94955340Y-91073022D02*
X95099273Y-91288922D01*
X95099273Y-91288922D02*
X95171240Y-91576788D01*
X95171240Y-91576788D02*
X95171240Y-92152522D01*
X95171240Y-92152522D02*
X95099273Y-92296455D01*
X95099273Y-92296455D02*
X95027307Y-92368422D01*
X95027307Y-92368422D02*
X94883373Y-92440388D01*
X94883373Y-92440388D02*
X94595507Y-92440388D01*
X94595507Y-92440388D02*
X94451573Y-92368422D01*
X94451573Y-92368422D02*
X94379607Y-92296455D01*
X94379607Y-92296455D02*
X94307640Y-92152522D01*
X94307640Y-92152522D02*
X94307640Y-91792688D01*
X94307640Y-91792688D02*
X94379607Y-91648755D01*
X94379607Y-91648755D02*
X94451573Y-91576788D01*
X94451573Y-91576788D02*
X94595507Y-91504822D01*
X94595507Y-91504822D02*
X94883373Y-91504822D01*
X94883373Y-91504822D02*
X95027307Y-91576788D01*
X95027307Y-91576788D02*
X95099273Y-91648755D01*
X95099273Y-91648755D02*
X95171240Y-91792688D01*
X93012240Y-91432855D02*
X93012240Y-92440388D01*
X93372074Y-90857122D02*
X93731907Y-91936622D01*
X93731907Y-91936622D02*
X92796340Y-91936622D01*
D15*
%TO.C,REF\u002A\u002A*%
X98209505Y-112953973D02*
X98243890Y-112985839D01*
X98254632Y-112994897D01*
X98286630Y-113010370D01*
X98326035Y-113010990D01*
X98379688Y-112997336D01*
X98397775Y-112996471D01*
X98418992Y-113009718D01*
X98447232Y-113041200D01*
X98460931Y-113058615D01*
X98477132Y-113083203D01*
X98479629Y-113098855D01*
X98470558Y-113112059D01*
X98442711Y-113128755D01*
X98399459Y-113141970D01*
X98352536Y-113148522D01*
X98312872Y-113146055D01*
X98282046Y-113136432D01*
X98244084Y-113120437D01*
X98225704Y-113111841D01*
X98212439Y-113110287D01*
X98209505Y-113122202D01*
X98209502Y-113122539D01*
X98203291Y-113133913D01*
X98181869Y-113139744D01*
X98140347Y-113141386D01*
X98071188Y-113141386D01*
X98071188Y-112537821D01*
X98209505Y-112537821D01*
X98209505Y-112953973D01*
G36*
X98209505Y-112953973D02*
G01*
X98243890Y-112985839D01*
X98254632Y-112994897D01*
X98286630Y-113010370D01*
X98326035Y-113010990D01*
X98379688Y-112997336D01*
X98397775Y-112996471D01*
X98418992Y-113009718D01*
X98447232Y-113041200D01*
X98460931Y-113058615D01*
X98477132Y-113083203D01*
X98479629Y-113098855D01*
X98470558Y-113112059D01*
X98442711Y-113128755D01*
X98399459Y-113141970D01*
X98352536Y-113148522D01*
X98312872Y-113146055D01*
X98282046Y-113136432D01*
X98244084Y-113120437D01*
X98225704Y-113111841D01*
X98212439Y-113110287D01*
X98209505Y-113122202D01*
X98209502Y-113122539D01*
X98203291Y-113133913D01*
X98181869Y-113139744D01*
X98140347Y-113141386D01*
X98071188Y-113141386D01*
X98071188Y-112537821D01*
X98209505Y-112537821D01*
X98209505Y-112953973D01*
G37*
X98058614Y-111782774D02*
X98058630Y-111794290D01*
X98059811Y-111875242D01*
X98062706Y-111941183D01*
X98067112Y-111988742D01*
X98072819Y-112014548D01*
X98078060Y-112024290D01*
X98110324Y-112054844D01*
X98154269Y-112068369D01*
X98202257Y-112062059D01*
X98214027Y-112057784D01*
X98239102Y-112050224D01*
X98256239Y-112052572D01*
X98273482Y-112067936D01*
X98298876Y-112099429D01*
X98340064Y-112151432D01*
X98311114Y-112174875D01*
X98283594Y-112188985D01*
X98235255Y-112198514D01*
X98180770Y-112198826D01*
X98129735Y-112190034D01*
X98091745Y-112172255D01*
X98058614Y-112146194D01*
X98058614Y-112172255D01*
X98057789Y-112182151D01*
X98050107Y-112192642D01*
X98029333Y-112197275D01*
X97989456Y-112198317D01*
X97920297Y-112198317D01*
X97920297Y-111582179D01*
X98058614Y-111582178D01*
X98058614Y-111782774D01*
G36*
X98058614Y-111782774D02*
G01*
X98058630Y-111794290D01*
X98059811Y-111875242D01*
X98062706Y-111941183D01*
X98067112Y-111988742D01*
X98072819Y-112014548D01*
X98078060Y-112024290D01*
X98110324Y-112054844D01*
X98154269Y-112068369D01*
X98202257Y-112062059D01*
X98214027Y-112057784D01*
X98239102Y-112050224D01*
X98256239Y-112052572D01*
X98273482Y-112067936D01*
X98298876Y-112099429D01*
X98340064Y-112151432D01*
X98311114Y-112174875D01*
X98283594Y-112188985D01*
X98235255Y-112198514D01*
X98180770Y-112198826D01*
X98129735Y-112190034D01*
X98091745Y-112172255D01*
X98058614Y-112146194D01*
X98058614Y-112172255D01*
X98057789Y-112182151D01*
X98050107Y-112192642D01*
X98029333Y-112197275D01*
X97989456Y-112198317D01*
X97920297Y-112198317D01*
X97920297Y-111582179D01*
X98058614Y-111582178D01*
X98058614Y-111782774D01*
G37*
X95631782Y-111776260D02*
X95631922Y-111821406D01*
X95633351Y-111896176D01*
X95636971Y-111951533D01*
X95643566Y-111991298D01*
X95653922Y-112019300D01*
X95668822Y-112039365D01*
X95689054Y-112055319D01*
X95711141Y-112067208D01*
X95737295Y-112070579D01*
X95774492Y-112063083D01*
X95786445Y-112059962D01*
X95816282Y-112055265D01*
X95837617Y-112061995D01*
X95862345Y-112082823D01*
X95867037Y-112087353D01*
X95892979Y-112115374D01*
X95909709Y-112138158D01*
X95912004Y-112143645D01*
X95907457Y-112163912D01*
X95884398Y-112180117D01*
X95848005Y-112191487D01*
X95803456Y-112197260D01*
X95755928Y-112196666D01*
X95710600Y-112188937D01*
X95672649Y-112173306D01*
X95660619Y-112166007D01*
X95640368Y-112155324D01*
X95632871Y-112157770D01*
X95631782Y-112173353D01*
X95631527Y-112178947D01*
X95625461Y-112191340D01*
X95606644Y-112196980D01*
X95568911Y-112198317D01*
X95506040Y-112198317D01*
X95506040Y-111582178D01*
X95631782Y-111582178D01*
X95631782Y-111776260D01*
G36*
X95631782Y-111776260D02*
G01*
X95631922Y-111821406D01*
X95633351Y-111896176D01*
X95636971Y-111951533D01*
X95643566Y-111991298D01*
X95653922Y-112019300D01*
X95668822Y-112039365D01*
X95689054Y-112055319D01*
X95711141Y-112067208D01*
X95737295Y-112070579D01*
X95774492Y-112063083D01*
X95786445Y-112059962D01*
X95816282Y-112055265D01*
X95837617Y-112061995D01*
X95862345Y-112082823D01*
X95867037Y-112087353D01*
X95892979Y-112115374D01*
X95909709Y-112138158D01*
X95912004Y-112143645D01*
X95907457Y-112163912D01*
X95884398Y-112180117D01*
X95848005Y-112191487D01*
X95803456Y-112197260D01*
X95755928Y-112196666D01*
X95710600Y-112188937D01*
X95672649Y-112173306D01*
X95660619Y-112166007D01*
X95640368Y-112155324D01*
X95632871Y-112157770D01*
X95631782Y-112173353D01*
X95631527Y-112178947D01*
X95625461Y-112191340D01*
X95606644Y-112196980D01*
X95568911Y-112198317D01*
X95506040Y-112198317D01*
X95506040Y-111582178D01*
X95631782Y-111582178D01*
X95631782Y-111776260D01*
G37*
X97772736Y-112550421D02*
X97801714Y-112564617D01*
X97816091Y-112566739D01*
X97819703Y-112556707D01*
X97825701Y-112545444D01*
X97847170Y-112539511D01*
X97888862Y-112537821D01*
X97958020Y-112537821D01*
X97958020Y-113141386D01*
X97819703Y-113141386D01*
X97819703Y-112945658D01*
X97818643Y-112857606D01*
X97814491Y-112786490D01*
X97806080Y-112734801D01*
X97792244Y-112699640D01*
X97771818Y-112678111D01*
X97743636Y-112667318D01*
X97706535Y-112664364D01*
X97671111Y-112667000D01*
X97642500Y-112677321D01*
X97621704Y-112698228D01*
X97607558Y-112732619D01*
X97598897Y-112783390D01*
X97594555Y-112853437D01*
X97593367Y-112945658D01*
X97593367Y-113141386D01*
X97467624Y-113141386D01*
X97467624Y-112905422D01*
X97467840Y-112842439D01*
X97469516Y-112760993D01*
X97473723Y-112698879D01*
X97481479Y-112652542D01*
X97493804Y-112618427D01*
X97511715Y-112592978D01*
X97536233Y-112572638D01*
X97568377Y-112553854D01*
X97635875Y-112530072D01*
X97706319Y-112528520D01*
X97772736Y-112550421D01*
G36*
X97772736Y-112550421D02*
G01*
X97801714Y-112564617D01*
X97816091Y-112566739D01*
X97819703Y-112556707D01*
X97825701Y-112545444D01*
X97847170Y-112539511D01*
X97888862Y-112537821D01*
X97958020Y-112537821D01*
X97958020Y-113141386D01*
X97819703Y-113141386D01*
X97819703Y-112945658D01*
X97818643Y-112857606D01*
X97814491Y-112786490D01*
X97806080Y-112734801D01*
X97792244Y-112699640D01*
X97771818Y-112678111D01*
X97743636Y-112667318D01*
X97706535Y-112664364D01*
X97671111Y-112667000D01*
X97642500Y-112677321D01*
X97621704Y-112698228D01*
X97607558Y-112732619D01*
X97598897Y-112783390D01*
X97594555Y-112853437D01*
X97593367Y-112945658D01*
X97593367Y-113141386D01*
X97467624Y-113141386D01*
X97467624Y-112905422D01*
X97467840Y-112842439D01*
X97469516Y-112760993D01*
X97473723Y-112698879D01*
X97481479Y-112652542D01*
X97493804Y-112618427D01*
X97511715Y-112592978D01*
X97536233Y-112572638D01*
X97568377Y-112553854D01*
X97635875Y-112530072D01*
X97706319Y-112528520D01*
X97772736Y-112550421D01*
G37*
X95619208Y-112745868D02*
X95619303Y-112816122D01*
X95619949Y-112873830D01*
X95621680Y-112914213D01*
X95625026Y-112941385D01*
X95630518Y-112959460D01*
X95638690Y-112972553D01*
X95650072Y-112984779D01*
X95665576Y-112997783D01*
X95710157Y-113015255D01*
X95756953Y-113010127D01*
X95799820Y-112982493D01*
X95812073Y-112969632D01*
X95820868Y-112956617D01*
X95826767Y-112939294D01*
X95830349Y-112913499D01*
X95832191Y-112875061D01*
X95832872Y-112819811D01*
X95832970Y-112743582D01*
X95832970Y-112537821D01*
X95971287Y-112537821D01*
X95971011Y-112761015D01*
X95970992Y-112770956D01*
X95969792Y-112865894D01*
X95966109Y-112939642D01*
X95958994Y-112995786D01*
X95947500Y-113037913D01*
X95930682Y-113069609D01*
X95907591Y-113094459D01*
X95877283Y-113116050D01*
X95845988Y-113130998D01*
X95782964Y-113144579D01*
X95717395Y-113142577D01*
X95660074Y-113124567D01*
X95634801Y-113112326D01*
X95622090Y-113111062D01*
X95619208Y-113122202D01*
X95619205Y-113122539D01*
X95612993Y-113133913D01*
X95591572Y-113139744D01*
X95550050Y-113141386D01*
X95480891Y-113141386D01*
X95480891Y-112537821D01*
X95619208Y-112537821D01*
X95619208Y-112745868D01*
G36*
X95619208Y-112745868D02*
G01*
X95619303Y-112816122D01*
X95619949Y-112873830D01*
X95621680Y-112914213D01*
X95625026Y-112941385D01*
X95630518Y-112959460D01*
X95638690Y-112972553D01*
X95650072Y-112984779D01*
X95665576Y-112997783D01*
X95710157Y-113015255D01*
X95756953Y-113010127D01*
X95799820Y-112982493D01*
X95812073Y-112969632D01*
X95820868Y-112956617D01*
X95826767Y-112939294D01*
X95830349Y-112913499D01*
X95832191Y-112875061D01*
X95832872Y-112819811D01*
X95832970Y-112743582D01*
X95832970Y-112537821D01*
X95971287Y-112537821D01*
X95971011Y-112761015D01*
X95970992Y-112770956D01*
X95969792Y-112865894D01*
X95966109Y-112939642D01*
X95958994Y-112995786D01*
X95947500Y-113037913D01*
X95930682Y-113069609D01*
X95907591Y-113094459D01*
X95877283Y-113116050D01*
X95845988Y-113130998D01*
X95782964Y-113144579D01*
X95717395Y-113142577D01*
X95660074Y-113124567D01*
X95634801Y-113112326D01*
X95622090Y-113111062D01*
X95619208Y-113122202D01*
X95619205Y-113122539D01*
X95612993Y-113133913D01*
X95591572Y-113139744D01*
X95550050Y-113141386D01*
X95480891Y-113141386D01*
X95480891Y-112537821D01*
X95619208Y-112537821D01*
X95619208Y-112745868D01*
G37*
X98849674Y-112549118D02*
X98920121Y-112591536D01*
X98965716Y-112629120D01*
X98924650Y-112671490D01*
X98898704Y-112696591D01*
X98875236Y-112710566D01*
X98853476Y-112707489D01*
X98825644Y-112688713D01*
X98814546Y-112681363D01*
X98767663Y-112666317D01*
X98713776Y-112666327D01*
X98663325Y-112681831D01*
X98644328Y-112694284D01*
X98616463Y-112731054D01*
X98602494Y-112785061D01*
X98601594Y-112858669D01*
X98601597Y-112858711D01*
X98611991Y-112924566D01*
X98634886Y-112970228D01*
X98672561Y-112998472D01*
X98727293Y-113012080D01*
X98761758Y-113013910D01*
X98791874Y-113006416D01*
X98822760Y-112984705D01*
X98862728Y-112951074D01*
X98913344Y-112991750D01*
X98931837Y-113007333D01*
X98954935Y-113029659D01*
X98963961Y-113042817D01*
X98960764Y-113048747D01*
X98942354Y-113066952D01*
X98913027Y-113090105D01*
X98890081Y-113105170D01*
X98817226Y-113136120D01*
X98741201Y-113146927D01*
X98666591Y-113138507D01*
X98597979Y-113111776D01*
X98539952Y-113067649D01*
X98497093Y-113007042D01*
X98494199Y-113000862D01*
X98475824Y-112940592D01*
X98466643Y-112868592D01*
X98466715Y-112793631D01*
X98476099Y-112724464D01*
X98494851Y-112669852D01*
X98518005Y-112631788D01*
X98568970Y-112577866D01*
X98632694Y-112543589D01*
X98687215Y-112529729D01*
X98770233Y-112528215D01*
X98849674Y-112549118D01*
G36*
X98849674Y-112549118D02*
G01*
X98920121Y-112591536D01*
X98965716Y-112629120D01*
X98924650Y-112671490D01*
X98898704Y-112696591D01*
X98875236Y-112710566D01*
X98853476Y-112707489D01*
X98825644Y-112688713D01*
X98814546Y-112681363D01*
X98767663Y-112666317D01*
X98713776Y-112666327D01*
X98663325Y-112681831D01*
X98644328Y-112694284D01*
X98616463Y-112731054D01*
X98602494Y-112785061D01*
X98601594Y-112858669D01*
X98601597Y-112858711D01*
X98611991Y-112924566D01*
X98634886Y-112970228D01*
X98672561Y-112998472D01*
X98727293Y-113012080D01*
X98761758Y-113013910D01*
X98791874Y-113006416D01*
X98822760Y-112984705D01*
X98862728Y-112951074D01*
X98913344Y-112991750D01*
X98931837Y-113007333D01*
X98954935Y-113029659D01*
X98963961Y-113042817D01*
X98960764Y-113048747D01*
X98942354Y-113066952D01*
X98913027Y-113090105D01*
X98890081Y-113105170D01*
X98817226Y-113136120D01*
X98741201Y-113146927D01*
X98666591Y-113138507D01*
X98597979Y-113111776D01*
X98539952Y-113067649D01*
X98497093Y-113007042D01*
X98494199Y-113000862D01*
X98475824Y-112940592D01*
X98466643Y-112868592D01*
X98466715Y-112793631D01*
X98476099Y-112724464D01*
X98494851Y-112669852D01*
X98518005Y-112631788D01*
X98568970Y-112577866D01*
X98632694Y-112543589D01*
X98687215Y-112529729D01*
X98770233Y-112528215D01*
X98849674Y-112549118D01*
G37*
X97159553Y-112527669D02*
X97212177Y-112538569D01*
X97213211Y-112538966D01*
X97255620Y-112563913D01*
X97298463Y-112602532D01*
X97334014Y-112646694D01*
X97354541Y-112688273D01*
X97360626Y-112718666D01*
X97365836Y-112775571D01*
X97366951Y-112840379D01*
X97364156Y-112904884D01*
X97357635Y-112960879D01*
X97347568Y-113000157D01*
X97324123Y-113044628D01*
X97274363Y-113099308D01*
X97210762Y-113133946D01*
X97135211Y-113147655D01*
X97049601Y-113139552D01*
X97035356Y-113136101D01*
X96969018Y-113106336D01*
X96919029Y-113057470D01*
X96885388Y-112989499D01*
X96868094Y-112902420D01*
X96867590Y-112846234D01*
X97002376Y-112846234D01*
X97002449Y-112867238D01*
X97004027Y-112909797D01*
X97009272Y-112937561D01*
X97020277Y-112958075D01*
X97039132Y-112978888D01*
X97075011Y-113004113D01*
X97121720Y-113014427D01*
X97166849Y-113004604D01*
X97204320Y-112976195D01*
X97228056Y-112930747D01*
X97236325Y-112891503D01*
X97240024Y-112826295D01*
X97232451Y-112765455D01*
X97214659Y-112715462D01*
X97187704Y-112682797D01*
X97177487Y-112677189D01*
X97138527Y-112666994D01*
X97093464Y-112664896D01*
X97055552Y-112671980D01*
X97040756Y-112682139D01*
X97019986Y-112717666D01*
X97006917Y-112773268D01*
X97002376Y-112846234D01*
X96867590Y-112846234D01*
X96867143Y-112796229D01*
X96870651Y-112756435D01*
X96886156Y-112680462D01*
X96913890Y-112622489D01*
X96956102Y-112578700D01*
X97015040Y-112545279D01*
X97037924Y-112537324D01*
X97097188Y-112527399D01*
X97159553Y-112527669D01*
G36*
X97159553Y-112527669D02*
G01*
X97212177Y-112538569D01*
X97213211Y-112538966D01*
X97255620Y-112563913D01*
X97298463Y-112602532D01*
X97334014Y-112646694D01*
X97354541Y-112688273D01*
X97360626Y-112718666D01*
X97365836Y-112775571D01*
X97366951Y-112840379D01*
X97364156Y-112904884D01*
X97357635Y-112960879D01*
X97347568Y-113000157D01*
X97324123Y-113044628D01*
X97274363Y-113099308D01*
X97210762Y-113133946D01*
X97135211Y-113147655D01*
X97049601Y-113139552D01*
X97035356Y-113136101D01*
X96969018Y-113106336D01*
X96919029Y-113057470D01*
X96885388Y-112989499D01*
X96868094Y-112902420D01*
X96867590Y-112846234D01*
X97002376Y-112846234D01*
X97002449Y-112867238D01*
X97004027Y-112909797D01*
X97009272Y-112937561D01*
X97020277Y-112958075D01*
X97039132Y-112978888D01*
X97075011Y-113004113D01*
X97121720Y-113014427D01*
X97166849Y-113004604D01*
X97204320Y-112976195D01*
X97228056Y-112930747D01*
X97236325Y-112891503D01*
X97240024Y-112826295D01*
X97232451Y-112765455D01*
X97214659Y-112715462D01*
X97187704Y-112682797D01*
X97177487Y-112677189D01*
X97138527Y-112666994D01*
X97093464Y-112664896D01*
X97055552Y-112671980D01*
X97040756Y-112682139D01*
X97019986Y-112717666D01*
X97006917Y-112773268D01*
X97002376Y-112846234D01*
X96867590Y-112846234D01*
X96867143Y-112796229D01*
X96870651Y-112756435D01*
X96886156Y-112680462D01*
X96913890Y-112622489D01*
X96956102Y-112578700D01*
X97015040Y-112545279D01*
X97037924Y-112537324D01*
X97097188Y-112527399D01*
X97159553Y-112527669D01*
G37*
X97062598Y-111584672D02*
X97120902Y-111588465D01*
X97174902Y-111758218D01*
X97198610Y-111832807D01*
X97225167Y-111916461D01*
X97250596Y-111996658D01*
X97271646Y-112063143D01*
X97314391Y-112198317D01*
X97171388Y-112198317D01*
X97136726Y-112069430D01*
X97127512Y-112035375D01*
X97110086Y-111971885D01*
X97093946Y-111914126D01*
X97081678Y-111871386D01*
X97061291Y-111802227D01*
X96931255Y-112192029D01*
X96881524Y-112195763D01*
X96831794Y-112199496D01*
X96767003Y-112000871D01*
X96750003Y-111950150D01*
X96729893Y-111894003D01*
X96713101Y-111851468D01*
X96701014Y-111826010D01*
X96695020Y-111821097D01*
X96693574Y-111825370D01*
X96685746Y-111851578D01*
X96673277Y-111895351D01*
X96657553Y-111951789D01*
X96639957Y-112015990D01*
X96592086Y-112192028D01*
X96518993Y-112195848D01*
X96512823Y-112196154D01*
X96473408Y-112196560D01*
X96454467Y-112192513D01*
X96452055Y-112183274D01*
X96455102Y-112174251D01*
X96465126Y-112143368D01*
X96480820Y-112094456D01*
X96501066Y-112031013D01*
X96524744Y-111956538D01*
X96550737Y-111874529D01*
X96643264Y-111582178D01*
X96759007Y-111582179D01*
X96813543Y-111767648D01*
X96823614Y-111801706D01*
X96842225Y-111863623D01*
X96858128Y-111915213D01*
X96869891Y-111951870D01*
X96876082Y-111968982D01*
X96877846Y-111970259D01*
X96886429Y-111959221D01*
X96898684Y-111930031D01*
X96912574Y-111887250D01*
X96913308Y-111884737D01*
X96931904Y-111821600D01*
X96953182Y-111750111D01*
X96972679Y-111685266D01*
X97004295Y-111580878D01*
X97062598Y-111584672D01*
G36*
X97062598Y-111584672D02*
G01*
X97120902Y-111588465D01*
X97174902Y-111758218D01*
X97198610Y-111832807D01*
X97225167Y-111916461D01*
X97250596Y-111996658D01*
X97271646Y-112063143D01*
X97314391Y-112198317D01*
X97171388Y-112198317D01*
X97136726Y-112069430D01*
X97127512Y-112035375D01*
X97110086Y-111971885D01*
X97093946Y-111914126D01*
X97081678Y-111871386D01*
X97061291Y-111802227D01*
X96931255Y-112192029D01*
X96881524Y-112195763D01*
X96831794Y-112199496D01*
X96767003Y-112000871D01*
X96750003Y-111950150D01*
X96729893Y-111894003D01*
X96713101Y-111851468D01*
X96701014Y-111826010D01*
X96695020Y-111821097D01*
X96693574Y-111825370D01*
X96685746Y-111851578D01*
X96673277Y-111895351D01*
X96657553Y-111951789D01*
X96639957Y-112015990D01*
X96592086Y-112192028D01*
X96518993Y-112195848D01*
X96512823Y-112196154D01*
X96473408Y-112196560D01*
X96454467Y-112192513D01*
X96452055Y-112183274D01*
X96455102Y-112174251D01*
X96465126Y-112143368D01*
X96480820Y-112094456D01*
X96501066Y-112031013D01*
X96524744Y-111956538D01*
X96550737Y-111874529D01*
X96643264Y-111582178D01*
X96759007Y-111582179D01*
X96813543Y-111767648D01*
X96823614Y-111801706D01*
X96842225Y-111863623D01*
X96858128Y-111915213D01*
X96869891Y-111951870D01*
X96876082Y-111968982D01*
X96877846Y-111970259D01*
X96886429Y-111959221D01*
X96898684Y-111930031D01*
X96912574Y-111887250D01*
X96913308Y-111884737D01*
X96931904Y-111821600D01*
X96953182Y-111750111D01*
X96972679Y-111685266D01*
X97004295Y-111580878D01*
X97062598Y-111584672D01*
G37*
X94062391Y-112538732D02*
X94126799Y-112568989D01*
X94177373Y-112615706D01*
X94191892Y-112637779D01*
X94219007Y-112706398D01*
X94232454Y-112791061D01*
X94231417Y-112887649D01*
X94230093Y-112901349D01*
X94211627Y-112989092D01*
X94177460Y-113057207D01*
X94127521Y-113105769D01*
X94061739Y-113134851D01*
X93980039Y-113144529D01*
X93949172Y-113143621D01*
X93885872Y-113132507D01*
X93834112Y-113105979D01*
X93785853Y-113060564D01*
X93778135Y-113051449D01*
X93757319Y-113020752D01*
X93743638Y-112985993D01*
X93736052Y-112941943D01*
X93733521Y-112883379D01*
X93734328Y-112840781D01*
X93860045Y-112840781D01*
X93866776Y-112913380D01*
X93887433Y-112965358D01*
X93922106Y-112997002D01*
X93962751Y-113012153D01*
X94011223Y-113010877D01*
X94056155Y-112985298D01*
X94066897Y-112975558D01*
X94080452Y-112958520D01*
X94088495Y-112936228D01*
X94092957Y-112902053D01*
X94095771Y-112849362D01*
X94097080Y-112812477D01*
X94096826Y-112772426D01*
X94092579Y-112745687D01*
X94082904Y-112725141D01*
X94066362Y-112703669D01*
X94043407Y-112682361D01*
X93997496Y-112663347D01*
X93948198Y-112666878D01*
X93901083Y-112693306D01*
X93887793Y-112705928D01*
X93873603Y-112727535D01*
X93865734Y-112757906D01*
X93861274Y-112805230D01*
X93860045Y-112840781D01*
X93734328Y-112840781D01*
X93735003Y-112805069D01*
X93736627Y-112765689D01*
X93740312Y-112717668D01*
X93746590Y-112683632D01*
X93756956Y-112656662D01*
X93772908Y-112629842D01*
X93773588Y-112628825D01*
X93812868Y-112585371D01*
X93860928Y-112552228D01*
X93916815Y-112532561D01*
X93990333Y-112526176D01*
X94062391Y-112538732D01*
G36*
X94062391Y-112538732D02*
G01*
X94126799Y-112568989D01*
X94177373Y-112615706D01*
X94191892Y-112637779D01*
X94219007Y-112706398D01*
X94232454Y-112791061D01*
X94231417Y-112887649D01*
X94230093Y-112901349D01*
X94211627Y-112989092D01*
X94177460Y-113057207D01*
X94127521Y-113105769D01*
X94061739Y-113134851D01*
X93980039Y-113144529D01*
X93949172Y-113143621D01*
X93885872Y-113132507D01*
X93834112Y-113105979D01*
X93785853Y-113060564D01*
X93778135Y-113051449D01*
X93757319Y-113020752D01*
X93743638Y-112985993D01*
X93736052Y-112941943D01*
X93733521Y-112883379D01*
X93734328Y-112840781D01*
X93860045Y-112840781D01*
X93866776Y-112913380D01*
X93887433Y-112965358D01*
X93922106Y-112997002D01*
X93962751Y-113012153D01*
X94011223Y-113010877D01*
X94056155Y-112985298D01*
X94066897Y-112975558D01*
X94080452Y-112958520D01*
X94088495Y-112936228D01*
X94092957Y-112902053D01*
X94095771Y-112849362D01*
X94097080Y-112812477D01*
X94096826Y-112772426D01*
X94092579Y-112745687D01*
X94082904Y-112725141D01*
X94066362Y-112703669D01*
X94043407Y-112682361D01*
X93997496Y-112663347D01*
X93948198Y-112666878D01*
X93901083Y-112693306D01*
X93887793Y-112705928D01*
X93873603Y-112727535D01*
X93865734Y-112757906D01*
X93861274Y-112805230D01*
X93860045Y-112840781D01*
X93734328Y-112840781D01*
X93735003Y-112805069D01*
X93736627Y-112765689D01*
X93740312Y-112717668D01*
X93746590Y-112683632D01*
X93756956Y-112656662D01*
X93772908Y-112629842D01*
X93773588Y-112628825D01*
X93812868Y-112585371D01*
X93860928Y-112552228D01*
X93916815Y-112532561D01*
X93990333Y-112526176D01*
X94062391Y-112538732D01*
G37*
X96398812Y-112437227D02*
X96260495Y-112437227D01*
X96260495Y-112144122D01*
X96234876Y-112167307D01*
X96210208Y-112181718D01*
X96163520Y-112193764D01*
X96108944Y-112197646D01*
X96055646Y-112192881D01*
X96012793Y-112178987D01*
X95982122Y-112159221D01*
X95950529Y-112125551D01*
X95929267Y-112080270D01*
X95916486Y-112019019D01*
X95910336Y-111937437D01*
X95909432Y-111904460D01*
X95909367Y-111883845D01*
X96046721Y-111883845D01*
X96047723Y-111939272D01*
X96053039Y-111987978D01*
X96062795Y-112021852D01*
X96065913Y-112027408D01*
X96095962Y-112055326D01*
X96136685Y-112067694D01*
X96180421Y-112064817D01*
X96219509Y-112047000D01*
X96246290Y-112014548D01*
X96247397Y-112011819D01*
X96254037Y-111981366D01*
X96258722Y-111935861D01*
X96260495Y-111884070D01*
X96259504Y-111831770D01*
X96255481Y-111796950D01*
X96246892Y-111773095D01*
X96232203Y-111753105D01*
X96193416Y-111723382D01*
X96148026Y-111713418D01*
X96104011Y-111725740D01*
X96066940Y-111760112D01*
X96057141Y-111785265D01*
X96049903Y-111829806D01*
X96046721Y-111883845D01*
X95909367Y-111883845D01*
X95909239Y-111843187D01*
X95910833Y-111789429D01*
X95914038Y-111751982D01*
X95914587Y-111748550D01*
X95936162Y-111687165D01*
X95975562Y-111635123D01*
X96027248Y-111599865D01*
X96082752Y-111585271D01*
X96151023Y-111586403D01*
X96213827Y-111605971D01*
X96230185Y-111614229D01*
X96251221Y-111623078D01*
X96259225Y-111620324D01*
X96260495Y-111605971D01*
X96261078Y-111598814D01*
X96268606Y-111588229D01*
X96289512Y-111583355D01*
X96329654Y-111582178D01*
X96398812Y-111582178D01*
X96398812Y-112437227D01*
G36*
X96398812Y-112437227D02*
G01*
X96260495Y-112437227D01*
X96260495Y-112144122D01*
X96234876Y-112167307D01*
X96210208Y-112181718D01*
X96163520Y-112193764D01*
X96108944Y-112197646D01*
X96055646Y-112192881D01*
X96012793Y-112178987D01*
X95982122Y-112159221D01*
X95950529Y-112125551D01*
X95929267Y-112080270D01*
X95916486Y-112019019D01*
X95910336Y-111937437D01*
X95909432Y-111904460D01*
X95909367Y-111883845D01*
X96046721Y-111883845D01*
X96047723Y-111939272D01*
X96053039Y-111987978D01*
X96062795Y-112021852D01*
X96065913Y-112027408D01*
X96095962Y-112055326D01*
X96136685Y-112067694D01*
X96180421Y-112064817D01*
X96219509Y-112047000D01*
X96246290Y-112014548D01*
X96247397Y-112011819D01*
X96254037Y-111981366D01*
X96258722Y-111935861D01*
X96260495Y-111884070D01*
X96259504Y-111831770D01*
X96255481Y-111796950D01*
X96246892Y-111773095D01*
X96232203Y-111753105D01*
X96193416Y-111723382D01*
X96148026Y-111713418D01*
X96104011Y-111725740D01*
X96066940Y-111760112D01*
X96057141Y-111785265D01*
X96049903Y-111829806D01*
X96046721Y-111883845D01*
X95909367Y-111883845D01*
X95909239Y-111843187D01*
X95910833Y-111789429D01*
X95914038Y-111751982D01*
X95914587Y-111748550D01*
X95936162Y-111687165D01*
X95975562Y-111635123D01*
X96027248Y-111599865D01*
X96082752Y-111585271D01*
X96151023Y-111586403D01*
X96213827Y-111605971D01*
X96230185Y-111614229D01*
X96251221Y-111623078D01*
X96259225Y-111620324D01*
X96260495Y-111605971D01*
X96261078Y-111598814D01*
X96268606Y-111588229D01*
X96289512Y-111583355D01*
X96329654Y-111582178D01*
X96398812Y-111582178D01*
X96398812Y-112437227D01*
G37*
X99308386Y-112531680D02*
X99379374Y-112554437D01*
X99437096Y-112592181D01*
X99480333Y-112632127D01*
X99434375Y-112668468D01*
X99388417Y-112704807D01*
X99333031Y-112677899D01*
X99268944Y-112656095D01*
X99212368Y-112655442D01*
X99166080Y-112675475D01*
X99132770Y-112715685D01*
X99120829Y-112739778D01*
X99114163Y-112760370D01*
X99118020Y-112774280D01*
X99135325Y-112782818D01*
X99169003Y-112787296D01*
X99221979Y-112789022D01*
X99297178Y-112789307D01*
X99479505Y-112789307D01*
X99479505Y-112876509D01*
X99477864Y-112922629D01*
X99473045Y-112968260D01*
X99466160Y-112999107D01*
X99461141Y-113010883D01*
X99424610Y-113063333D01*
X99371825Y-113107079D01*
X99310096Y-113135721D01*
X99277898Y-113143543D01*
X99201180Y-113147103D01*
X99132820Y-113128991D01*
X99074701Y-113091221D01*
X99028698Y-113035809D01*
X98996690Y-112964771D01*
X98987100Y-112914458D01*
X99114852Y-112914458D01*
X99117854Y-112933938D01*
X99139012Y-112971214D01*
X99174269Y-113001835D01*
X99216301Y-113020332D01*
X99257780Y-113021227D01*
X99289003Y-113006396D01*
X99324382Y-112972645D01*
X99346878Y-112930767D01*
X99348195Y-112926310D01*
X99349766Y-112914790D01*
X99343601Y-112907749D01*
X99325346Y-112904084D01*
X99290648Y-112902694D01*
X99235154Y-112902475D01*
X99205397Y-112902824D01*
X99158438Y-112905133D01*
X99126584Y-112909178D01*
X99114852Y-112914458D01*
X98987100Y-112914458D01*
X98980556Y-112880122D01*
X98982176Y-112783879D01*
X98982386Y-112781986D01*
X99000465Y-112693675D01*
X99033130Y-112625014D01*
X99081399Y-112574494D01*
X99146287Y-112540607D01*
X99158199Y-112536732D01*
X99232030Y-112525312D01*
X99308386Y-112531680D01*
G36*
X99308386Y-112531680D02*
G01*
X99379374Y-112554437D01*
X99437096Y-112592181D01*
X99480333Y-112632127D01*
X99434375Y-112668468D01*
X99388417Y-112704807D01*
X99333031Y-112677899D01*
X99268944Y-112656095D01*
X99212368Y-112655442D01*
X99166080Y-112675475D01*
X99132770Y-112715685D01*
X99120829Y-112739778D01*
X99114163Y-112760370D01*
X99118020Y-112774280D01*
X99135325Y-112782818D01*
X99169003Y-112787296D01*
X99221979Y-112789022D01*
X99297178Y-112789307D01*
X99479505Y-112789307D01*
X99479505Y-112876509D01*
X99477864Y-112922629D01*
X99473045Y-112968260D01*
X99466160Y-112999107D01*
X99461141Y-113010883D01*
X99424610Y-113063333D01*
X99371825Y-113107079D01*
X99310096Y-113135721D01*
X99277898Y-113143543D01*
X99201180Y-113147103D01*
X99132820Y-113128991D01*
X99074701Y-113091221D01*
X99028698Y-113035809D01*
X98996690Y-112964771D01*
X98987100Y-112914458D01*
X99114852Y-112914458D01*
X99117854Y-112933938D01*
X99139012Y-112971214D01*
X99174269Y-113001835D01*
X99216301Y-113020332D01*
X99257780Y-113021227D01*
X99289003Y-113006396D01*
X99324382Y-112972645D01*
X99346878Y-112930767D01*
X99348195Y-112926310D01*
X99349766Y-112914790D01*
X99343601Y-112907749D01*
X99325346Y-112904084D01*
X99290648Y-112902694D01*
X99235154Y-112902475D01*
X99205397Y-112902824D01*
X99158438Y-112905133D01*
X99126584Y-112909178D01*
X99114852Y-112914458D01*
X98987100Y-112914458D01*
X98980556Y-112880122D01*
X98982176Y-112783879D01*
X98982386Y-112781986D01*
X99000465Y-112693675D01*
X99033130Y-112625014D01*
X99081399Y-112574494D01*
X99146287Y-112540607D01*
X99158199Y-112536732D01*
X99232030Y-112525312D01*
X99308386Y-112531680D01*
G37*
X96646800Y-112538919D02*
X96717278Y-112563217D01*
X96767164Y-112601812D01*
X96796577Y-112654802D01*
X96805635Y-112722282D01*
X96799080Y-112781646D01*
X96778030Y-112830248D01*
X96740136Y-112865054D01*
X96682996Y-112888202D01*
X96604215Y-112901830D01*
X96595166Y-112902817D01*
X96546115Y-112909108D01*
X96506325Y-112915691D01*
X96483688Y-112921292D01*
X96476134Y-112925802D01*
X96463363Y-112949058D01*
X96465438Y-112978829D01*
X96482505Y-113004673D01*
X96491467Y-113010309D01*
X96528812Y-113019340D01*
X96577050Y-113018732D01*
X96627350Y-113009122D01*
X96670885Y-112991142D01*
X96716628Y-112964153D01*
X96752110Y-113005616D01*
X96760720Y-113016150D01*
X96780117Y-113044368D01*
X96788103Y-113063492D01*
X96779717Y-113075219D01*
X96753774Y-113093524D01*
X96716312Y-113113223D01*
X96711034Y-113115630D01*
X96661634Y-113134518D01*
X96614017Y-113143547D01*
X96554928Y-113145361D01*
X96501126Y-113141792D01*
X96428505Y-113123592D01*
X96375454Y-113089856D01*
X96341671Y-113040358D01*
X96326853Y-112974873D01*
X96329853Y-112912180D01*
X96351507Y-112859301D01*
X96393033Y-112820204D01*
X96455264Y-112794127D01*
X96539031Y-112780305D01*
X96593460Y-112773060D01*
X96643140Y-112757385D01*
X96668789Y-112734686D01*
X96670338Y-112705003D01*
X96660016Y-112686493D01*
X96628050Y-112664557D01*
X96582605Y-112654182D01*
X96529351Y-112655601D01*
X96473952Y-112669048D01*
X96422072Y-112694757D01*
X96370347Y-112728987D01*
X96324852Y-112682951D01*
X96279357Y-112636916D01*
X96317079Y-112606124D01*
X96331747Y-112595427D01*
X96373017Y-112571120D01*
X96417673Y-112550175D01*
X96453016Y-112538155D01*
X96504766Y-112529448D01*
X96568565Y-112529333D01*
X96646800Y-112538919D01*
G36*
X96646800Y-112538919D02*
G01*
X96717278Y-112563217D01*
X96767164Y-112601812D01*
X96796577Y-112654802D01*
X96805635Y-112722282D01*
X96799080Y-112781646D01*
X96778030Y-112830248D01*
X96740136Y-112865054D01*
X96682996Y-112888202D01*
X96604215Y-112901830D01*
X96595166Y-112902817D01*
X96546115Y-112909108D01*
X96506325Y-112915691D01*
X96483688Y-112921292D01*
X96476134Y-112925802D01*
X96463363Y-112949058D01*
X96465438Y-112978829D01*
X96482505Y-113004673D01*
X96491467Y-113010309D01*
X96528812Y-113019340D01*
X96577050Y-113018732D01*
X96627350Y-113009122D01*
X96670885Y-112991142D01*
X96716628Y-112964153D01*
X96752110Y-113005616D01*
X96760720Y-113016150D01*
X96780117Y-113044368D01*
X96788103Y-113063492D01*
X96779717Y-113075219D01*
X96753774Y-113093524D01*
X96716312Y-113113223D01*
X96711034Y-113115630D01*
X96661634Y-113134518D01*
X96614017Y-113143547D01*
X96554928Y-113145361D01*
X96501126Y-113141792D01*
X96428505Y-113123592D01*
X96375454Y-113089856D01*
X96341671Y-113040358D01*
X96326853Y-112974873D01*
X96329853Y-112912180D01*
X96351507Y-112859301D01*
X96393033Y-112820204D01*
X96455264Y-112794127D01*
X96539031Y-112780305D01*
X96593460Y-112773060D01*
X96643140Y-112757385D01*
X96668789Y-112734686D01*
X96670338Y-112705003D01*
X96660016Y-112686493D01*
X96628050Y-112664557D01*
X96582605Y-112654182D01*
X96529351Y-112655601D01*
X96473952Y-112669048D01*
X96422072Y-112694757D01*
X96370347Y-112728987D01*
X96324852Y-112682951D01*
X96279357Y-112636916D01*
X96317079Y-112606124D01*
X96331747Y-112595427D01*
X96373017Y-112571120D01*
X96417673Y-112550175D01*
X96453016Y-112538155D01*
X96504766Y-112529448D01*
X96568565Y-112529333D01*
X96646800Y-112538919D01*
G37*
X98662072Y-111590054D02*
X98731337Y-111611735D01*
X98755738Y-111624041D01*
X98790725Y-111645122D01*
X98811928Y-111662466D01*
X98815058Y-111666430D01*
X98820915Y-111680923D01*
X98812476Y-111696679D01*
X98786779Y-111720540D01*
X98774378Y-111730928D01*
X98749948Y-111749937D01*
X98737139Y-111757707D01*
X98733470Y-111756906D01*
X98712439Y-111748255D01*
X98681040Y-111733069D01*
X98670803Y-111728074D01*
X98610410Y-111709525D01*
X98557943Y-111714306D01*
X98511935Y-111742500D01*
X98506581Y-111747709D01*
X98480987Y-111780341D01*
X98466362Y-111811658D01*
X98458265Y-111846237D01*
X98838219Y-111846237D01*
X98838148Y-111912252D01*
X98838108Y-111918818D01*
X98830242Y-112000035D01*
X98807345Y-112066105D01*
X98767393Y-112123060D01*
X98743021Y-112147152D01*
X98692685Y-112179403D01*
X98632581Y-112195030D01*
X98556661Y-112196129D01*
X98519990Y-112191821D01*
X98452297Y-112169451D01*
X98400470Y-112128737D01*
X98364055Y-112069051D01*
X98342599Y-111989764D01*
X98340421Y-111958587D01*
X98460990Y-111958587D01*
X98470936Y-112000173D01*
X98500053Y-112038987D01*
X98542048Y-112065914D01*
X98590560Y-112075228D01*
X98626277Y-112064728D01*
X98661980Y-112039060D01*
X98689121Y-112005619D01*
X98699901Y-111971782D01*
X98698330Y-111960797D01*
X98690262Y-111953226D01*
X98671033Y-111949025D01*
X98635981Y-111947217D01*
X98580446Y-111946831D01*
X98549571Y-111947232D01*
X98503998Y-111949571D01*
X98472652Y-111953535D01*
X98460990Y-111958587D01*
X98340421Y-111958587D01*
X98340421Y-111958586D01*
X98335647Y-111890247D01*
X98337281Y-111843308D01*
X98352173Y-111753541D01*
X98382815Y-111682955D01*
X98429476Y-111631048D01*
X98492426Y-111597314D01*
X98512765Y-111591353D01*
X98585388Y-111583029D01*
X98662072Y-111590054D01*
G36*
X98662072Y-111590054D02*
G01*
X98731337Y-111611735D01*
X98755738Y-111624041D01*
X98790725Y-111645122D01*
X98811928Y-111662466D01*
X98815058Y-111666430D01*
X98820915Y-111680923D01*
X98812476Y-111696679D01*
X98786779Y-111720540D01*
X98774378Y-111730928D01*
X98749948Y-111749937D01*
X98737139Y-111757707D01*
X98733470Y-111756906D01*
X98712439Y-111748255D01*
X98681040Y-111733069D01*
X98670803Y-111728074D01*
X98610410Y-111709525D01*
X98557943Y-111714306D01*
X98511935Y-111742500D01*
X98506581Y-111747709D01*
X98480987Y-111780341D01*
X98466362Y-111811658D01*
X98458265Y-111846237D01*
X98838219Y-111846237D01*
X98838148Y-111912252D01*
X98838108Y-111918818D01*
X98830242Y-112000035D01*
X98807345Y-112066105D01*
X98767393Y-112123060D01*
X98743021Y-112147152D01*
X98692685Y-112179403D01*
X98632581Y-112195030D01*
X98556661Y-112196129D01*
X98519990Y-112191821D01*
X98452297Y-112169451D01*
X98400470Y-112128737D01*
X98364055Y-112069051D01*
X98342599Y-111989764D01*
X98340421Y-111958587D01*
X98460990Y-111958587D01*
X98470936Y-112000173D01*
X98500053Y-112038987D01*
X98542048Y-112065914D01*
X98590560Y-112075228D01*
X98626277Y-112064728D01*
X98661980Y-112039060D01*
X98689121Y-112005619D01*
X98699901Y-111971782D01*
X98698330Y-111960797D01*
X98690262Y-111953226D01*
X98671033Y-111949025D01*
X98635981Y-111947217D01*
X98580446Y-111946831D01*
X98549571Y-111947232D01*
X98503998Y-111949571D01*
X98472652Y-111953535D01*
X98460990Y-111958587D01*
X98340421Y-111958587D01*
X98340421Y-111958586D01*
X98335647Y-111890247D01*
X98337281Y-111843308D01*
X98352173Y-111753541D01*
X98382815Y-111682955D01*
X98429476Y-111631048D01*
X98492426Y-111597314D01*
X98512765Y-111591353D01*
X98585388Y-111583029D01*
X98662072Y-111590054D01*
G37*
X95244336Y-112540070D02*
X95311634Y-112569575D01*
X95336572Y-112585988D01*
X95364049Y-112607027D01*
X95376586Y-112620871D01*
X95375876Y-112626583D01*
X95361842Y-112646045D01*
X95335467Y-112669624D01*
X95289760Y-112704486D01*
X95236201Y-112677738D01*
X95221718Y-112671118D01*
X95179084Y-112656727D01*
X95143351Y-112650990D01*
X95117002Y-112655718D01*
X95075652Y-112678486D01*
X95040896Y-112713829D01*
X95021016Y-112754727D01*
X95012917Y-112789307D01*
X95392871Y-112789307D01*
X95392801Y-112855321D01*
X95392226Y-112876243D01*
X95387489Y-112926909D01*
X95379541Y-112968834D01*
X95370832Y-112992304D01*
X95340210Y-113043354D01*
X95299201Y-113089717D01*
X95255832Y-113121486D01*
X95243301Y-113127386D01*
X95170339Y-113146954D01*
X95095832Y-113144891D01*
X95025783Y-113122068D01*
X94966193Y-113079361D01*
X94933962Y-113039975D01*
X94907608Y-112984490D01*
X94893518Y-112917701D01*
X95019418Y-112917701D01*
X95022375Y-112930767D01*
X95022827Y-112932248D01*
X95048301Y-112977715D01*
X95088461Y-113009019D01*
X95136349Y-113020673D01*
X95154051Y-113019741D01*
X95186906Y-113008592D01*
X95218425Y-112980238D01*
X95226915Y-112970211D01*
X95246664Y-112941577D01*
X95254555Y-112921138D01*
X95254310Y-112918566D01*
X95247396Y-112910557D01*
X95227859Y-112905636D01*
X95191533Y-112903157D01*
X95134252Y-112902475D01*
X95115425Y-112902483D01*
X95066530Y-112902935D01*
X95037137Y-112904887D01*
X95022885Y-112909442D01*
X95019418Y-112917701D01*
X94893518Y-112917701D01*
X94892978Y-112915139D01*
X94888580Y-112827064D01*
X94889678Y-112788629D01*
X94902074Y-112704633D01*
X94929392Y-112638405D01*
X94973059Y-112587216D01*
X95034505Y-112548337D01*
X95094111Y-112530188D01*
X95168890Y-112526716D01*
X95244336Y-112540070D01*
G36*
X95244336Y-112540070D02*
G01*
X95311634Y-112569575D01*
X95336572Y-112585988D01*
X95364049Y-112607027D01*
X95376586Y-112620871D01*
X95375876Y-112626583D01*
X95361842Y-112646045D01*
X95335467Y-112669624D01*
X95289760Y-112704486D01*
X95236201Y-112677738D01*
X95221718Y-112671118D01*
X95179084Y-112656727D01*
X95143351Y-112650990D01*
X95117002Y-112655718D01*
X95075652Y-112678486D01*
X95040896Y-112713829D01*
X95021016Y-112754727D01*
X95012917Y-112789307D01*
X95392871Y-112789307D01*
X95392801Y-112855321D01*
X95392226Y-112876243D01*
X95387489Y-112926909D01*
X95379541Y-112968834D01*
X95370832Y-112992304D01*
X95340210Y-113043354D01*
X95299201Y-113089717D01*
X95255832Y-113121486D01*
X95243301Y-113127386D01*
X95170339Y-113146954D01*
X95095832Y-113144891D01*
X95025783Y-113122068D01*
X94966193Y-113079361D01*
X94933962Y-113039975D01*
X94907608Y-112984490D01*
X94893518Y-112917701D01*
X95019418Y-112917701D01*
X95022375Y-112930767D01*
X95022827Y-112932248D01*
X95048301Y-112977715D01*
X95088461Y-113009019D01*
X95136349Y-113020673D01*
X95154051Y-113019741D01*
X95186906Y-113008592D01*
X95218425Y-112980238D01*
X95226915Y-112970211D01*
X95246664Y-112941577D01*
X95254555Y-112921138D01*
X95254310Y-112918566D01*
X95247396Y-112910557D01*
X95227859Y-112905636D01*
X95191533Y-112903157D01*
X95134252Y-112902475D01*
X95115425Y-112902483D01*
X95066530Y-112902935D01*
X95037137Y-112904887D01*
X95022885Y-112909442D01*
X95019418Y-112917701D01*
X94893518Y-112917701D01*
X94892978Y-112915139D01*
X94888580Y-112827064D01*
X94889678Y-112788629D01*
X94902074Y-112704633D01*
X94929392Y-112638405D01*
X94973059Y-112587216D01*
X95034505Y-112548337D01*
X95094111Y-112530188D01*
X95168890Y-112526716D01*
X95244336Y-112540070D01*
G37*
X97804947Y-111824232D02*
X97803831Y-111880206D01*
X97800894Y-111964004D01*
X97795942Y-112028080D01*
X97787998Y-112075926D01*
X97776083Y-112111038D01*
X97759220Y-112136907D01*
X97736427Y-112157026D01*
X97706731Y-112174890D01*
X97691411Y-112181710D01*
X97638411Y-112194583D01*
X97574487Y-112199905D01*
X97508397Y-112197773D01*
X97448901Y-112188286D01*
X97404753Y-112171539D01*
X97389396Y-112161815D01*
X97354040Y-112132995D01*
X97342074Y-112108864D01*
X97344980Y-112104199D01*
X97363091Y-112087912D01*
X97392328Y-112066183D01*
X97407275Y-112056013D01*
X97432730Y-112041603D01*
X97449272Y-112040227D01*
X97464630Y-112050173D01*
X97502906Y-112070316D01*
X97554410Y-112078600D01*
X97607042Y-112072258D01*
X97608039Y-112071970D01*
X97645163Y-112055842D01*
X97663537Y-112030595D01*
X97668620Y-111988842D01*
X97668812Y-111949121D01*
X97537577Y-111944832D01*
X97516669Y-111944127D01*
X97463957Y-111941674D01*
X97428620Y-111937820D01*
X97404733Y-111931122D01*
X97386376Y-111920136D01*
X97367624Y-111903420D01*
X97336663Y-111864756D01*
X97313971Y-111807544D01*
X97311745Y-111768176D01*
X97435507Y-111768176D01*
X97447626Y-111802257D01*
X97454696Y-111811176D01*
X97486276Y-111831182D01*
X97536256Y-111842605D01*
X97607513Y-111846237D01*
X97668812Y-111846237D01*
X97668812Y-111802227D01*
X97664075Y-111769334D01*
X97643664Y-111733069D01*
X97636129Y-111726403D01*
X97605247Y-111712380D01*
X97558787Y-111708772D01*
X97530910Y-111710181D01*
X97478745Y-111720796D01*
X97446413Y-111740575D01*
X97435507Y-111768176D01*
X97311745Y-111768176D01*
X97310587Y-111747667D01*
X97325756Y-111690581D01*
X97358723Y-111641745D01*
X97408730Y-111606614D01*
X97413638Y-111604479D01*
X97468354Y-111589097D01*
X97530007Y-111583101D01*
X97588624Y-111586767D01*
X97634233Y-111600371D01*
X97652451Y-111609246D01*
X97665821Y-111611363D01*
X97668812Y-111600294D01*
X97674476Y-111590058D01*
X97696393Y-111583962D01*
X97738932Y-111582178D01*
X97809051Y-111582178D01*
X97804947Y-111824232D01*
G36*
X97804947Y-111824232D02*
G01*
X97803831Y-111880206D01*
X97800894Y-111964004D01*
X97795942Y-112028080D01*
X97787998Y-112075926D01*
X97776083Y-112111038D01*
X97759220Y-112136907D01*
X97736427Y-112157026D01*
X97706731Y-112174890D01*
X97691411Y-112181710D01*
X97638411Y-112194583D01*
X97574487Y-112199905D01*
X97508397Y-112197773D01*
X97448901Y-112188286D01*
X97404753Y-112171539D01*
X97389396Y-112161815D01*
X97354040Y-112132995D01*
X97342074Y-112108864D01*
X97344980Y-112104199D01*
X97363091Y-112087912D01*
X97392328Y-112066183D01*
X97407275Y-112056013D01*
X97432730Y-112041603D01*
X97449272Y-112040227D01*
X97464630Y-112050173D01*
X97502906Y-112070316D01*
X97554410Y-112078600D01*
X97607042Y-112072258D01*
X97608039Y-112071970D01*
X97645163Y-112055842D01*
X97663537Y-112030595D01*
X97668620Y-111988842D01*
X97668812Y-111949121D01*
X97537577Y-111944832D01*
X97516669Y-111944127D01*
X97463957Y-111941674D01*
X97428620Y-111937820D01*
X97404733Y-111931122D01*
X97386376Y-111920136D01*
X97367624Y-111903420D01*
X97336663Y-111864756D01*
X97313971Y-111807544D01*
X97311745Y-111768176D01*
X97435507Y-111768176D01*
X97447626Y-111802257D01*
X97454696Y-111811176D01*
X97486276Y-111831182D01*
X97536256Y-111842605D01*
X97607513Y-111846237D01*
X97668812Y-111846237D01*
X97668812Y-111802227D01*
X97664075Y-111769334D01*
X97643664Y-111733069D01*
X97636129Y-111726403D01*
X97605247Y-111712380D01*
X97558787Y-111708772D01*
X97530910Y-111710181D01*
X97478745Y-111720796D01*
X97446413Y-111740575D01*
X97435507Y-111768176D01*
X97311745Y-111768176D01*
X97310587Y-111747667D01*
X97325756Y-111690581D01*
X97358723Y-111641745D01*
X97408730Y-111606614D01*
X97413638Y-111604479D01*
X97468354Y-111589097D01*
X97530007Y-111583101D01*
X97588624Y-111586767D01*
X97634233Y-111600371D01*
X97652451Y-111609246D01*
X97665821Y-111611363D01*
X97668812Y-111600294D01*
X97674476Y-111590058D01*
X97696393Y-111583962D01*
X97738932Y-111582178D01*
X97809051Y-111582178D01*
X97804947Y-111824232D01*
G37*
X95380297Y-111825516D02*
X95380293Y-111846560D01*
X95380063Y-111925878D01*
X95379203Y-111984846D01*
X95377321Y-112027384D01*
X95374026Y-112057407D01*
X95368926Y-112078837D01*
X95361634Y-112095589D01*
X95351754Y-112111581D01*
X95319977Y-112149052D01*
X95274945Y-112177661D01*
X95215790Y-112193445D01*
X95137840Y-112198297D01*
X95135305Y-112198292D01*
X95081120Y-112195845D01*
X95032620Y-112189745D01*
X94999522Y-112181191D01*
X94990447Y-112176904D01*
X94961567Y-112158752D01*
X94935432Y-112137178D01*
X94918236Y-112117764D01*
X94916175Y-112106091D01*
X94920197Y-112102937D01*
X94964024Y-112069261D01*
X94993329Y-112049399D01*
X95012706Y-112041387D01*
X95026748Y-112043254D01*
X95040043Y-112053035D01*
X95064582Y-112065244D01*
X95105936Y-112073385D01*
X95152674Y-112075497D01*
X95194966Y-112071199D01*
X95222983Y-112060113D01*
X95224457Y-112058764D01*
X95237047Y-112033419D01*
X95241980Y-111995589D01*
X95241980Y-111946831D01*
X95125670Y-111946784D01*
X95072240Y-111945939D01*
X95027264Y-111942260D01*
X94995092Y-111934691D01*
X94969101Y-111922192D01*
X94963052Y-111918353D01*
X94919290Y-111876155D01*
X94896013Y-111820353D01*
X94894045Y-111778434D01*
X95015645Y-111778434D01*
X95025071Y-111804271D01*
X95056236Y-111826737D01*
X95106332Y-111841150D01*
X95172419Y-111846237D01*
X95241980Y-111846237D01*
X95241980Y-111797889D01*
X95237332Y-111761096D01*
X95218985Y-111728731D01*
X95208486Y-111721726D01*
X95171011Y-111710809D01*
X95124227Y-111708083D01*
X95078348Y-111713621D01*
X95043590Y-111727495D01*
X95026274Y-111745839D01*
X95015645Y-111778434D01*
X94894045Y-111778434D01*
X94892701Y-111749777D01*
X94892843Y-111748118D01*
X94908165Y-111683521D01*
X94942247Y-111634937D01*
X94996782Y-111599928D01*
X95024964Y-111591411D01*
X95073236Y-111584772D01*
X95126022Y-111583187D01*
X95173647Y-111586840D01*
X95206434Y-111595918D01*
X95226348Y-111603187D01*
X95245845Y-111595917D01*
X95252977Y-111591705D01*
X95281442Y-111584874D01*
X95319941Y-111582178D01*
X95380297Y-111582178D01*
X95380297Y-111825516D01*
G36*
X95380297Y-111825516D02*
G01*
X95380293Y-111846560D01*
X95380063Y-111925878D01*
X95379203Y-111984846D01*
X95377321Y-112027384D01*
X95374026Y-112057407D01*
X95368926Y-112078837D01*
X95361634Y-112095589D01*
X95351754Y-112111581D01*
X95319977Y-112149052D01*
X95274945Y-112177661D01*
X95215790Y-112193445D01*
X95137840Y-112198297D01*
X95135305Y-112198292D01*
X95081120Y-112195845D01*
X95032620Y-112189745D01*
X94999522Y-112181191D01*
X94990447Y-112176904D01*
X94961567Y-112158752D01*
X94935432Y-112137178D01*
X94918236Y-112117764D01*
X94916175Y-112106091D01*
X94920197Y-112102937D01*
X94964024Y-112069261D01*
X94993329Y-112049399D01*
X95012706Y-112041387D01*
X95026748Y-112043254D01*
X95040043Y-112053035D01*
X95064582Y-112065244D01*
X95105936Y-112073385D01*
X95152674Y-112075497D01*
X95194966Y-112071199D01*
X95222983Y-112060113D01*
X95224457Y-112058764D01*
X95237047Y-112033419D01*
X95241980Y-111995589D01*
X95241980Y-111946831D01*
X95125670Y-111946784D01*
X95072240Y-111945939D01*
X95027264Y-111942260D01*
X94995092Y-111934691D01*
X94969101Y-111922192D01*
X94963052Y-111918353D01*
X94919290Y-111876155D01*
X94896013Y-111820353D01*
X94894045Y-111778434D01*
X95015645Y-111778434D01*
X95025071Y-111804271D01*
X95056236Y-111826737D01*
X95106332Y-111841150D01*
X95172419Y-111846237D01*
X95241980Y-111846237D01*
X95241980Y-111797889D01*
X95237332Y-111761096D01*
X95218985Y-111728731D01*
X95208486Y-111721726D01*
X95171011Y-111710809D01*
X95124227Y-111708083D01*
X95078348Y-111713621D01*
X95043590Y-111727495D01*
X95026274Y-111745839D01*
X95015645Y-111778434D01*
X94894045Y-111778434D01*
X94892701Y-111749777D01*
X94892843Y-111748118D01*
X94908165Y-111683521D01*
X94942247Y-111634937D01*
X94996782Y-111599928D01*
X95024964Y-111591411D01*
X95073236Y-111584772D01*
X95126022Y-111583187D01*
X95173647Y-111586840D01*
X95206434Y-111595918D01*
X95226348Y-111603187D01*
X95245845Y-111595917D01*
X95252977Y-111591705D01*
X95281442Y-111584874D01*
X95319941Y-111582178D01*
X95380297Y-111582178D01*
X95380297Y-111825516D01*
G37*
X94390074Y-111584664D02*
X94456089Y-111588465D01*
X94459228Y-111789653D01*
X94460156Y-111838575D01*
X94462792Y-111912074D01*
X94467316Y-111966009D01*
X94474562Y-112004005D01*
X94485358Y-112029687D01*
X94500538Y-112046680D01*
X94520934Y-112058611D01*
X94559204Y-112070795D01*
X94597262Y-112066060D01*
X94637451Y-112040021D01*
X94676139Y-112007467D01*
X94676139Y-111582178D01*
X94814456Y-111582178D01*
X94814456Y-111812824D01*
X94814323Y-111885118D01*
X94813587Y-111949359D01*
X94811819Y-111996382D01*
X94808589Y-112030452D01*
X94803470Y-112055831D01*
X94796033Y-112076779D01*
X94785850Y-112097564D01*
X94783436Y-112101976D01*
X94751325Y-112144953D01*
X94713744Y-112174986D01*
X94668436Y-112190757D01*
X94608439Y-112197778D01*
X94548357Y-112193975D01*
X94499475Y-112179132D01*
X94462376Y-112159948D01*
X94462376Y-112575141D01*
X94513208Y-112548646D01*
X94534442Y-112539020D01*
X94601465Y-112525408D01*
X94668070Y-112534816D01*
X94729813Y-112566095D01*
X94782243Y-112618098D01*
X94790457Y-112630320D01*
X94798351Y-112648237D01*
X94803500Y-112672596D01*
X94806472Y-112708073D01*
X94807839Y-112759344D01*
X94808169Y-112831083D01*
X94808056Y-112863816D01*
X94806128Y-112939957D01*
X94800760Y-112996834D01*
X94790594Y-113038751D01*
X94774275Y-113070004D01*
X94750447Y-113094894D01*
X94717753Y-113117718D01*
X94691242Y-113130816D01*
X94628385Y-113145261D01*
X94562131Y-113143294D01*
X94503243Y-113124567D01*
X94477970Y-113112327D01*
X94465258Y-113111062D01*
X94462377Y-113122202D01*
X94462374Y-113122539D01*
X94456163Y-113133913D01*
X94434740Y-113139744D01*
X94393218Y-113141386D01*
X94324060Y-113141386D01*
X94324060Y-112829350D01*
X94462376Y-112829350D01*
X94463288Y-112866376D01*
X94472391Y-112936272D01*
X94491172Y-112983536D01*
X94519524Y-113007832D01*
X94548160Y-113014668D01*
X94598030Y-113011463D01*
X94640167Y-112991620D01*
X94650251Y-112982520D01*
X94660936Y-112966777D01*
X94667544Y-112943342D01*
X94671468Y-112906396D01*
X94674103Y-112850120D01*
X94675251Y-112812764D01*
X94675139Y-112768151D01*
X94671728Y-112738399D01*
X94664063Y-112717165D01*
X94651186Y-112698104D01*
X94634829Y-112680383D01*
X94608671Y-112666972D01*
X94569259Y-112663564D01*
X94534441Y-112666529D01*
X94499981Y-112681369D01*
X94477784Y-112711431D01*
X94465903Y-112759745D01*
X94462376Y-112829350D01*
X94324060Y-112829350D01*
X94324060Y-111580864D01*
X94390074Y-111584664D01*
G36*
X94390074Y-111584664D02*
G01*
X94456089Y-111588465D01*
X94459228Y-111789653D01*
X94460156Y-111838575D01*
X94462792Y-111912074D01*
X94467316Y-111966009D01*
X94474562Y-112004005D01*
X94485358Y-112029687D01*
X94500538Y-112046680D01*
X94520934Y-112058611D01*
X94559204Y-112070795D01*
X94597262Y-112066060D01*
X94637451Y-112040021D01*
X94676139Y-112007467D01*
X94676139Y-111582178D01*
X94814456Y-111582178D01*
X94814456Y-111812824D01*
X94814323Y-111885118D01*
X94813587Y-111949359D01*
X94811819Y-111996382D01*
X94808589Y-112030452D01*
X94803470Y-112055831D01*
X94796033Y-112076779D01*
X94785850Y-112097564D01*
X94783436Y-112101976D01*
X94751325Y-112144953D01*
X94713744Y-112174986D01*
X94668436Y-112190757D01*
X94608439Y-112197778D01*
X94548357Y-112193975D01*
X94499475Y-112179132D01*
X94462376Y-112159948D01*
X94462376Y-112575141D01*
X94513208Y-112548646D01*
X94534442Y-112539020D01*
X94601465Y-112525408D01*
X94668070Y-112534816D01*
X94729813Y-112566095D01*
X94782243Y-112618098D01*
X94790457Y-112630320D01*
X94798351Y-112648237D01*
X94803500Y-112672596D01*
X94806472Y-112708073D01*
X94807839Y-112759344D01*
X94808169Y-112831083D01*
X94808056Y-112863816D01*
X94806128Y-112939957D01*
X94800760Y-112996834D01*
X94790594Y-113038751D01*
X94774275Y-113070004D01*
X94750447Y-113094894D01*
X94717753Y-113117718D01*
X94691242Y-113130816D01*
X94628385Y-113145261D01*
X94562131Y-113143294D01*
X94503243Y-113124567D01*
X94477970Y-113112327D01*
X94465258Y-113111062D01*
X94462377Y-113122202D01*
X94462374Y-113122539D01*
X94456163Y-113133913D01*
X94434740Y-113139744D01*
X94393218Y-113141386D01*
X94324060Y-113141386D01*
X94324060Y-112829350D01*
X94462376Y-112829350D01*
X94463288Y-112866376D01*
X94472391Y-112936272D01*
X94491172Y-112983536D01*
X94519524Y-113007832D01*
X94548160Y-113014668D01*
X94598030Y-113011463D01*
X94640167Y-112991620D01*
X94650251Y-112982520D01*
X94660936Y-112966777D01*
X94667544Y-112943342D01*
X94671468Y-112906396D01*
X94674103Y-112850120D01*
X94675251Y-112812764D01*
X94675139Y-112768151D01*
X94671728Y-112738399D01*
X94664063Y-112717165D01*
X94651186Y-112698104D01*
X94634829Y-112680383D01*
X94608671Y-112666972D01*
X94569259Y-112663564D01*
X94534441Y-112666529D01*
X94499981Y-112681369D01*
X94477784Y-112711431D01*
X94465903Y-112759745D01*
X94462376Y-112829350D01*
X94324060Y-112829350D01*
X94324060Y-111580864D01*
X94390074Y-111584664D01*
G37*
X97967936Y-113596930D02*
X97991003Y-113614515D01*
X98026567Y-113645477D01*
X98071529Y-113686769D01*
X98122794Y-113735347D01*
X98177267Y-113788165D01*
X98231852Y-113842177D01*
X98283453Y-113894339D01*
X98328976Y-113941604D01*
X98365325Y-113980928D01*
X98389405Y-114009264D01*
X98398119Y-114023568D01*
X98397617Y-114026289D01*
X98387245Y-114048440D01*
X98365088Y-114086765D01*
X98333288Y-114137800D01*
X98293984Y-114198085D01*
X98249319Y-114264158D01*
X98236793Y-114282382D01*
X98192808Y-114346515D01*
X98154063Y-114403211D01*
X98122818Y-114449156D01*
X98101331Y-114481030D01*
X98091860Y-114495517D01*
X98091627Y-114496138D01*
X98094421Y-114513861D01*
X98105097Y-114549765D01*
X98121919Y-114599338D01*
X98143157Y-114658068D01*
X98167079Y-114721444D01*
X98191954Y-114784954D01*
X98216049Y-114844087D01*
X98237635Y-114894331D01*
X98254977Y-114931174D01*
X98266345Y-114950106D01*
X98267484Y-114951281D01*
X98275624Y-114957228D01*
X98289371Y-114963224D01*
X98311463Y-114969886D01*
X98344637Y-114977827D01*
X98391630Y-114987663D01*
X98455179Y-115000009D01*
X98538024Y-115015480D01*
X98642900Y-115034690D01*
X98664652Y-115038734D01*
X98726964Y-115051231D01*
X98779381Y-115063073D01*
X98816934Y-115073083D01*
X98834657Y-115080084D01*
X98837622Y-115085925D01*
X98842564Y-115113984D01*
X98846482Y-115160500D01*
X98849371Y-115221113D01*
X98851227Y-115291468D01*
X98852048Y-115367204D01*
X98851832Y-115443963D01*
X98850574Y-115517388D01*
X98848272Y-115583120D01*
X98844924Y-115636800D01*
X98840526Y-115674070D01*
X98835074Y-115690574D01*
X98829508Y-115693011D01*
X98801822Y-115700695D01*
X98755021Y-115711563D01*
X98692843Y-115724808D01*
X98619021Y-115739616D01*
X98537289Y-115755177D01*
X98492664Y-115763491D01*
X98416176Y-115777908D01*
X98350340Y-115790533D01*
X98298677Y-115800679D01*
X98264707Y-115807658D01*
X98251952Y-115810788D01*
X98251472Y-115811432D01*
X98243349Y-115827819D01*
X98227863Y-115862147D01*
X98206950Y-115909864D01*
X98182545Y-115966414D01*
X98156585Y-116027242D01*
X98131003Y-116087794D01*
X98107738Y-116143515D01*
X98088723Y-116189850D01*
X98075895Y-116222245D01*
X98071188Y-116236145D01*
X98073264Y-116241035D01*
X98087080Y-116264308D01*
X98112139Y-116303481D01*
X98146432Y-116355480D01*
X98187941Y-116417232D01*
X98234654Y-116485664D01*
X98260282Y-116523140D01*
X98304511Y-116588844D01*
X98342430Y-116646508D01*
X98372020Y-116692986D01*
X98391257Y-116725134D01*
X98398119Y-116739810D01*
X98393351Y-116747770D01*
X98373408Y-116771554D01*
X98340687Y-116807548D01*
X98298195Y-116852705D01*
X98248935Y-116903972D01*
X98195909Y-116958299D01*
X98142123Y-117012636D01*
X98090579Y-117063933D01*
X98044280Y-117109141D01*
X98006231Y-117145208D01*
X97979435Y-117169086D01*
X97966895Y-117177722D01*
X97959934Y-117174364D01*
X97934373Y-117158790D01*
X97893126Y-117132285D01*
X97839163Y-117096791D01*
X97775458Y-117054250D01*
X97704984Y-117006605D01*
X97453338Y-116835488D01*
X97033812Y-117008430D01*
X96976964Y-117309982D01*
X96920115Y-117611535D01*
X96292459Y-117611534D01*
X96235611Y-117309982D01*
X96178763Y-117008430D01*
X95968999Y-116921959D01*
X95759236Y-116835488D01*
X95507590Y-117006605D01*
X95457784Y-117040339D01*
X95391756Y-117084618D01*
X95334590Y-117122439D01*
X95289256Y-117151858D01*
X95258720Y-117170933D01*
X95245954Y-117177722D01*
X95238113Y-117172894D01*
X95214675Y-117152661D01*
X95179206Y-117119457D01*
X95134711Y-117076330D01*
X95084195Y-117026329D01*
X95030663Y-116972505D01*
X94977123Y-116917905D01*
X94926577Y-116865577D01*
X94882032Y-116818572D01*
X94846493Y-116779937D01*
X94822966Y-116752722D01*
X94814456Y-116739976D01*
X94816436Y-116734500D01*
X94830143Y-116710073D01*
X94855175Y-116669871D01*
X94889501Y-116617048D01*
X94931093Y-116554754D01*
X94977921Y-116486138D01*
X95003620Y-116448717D01*
X95047827Y-116383568D01*
X95085728Y-116326711D01*
X95115302Y-116281230D01*
X95134528Y-116250207D01*
X95141386Y-116236726D01*
X95141274Y-116235979D01*
X95135224Y-116218890D01*
X95121346Y-116183994D01*
X95101573Y-116135849D01*
X95077840Y-116079014D01*
X95052082Y-116018047D01*
X95026234Y-115957509D01*
X95002229Y-115901953D01*
X94982002Y-115855943D01*
X94967489Y-115824035D01*
X94960623Y-115810788D01*
X94956562Y-115809613D01*
X94931879Y-115804313D01*
X94887889Y-115795533D01*
X94828113Y-115783960D01*
X94756071Y-115770279D01*
X94675284Y-115755177D01*
X94632706Y-115747170D01*
X94554555Y-115731893D01*
X94486225Y-115717785D01*
X94431449Y-115705655D01*
X94393963Y-115696314D01*
X94377500Y-115690573D01*
X94374543Y-115684881D01*
X94369638Y-115657069D01*
X94365784Y-115610750D01*
X94362979Y-115550280D01*
X94361219Y-115480017D01*
X94360501Y-115404320D01*
X94360823Y-115327547D01*
X94362181Y-115254055D01*
X94364572Y-115188206D01*
X94367993Y-115134355D01*
X94372445Y-115096862D01*
X94377918Y-115080084D01*
X94381240Y-115078191D01*
X94406012Y-115070074D01*
X94448989Y-115059334D01*
X94505198Y-115047147D01*
X94569675Y-115034690D01*
X94591430Y-115030723D01*
X94691907Y-115012271D01*
X94770874Y-114997441D01*
X94831066Y-114985620D01*
X94875222Y-114976191D01*
X94906080Y-114968540D01*
X94926375Y-114962052D01*
X94938846Y-114956112D01*
X94946229Y-114950106D01*
X94947087Y-114949099D01*
X94959162Y-114928081D01*
X94977029Y-114889624D01*
X94998958Y-114838239D01*
X95023216Y-114778437D01*
X95048073Y-114714729D01*
X95071795Y-114651629D01*
X95092653Y-114593645D01*
X95108913Y-114545291D01*
X95118844Y-114511078D01*
X95120715Y-114495517D01*
X95119464Y-114493498D01*
X95106514Y-114473972D01*
X95082160Y-114437958D01*
X95048660Y-114388772D01*
X95008273Y-114329732D01*
X94963255Y-114264158D01*
X94950900Y-114246116D01*
X94907455Y-114181401D01*
X94869909Y-114123525D01*
X94840406Y-114075918D01*
X94821086Y-114042015D01*
X94814095Y-114025247D01*
X94815602Y-114020839D01*
X94831305Y-113999118D01*
X94862286Y-113963646D01*
X94906327Y-113916812D01*
X94961210Y-113861003D01*
X95024714Y-113798608D01*
X95061012Y-113763683D01*
X95118405Y-113709289D01*
X95168639Y-113662697D01*
X95209016Y-113626364D01*
X95236840Y-113602739D01*
X95249410Y-113594276D01*
X95258049Y-113597413D01*
X95284640Y-113612252D01*
X95323259Y-113636523D01*
X95368866Y-113667148D01*
X95401293Y-113689497D01*
X95466030Y-113733878D01*
X95535114Y-113781013D01*
X95598213Y-113823845D01*
X95721822Y-113907453D01*
X95825583Y-113851350D01*
X95850016Y-113838401D01*
X95894448Y-113816251D01*
X95928809Y-113800959D01*
X95947172Y-113795257D01*
X95953182Y-113802579D01*
X95968105Y-113830459D01*
X95990148Y-113876425D01*
X96018083Y-113937559D01*
X96050683Y-114010945D01*
X96086724Y-114093665D01*
X96124977Y-114182803D01*
X96164217Y-114275441D01*
X96203217Y-114368663D01*
X96240751Y-114459550D01*
X96275591Y-114545186D01*
X96306512Y-114622655D01*
X96332286Y-114689038D01*
X96351689Y-114741418D01*
X96363492Y-114776879D01*
X96366470Y-114792504D01*
X96366268Y-114792962D01*
X96352399Y-114807405D01*
X96323389Y-114830025D01*
X96285228Y-114856136D01*
X96273183Y-114864108D01*
X96181531Y-114939744D01*
X96105676Y-115029831D01*
X96047419Y-115130619D01*
X96008552Y-115238360D01*
X95990872Y-115349303D01*
X95996174Y-115459697D01*
X96017653Y-115557884D01*
X96056218Y-115657034D01*
X96112438Y-115745488D01*
X96189590Y-115829513D01*
X96219905Y-115856355D01*
X96317906Y-115922490D01*
X96423773Y-115967030D01*
X96534439Y-115990375D01*
X96646836Y-115992923D01*
X96757896Y-115975071D01*
X96864549Y-115937220D01*
X96963730Y-115879769D01*
X97052369Y-115803113D01*
X97127400Y-115707654D01*
X97141825Y-115684014D01*
X97190857Y-115575966D01*
X97216897Y-115463452D01*
X97220628Y-115349386D01*
X97202732Y-115236682D01*
X97163891Y-115128255D01*
X97104786Y-115027018D01*
X97026100Y-114935886D01*
X96928515Y-114857772D01*
X96925345Y-114855667D01*
X96887589Y-114829060D01*
X96859291Y-114806439D01*
X96846366Y-114792504D01*
X96847997Y-114781579D01*
X96858136Y-114749769D01*
X96876116Y-114700466D01*
X96900708Y-114636587D01*
X96930689Y-114561052D01*
X96964830Y-114476777D01*
X97001908Y-114386680D01*
X97040694Y-114293679D01*
X97079964Y-114200692D01*
X97118491Y-114110636D01*
X97155051Y-114026429D01*
X97188414Y-113950990D01*
X97217357Y-113887235D01*
X97240654Y-113838083D01*
X97257077Y-113806452D01*
X97265402Y-113795257D01*
X97272326Y-113796773D01*
X97299523Y-113807669D01*
X97339720Y-113826772D01*
X97386991Y-113851350D01*
X97490752Y-113907453D01*
X97614361Y-113823845D01*
X97650879Y-113799087D01*
X97718806Y-113752829D01*
X97786525Y-113706497D01*
X97843709Y-113667148D01*
X97875268Y-113645703D01*
X97916286Y-113619061D01*
X97946699Y-113600821D01*
X97961554Y-113594059D01*
X97967936Y-113596930D01*
G36*
X97967936Y-113596930D02*
G01*
X97991003Y-113614515D01*
X98026567Y-113645477D01*
X98071529Y-113686769D01*
X98122794Y-113735347D01*
X98177267Y-113788165D01*
X98231852Y-113842177D01*
X98283453Y-113894339D01*
X98328976Y-113941604D01*
X98365325Y-113980928D01*
X98389405Y-114009264D01*
X98398119Y-114023568D01*
X98397617Y-114026289D01*
X98387245Y-114048440D01*
X98365088Y-114086765D01*
X98333288Y-114137800D01*
X98293984Y-114198085D01*
X98249319Y-114264158D01*
X98236793Y-114282382D01*
X98192808Y-114346515D01*
X98154063Y-114403211D01*
X98122818Y-114449156D01*
X98101331Y-114481030D01*
X98091860Y-114495517D01*
X98091627Y-114496138D01*
X98094421Y-114513861D01*
X98105097Y-114549765D01*
X98121919Y-114599338D01*
X98143157Y-114658068D01*
X98167079Y-114721444D01*
X98191954Y-114784954D01*
X98216049Y-114844087D01*
X98237635Y-114894331D01*
X98254977Y-114931174D01*
X98266345Y-114950106D01*
X98267484Y-114951281D01*
X98275624Y-114957228D01*
X98289371Y-114963224D01*
X98311463Y-114969886D01*
X98344637Y-114977827D01*
X98391630Y-114987663D01*
X98455179Y-115000009D01*
X98538024Y-115015480D01*
X98642900Y-115034690D01*
X98664652Y-115038734D01*
X98726964Y-115051231D01*
X98779381Y-115063073D01*
X98816934Y-115073083D01*
X98834657Y-115080084D01*
X98837622Y-115085925D01*
X98842564Y-115113984D01*
X98846482Y-115160500D01*
X98849371Y-115221113D01*
X98851227Y-115291468D01*
X98852048Y-115367204D01*
X98851832Y-115443963D01*
X98850574Y-115517388D01*
X98848272Y-115583120D01*
X98844924Y-115636800D01*
X98840526Y-115674070D01*
X98835074Y-115690574D01*
X98829508Y-115693011D01*
X98801822Y-115700695D01*
X98755021Y-115711563D01*
X98692843Y-115724808D01*
X98619021Y-115739616D01*
X98537289Y-115755177D01*
X98492664Y-115763491D01*
X98416176Y-115777908D01*
X98350340Y-115790533D01*
X98298677Y-115800679D01*
X98264707Y-115807658D01*
X98251952Y-115810788D01*
X98251472Y-115811432D01*
X98243349Y-115827819D01*
X98227863Y-115862147D01*
X98206950Y-115909864D01*
X98182545Y-115966414D01*
X98156585Y-116027242D01*
X98131003Y-116087794D01*
X98107738Y-116143515D01*
X98088723Y-116189850D01*
X98075895Y-116222245D01*
X98071188Y-116236145D01*
X98073264Y-116241035D01*
X98087080Y-116264308D01*
X98112139Y-116303481D01*
X98146432Y-116355480D01*
X98187941Y-116417232D01*
X98234654Y-116485664D01*
X98260282Y-116523140D01*
X98304511Y-116588844D01*
X98342430Y-116646508D01*
X98372020Y-116692986D01*
X98391257Y-116725134D01*
X98398119Y-116739810D01*
X98393351Y-116747770D01*
X98373408Y-116771554D01*
X98340687Y-116807548D01*
X98298195Y-116852705D01*
X98248935Y-116903972D01*
X98195909Y-116958299D01*
X98142123Y-117012636D01*
X98090579Y-117063933D01*
X98044280Y-117109141D01*
X98006231Y-117145208D01*
X97979435Y-117169086D01*
X97966895Y-117177722D01*
X97959934Y-117174364D01*
X97934373Y-117158790D01*
X97893126Y-117132285D01*
X97839163Y-117096791D01*
X97775458Y-117054250D01*
X97704984Y-117006605D01*
X97453338Y-116835488D01*
X97033812Y-117008430D01*
X96976964Y-117309982D01*
X96920115Y-117611535D01*
X96292459Y-117611534D01*
X96235611Y-117309982D01*
X96178763Y-117008430D01*
X95968999Y-116921959D01*
X95759236Y-116835488D01*
X95507590Y-117006605D01*
X95457784Y-117040339D01*
X95391756Y-117084618D01*
X95334590Y-117122439D01*
X95289256Y-117151858D01*
X95258720Y-117170933D01*
X95245954Y-117177722D01*
X95238113Y-117172894D01*
X95214675Y-117152661D01*
X95179206Y-117119457D01*
X95134711Y-117076330D01*
X95084195Y-117026329D01*
X95030663Y-116972505D01*
X94977123Y-116917905D01*
X94926577Y-116865577D01*
X94882032Y-116818572D01*
X94846493Y-116779937D01*
X94822966Y-116752722D01*
X94814456Y-116739976D01*
X94816436Y-116734500D01*
X94830143Y-116710073D01*
X94855175Y-116669871D01*
X94889501Y-116617048D01*
X94931093Y-116554754D01*
X94977921Y-116486138D01*
X95003620Y-116448717D01*
X95047827Y-116383568D01*
X95085728Y-116326711D01*
X95115302Y-116281230D01*
X95134528Y-116250207D01*
X95141386Y-116236726D01*
X95141274Y-116235979D01*
X95135224Y-116218890D01*
X95121346Y-116183994D01*
X95101573Y-116135849D01*
X95077840Y-116079014D01*
X95052082Y-116018047D01*
X95026234Y-115957509D01*
X95002229Y-115901953D01*
X94982002Y-115855943D01*
X94967489Y-115824035D01*
X94960623Y-115810788D01*
X94956562Y-115809613D01*
X94931879Y-115804313D01*
X94887889Y-115795533D01*
X94828113Y-115783960D01*
X94756071Y-115770279D01*
X94675284Y-115755177D01*
X94632706Y-115747170D01*
X94554555Y-115731893D01*
X94486225Y-115717785D01*
X94431449Y-115705655D01*
X94393963Y-115696314D01*
X94377500Y-115690573D01*
X94374543Y-115684881D01*
X94369638Y-115657069D01*
X94365784Y-115610750D01*
X94362979Y-115550280D01*
X94361219Y-115480017D01*
X94360501Y-115404320D01*
X94360823Y-115327547D01*
X94362181Y-115254055D01*
X94364572Y-115188206D01*
X94367993Y-115134355D01*
X94372445Y-115096862D01*
X94377918Y-115080084D01*
X94381240Y-115078191D01*
X94406012Y-115070074D01*
X94448989Y-115059334D01*
X94505198Y-115047147D01*
X94569675Y-115034690D01*
X94591430Y-115030723D01*
X94691907Y-115012271D01*
X94770874Y-114997441D01*
X94831066Y-114985620D01*
X94875222Y-114976191D01*
X94906080Y-114968540D01*
X94926375Y-114962052D01*
X94938846Y-114956112D01*
X94946229Y-114950106D01*
X94947087Y-114949099D01*
X94959162Y-114928081D01*
X94977029Y-114889624D01*
X94998958Y-114838239D01*
X95023216Y-114778437D01*
X95048073Y-114714729D01*
X95071795Y-114651629D01*
X95092653Y-114593645D01*
X95108913Y-114545291D01*
X95118844Y-114511078D01*
X95120715Y-114495517D01*
X95119464Y-114493498D01*
X95106514Y-114473972D01*
X95082160Y-114437958D01*
X95048660Y-114388772D01*
X95008273Y-114329732D01*
X94963255Y-114264158D01*
X94950900Y-114246116D01*
X94907455Y-114181401D01*
X94869909Y-114123525D01*
X94840406Y-114075918D01*
X94821086Y-114042015D01*
X94814095Y-114025247D01*
X94815602Y-114020839D01*
X94831305Y-113999118D01*
X94862286Y-113963646D01*
X94906327Y-113916812D01*
X94961210Y-113861003D01*
X95024714Y-113798608D01*
X95061012Y-113763683D01*
X95118405Y-113709289D01*
X95168639Y-113662697D01*
X95209016Y-113626364D01*
X95236840Y-113602739D01*
X95249410Y-113594276D01*
X95258049Y-113597413D01*
X95284640Y-113612252D01*
X95323259Y-113636523D01*
X95368866Y-113667148D01*
X95401293Y-113689497D01*
X95466030Y-113733878D01*
X95535114Y-113781013D01*
X95598213Y-113823845D01*
X95721822Y-113907453D01*
X95825583Y-113851350D01*
X95850016Y-113838401D01*
X95894448Y-113816251D01*
X95928809Y-113800959D01*
X95947172Y-113795257D01*
X95953182Y-113802579D01*
X95968105Y-113830459D01*
X95990148Y-113876425D01*
X96018083Y-113937559D01*
X96050683Y-114010945D01*
X96086724Y-114093665D01*
X96124977Y-114182803D01*
X96164217Y-114275441D01*
X96203217Y-114368663D01*
X96240751Y-114459550D01*
X96275591Y-114545186D01*
X96306512Y-114622655D01*
X96332286Y-114689038D01*
X96351689Y-114741418D01*
X96363492Y-114776879D01*
X96366470Y-114792504D01*
X96366268Y-114792962D01*
X96352399Y-114807405D01*
X96323389Y-114830025D01*
X96285228Y-114856136D01*
X96273183Y-114864108D01*
X96181531Y-114939744D01*
X96105676Y-115029831D01*
X96047419Y-115130619D01*
X96008552Y-115238360D01*
X95990872Y-115349303D01*
X95996174Y-115459697D01*
X96017653Y-115557884D01*
X96056218Y-115657034D01*
X96112438Y-115745488D01*
X96189590Y-115829513D01*
X96219905Y-115856355D01*
X96317906Y-115922490D01*
X96423773Y-115967030D01*
X96534439Y-115990375D01*
X96646836Y-115992923D01*
X96757896Y-115975071D01*
X96864549Y-115937220D01*
X96963730Y-115879769D01*
X97052369Y-115803113D01*
X97127400Y-115707654D01*
X97141825Y-115684014D01*
X97190857Y-115575966D01*
X97216897Y-115463452D01*
X97220628Y-115349386D01*
X97202732Y-115236682D01*
X97163891Y-115128255D01*
X97104786Y-115027018D01*
X97026100Y-114935886D01*
X96928515Y-114857772D01*
X96925345Y-114855667D01*
X96887589Y-114829060D01*
X96859291Y-114806439D01*
X96846366Y-114792504D01*
X96847997Y-114781579D01*
X96858136Y-114749769D01*
X96876116Y-114700466D01*
X96900708Y-114636587D01*
X96930689Y-114561052D01*
X96964830Y-114476777D01*
X97001908Y-114386680D01*
X97040694Y-114293679D01*
X97079964Y-114200692D01*
X97118491Y-114110636D01*
X97155051Y-114026429D01*
X97188414Y-113950990D01*
X97217357Y-113887235D01*
X97240654Y-113838083D01*
X97257077Y-113806452D01*
X97265402Y-113795257D01*
X97272326Y-113796773D01*
X97299523Y-113807669D01*
X97339720Y-113826772D01*
X97386991Y-113851350D01*
X97490752Y-113907453D01*
X97614361Y-113823845D01*
X97650879Y-113799087D01*
X97718806Y-113752829D01*
X97786525Y-113706497D01*
X97843709Y-113667148D01*
X97875268Y-113645703D01*
X97916286Y-113619061D01*
X97946699Y-113600821D01*
X97961554Y-113594059D01*
X97967936Y-113596930D01*
G37*
%TD*%
M02*
