M48
; DRILL file {KiCad 9.0.4} date 2025-09-07T07:02:54-0400
; FORMAT={-:-/ absolute / inch / decimal}
; #@! TF.CreationDate,2025-09-07T07:02:54-04:00
; #@! TF.GenerationSoftware,Kicad,Pcbnew,9.0.4
; #@! TF.FileFunction,Plated,1,2,PTH
FMAT,2
INCH
; #@! TA.AperFunction,Plated,PTH,ComponentDrill
T1C0.0100
; #@! TA.AperFunction,Plated,PTH,ViaDrill
T2C0.0157
%
G90
G05
T1
X3.3762Y-3.6862
X3.3762Y-3.763
X3.3762Y-3.7886
X3.3762Y-3.8142
X3.3762Y-3.8654
X3.3762Y-3.8909
X3.3762Y-3.9165
X3.3762Y-3.9421
X3.3762Y-3.9933
X3.3762Y-4.0189
X3.3762Y-4.0445
X3.3762Y-4.0957
X3.3762Y-4.1213
X3.3762Y-4.1469
X3.3762Y-4.198
X3.3762Y-4.2236
X3.3762Y-4.2492
X3.3764Y-4.1724
X3.4028Y-3.6862
X3.4028Y-3.763
X3.4028Y-3.7886
X3.4028Y-3.8142
X3.4028Y-3.8654
X3.4028Y-3.8909
X3.4028Y-3.9165
X3.4028Y-3.9421
X3.4028Y-3.9933
X3.4028Y-4.0189
X3.4028Y-4.0445
X3.4028Y-4.0957
X3.4028Y-4.1213
X3.4028Y-4.1469
X3.4028Y-4.198
X3.4028Y-4.2236
X3.4028Y-4.2492
X3.403Y-4.1724
T2
X3.4567Y-3.6862
X3.4843Y-3.9764
X3.4882Y-3.8504
X3.5197Y-4.2008
X3.5433Y-4.063
X3.5551Y-3.7205
X3.5669Y-4.2441
X3.5984Y-4.3543
X3.6417Y-4.5118
X3.6772Y-4.626
X3.7126Y-4.063
X3.7638Y-3.6417
X3.91Y-4.1493
X3.9252Y-4.0709
X3.9291Y-3.8937
X3.9291Y-4.2008
X3.9291Y-4.248
X3.9331Y-3.7795
X3.9961Y-4.5551
M30
